<?xml version="1.0" standalone="no"?>
<!DOCTYPE svg PUBLIC "-//W3C//DTD SVG 1.1//EN" "http://www.w3.org/Graphics/SVG/1.1/DTD/svg11.dtd" >
<svg xmlns="http://www.w3.org/2000/svg">
<metadata></metadata>
<defs>
<font id="GlyphaLTStdItalic" horiz-adv-x="1138" >
<font-face units-per-em="2048" ascent="1466" descent="-582" />
<missing-glyph horiz-adv-x="569" />
<glyph horiz-adv-x="0" />
<glyph horiz-adv-x="2048" />
<glyph unicode=" "  horiz-adv-x="569" />
<glyph unicode="&#x09;" horiz-adv-x="569" />
<glyph unicode="&#xa0;" horiz-adv-x="569" />
<glyph unicode="!" horiz-adv-x="796" d="M303 0l33 190h194l-32 -190h-195zM397 344l152 1122h211l-232 -1122h-131z" />
<glyph unicode="&#x22;" horiz-adv-x="573" d="M256 899l76 567h153l-125 -567h-104zM526 899l76 567h154l-125 -567h-105z" />
<glyph unicode="#" d="M129 535l16 94h310l73 239h-284l16 97h301l158 501h96l-156 -501h248l160 501h94l-155 -501h268l-17 -97h-286l-72 -239h264l-16 -94h-283l-168 -535h-96l168 535h-250l-168 -535h-96l166 535h-291zM553 629h248l73 239h-247z" />
<glyph unicode="$" d="M109 0l73 418h146q-18 -117 46.5 -197.5t176.5 -103.5l98 557q-182 67 -264 129q-133 101 -96 301q16 89 65 162t118.5 120t152 72.5t168.5 26.5l34 201h97l-37 -209q78 -15 135.5 -52.5t75.5 -99.5l24 137h146l-72 -403h-141q4 25 2 35q7 107 -44 172t-149 84l-94 -535 l74 -29q32 -13 58 -24.5t53 -26.5t47.5 -30t40 -34t33 -39t24 -45t15 -53t4 -61.5t-6.5 -71.5q-37 -198 -188 -315q-66 -52 -144.5 -80.5t-156.5 -28.5l-37 -210h-97l39 217q-161 26 -235 153q-8 8 -8 23l-29 -160h-147zM465 1108q-9 -54 5 -96.5t52 -73t71 -47.5t87 -39 l90 506q-61 -2 -111 -18.5t-89.5 -46.5t-66.5 -77t-38 -108zM647 111q109 3 189 75q78 75 98 183q10 56 -1 100t-42.5 75.5t-66 52.5t-85.5 42z" />
<glyph unicode="%" horiz-adv-x="1820" d="M424 -25l1110 1518h121l-1106 -1518h-125zM445.5 1029q1.5 53 9.5 108q27 148 124 252t240 104q62 0 108 -20.5t71.5 -55.5t39.5 -82t12 -100t-10 -109q-27 -154 -121 -259t-241 -105q-61 0 -107 21.5t-71.5 58.5t-40.5 85.5t-13.5 101.5zM587.5 1028.5 q1.5 -41.5 10.5 -76t37.5 -57.5t73.5 -23q41 0 75.5 26.5t56.5 68t35.5 81t20.5 76.5q43 260 -100 260q-39 0 -71.5 -19.5t-53.5 -48t-37.5 -68.5t-25.5 -72.5t-15 -67.5q-8 -38 -6.5 -79.5zM1031 207.5q-7 67.5 9 140.5q27 148 123.5 251t239.5 103q63 0 109 -20 t71.5 -54.5t40 -81t12.5 -99.5t-10 -109q-12 -69 -40 -132t-70 -115.5t-104.5 -84t-135.5 -31.5q-80 0 -135 31t-79 82.5t-31 119zM1182 317q-37 -233 112 -233q40 0 75 26.5t58 67.5t37.5 81.5t20.5 76.5q7 44 8.5 82.5t-5.5 82t-33.5 69.5t-72.5 26q-150 0 -200 -279z" />
<glyph unicode="&#x26;" horiz-adv-x="1593" d="M188 406q24 142 127 256t248 169q-71 82 -106.5 164.5t-18.5 178.5q13 69 56 139t102 110q109 74 270 74q169 0 242 -78q84 -94 59 -233q-42 -240 -348 -391l279 -402q92 144 141 340h-160l23 131h500l-23 -131h-184q-71 -233 -144 -354q-10 -13 -31.5 -47t-37.5 -51 l104 -146h219l-24 -135h-334l-100 147q-95 -88 -219.5 -136t-245.5 -48q-215 0 -323 115.5t-71 327.5zM375 401q-11 -60 2 -119t47 -102q55 -78 178 -78q91 0 194 44t173 114l-318 457q-109 -54 -183.5 -134t-92.5 -182zM622 1146.5q-2 -15.5 3.5 -36t8.5 -34t13 -32.5 t16.5 -31t18.5 -30t20 -29t20 -28t19 -27q90 44 164 120.5t90 160.5q15 90 -24.5 140t-128.5 50q-83 0 -143.5 -51.5t-73.5 -134.5q-1 -22 -3 -37.5z" />
<glyph unicode="'" horiz-adv-x="286" d="M248 899l76 567h153l-125 -567h-104z" />
<glyph unicode="(" horiz-adv-x="681" d="M204 58.5q-35 240.5 7 492.5q89 502 469 946h154q-177 -201 -291 -449.5t-160 -508.5q-22 -127 -22.5 -278t24 -302t72.5 -252q21 -49 45 -96h-156q-107 207 -142 447.5z" />
<glyph unicode=")" horiz-adv-x="681" d="M23 -389q176 201 290 448.5t160 507.5q24 156 24 314.5t-35 320.5t-100 279q-4 4 -8 16h156q106 -209 141.5 -448.5t-6.5 -493.5q-90 -504 -469 -944h-153z" />
<glyph unicode="*" horiz-adv-x="909" d="M328 1147l80 158l215 -131l10 292h164l-88 -292l262 120l18 -155l-274 -49l143 -222l-149 -90l-68 262l-174 -262l-113 101l228 211z" />
<glyph unicode="+" horiz-adv-x="1351" d="M264 670l21 125h456l82 456h127l-82 -456h457l-20 -125h-457l-82 -457h-127l82 457h-457z" />
<glyph unicode="," horiz-adv-x="569" d="M121 -289l147 289h-96l37 207h209l-37 -207l-141 -289h-119z" />
<glyph unicode="-" horiz-adv-x="681" d="M186 492l27 149h483l-26 -149h-484z" />
<glyph unicode="." horiz-adv-x="569" d="M178 0l37 207h209l-37 -207h-209z" />
<glyph unicode="/" horiz-adv-x="720" d="M2 0l848 1497h143l-846 -1497h-145z" />
<glyph unicode="0" d="M219 248q-48 169 2 448q2 17 9.5 48t9.5 42q32 151 72 264.5t110 213.5q72 106 184 167.5t232 61.5q83 0 147 -25t104 -66.5t65.5 -102t36 -124t10.5 -140t-7 -143.5t-20 -140q-13 -76 -30 -145t-44.5 -149.5t-60.5 -147t-81.5 -130.5t-105 -108t-132.5 -70.5t-163 -26.5 q-253 0 -338 273zM384.5 390q2.5 -51 15 -104.5t35 -89.5t62.5 -59.5t95 -23.5q44 0 83 15t68 36.5t57 58.5t45.5 67.5t37.5 79t30 76t25 74.5q21 63 39 164q37 205 39 311q0 164 -27 234q-24 58 -67 94.5t-103 36.5q-47 0 -89.5 -17t-75 -42t-63 -69t-50.5 -80t-41 -95 t-32 -95t-25 -98t-18.5 -86t-14.5 -76q-9 -49 -14.5 -93t-9.5 -106t-1.5 -113z" />
<glyph unicode="1" d="M317 0l25 135h221l203 1151l-33 -31q-161 -149 -344 -256l33 187q21 15 73 52t79.5 57t69.5 51.5t77 60.5t67 59h187l-234 -1331h207l-24 -135h-607z" />
<glyph unicode="2" d="M100 0l35 193q0 3 1 8q2 16 9 23q1 0 4 2l7 7q228 182 495 418q57 50 140 133q66 63 112 119q68 83 86 184q21 119 -30 192t-168 73q-62 0 -116.5 -25t-93 -68t-63.5 -96.5t-35 -113.5h-188q16 60 53 153q25 66 82 130t121 98q118 63 266 63q101 0 168 -19.5t123 -76.5 q49 -49 68.5 -122.5t7.5 -150.5q-13 -69 -35.5 -126t-60 -109.5t-75.5 -93t-100 -99.5q-206 -189 -424 -374q-110 -87 -223 -181h604l41 236h162l-65 -377h-908z" />
<glyph unicode="3" d="M180 410h191q-11 -56 -3.5 -108.5t28.5 -93t65 -65t104 -24.5q129 0 219 76.5t113 205.5q11 64 -6 124t-60 96q-37 34 -90 45.5t-127 13.5l23 137q143 -3 243.5 65t125.5 208q21 116 -33 190t-170 74q-47 0 -98.5 -16.5t-86.5 -47.5q-103 -93 -116 -213h-189 q36 193 181.5 304.5t343.5 111.5q91 0 159 -23q115 -43 165.5 -139.5t27.5 -224.5q-26 -150 -121 -242.5t-248 -118.5q147 -15 214.5 -110t41.5 -246q-36 -198 -180.5 -306t-345.5 -108q-209 0 -308 114t-63 321z" />
<glyph unicode="4" d="M127 391l35 197l727 878h217l-166 -942h205l-23 -133h-204l-46 -256h187l-25 -135h-577l24 135h224l45 256h-623zM276 524h496l137 776z" />
<glyph unicode="5" d="M217 389h182q-25 -105 32 -189.5t163 -84.5q140 0 228.5 95t115.5 239q25 166 -16 241q-56 109 -189 109q-89 0 -172.5 -54.5t-124.5 -142.5h-174l180 864h793l-25 -143h-628l-127 -567q51 90 142.5 135t195.5 45q101 0 170 -34.5t114 -110.5q36 -60 46 -154.5t-5 -169.5 q-25 -143 -99.5 -258t-203.5 -182q-42 -22 -114.5 -37t-122.5 -15q-199 0 -299 109t-62 305z" />
<glyph unicode="6" d="M213 410.5q0 74.5 7 140t20 139.5q142 803 653 803q178 0 256.5 -98.5t54.5 -276.5h-178q9 66 -0.5 117t-48 87t-105.5 36q-73 0 -137 -33t-108.5 -84t-81 -120.5t-57.5 -133t-37 -131.5q-27 -123 -33 -164q52 105 159 172.5t220 67.5q83 0 145.5 -25t99 -69t58 -103.5 t21 -129.5t-12.5 -146q-36 -216 -176 -350t-354 -134q-83 0 -147.5 23.5t-105 62.5t-66 96t-36 118t-10.5 135.5zM390.5 349.5q-0.5 -48.5 14.5 -92t39.5 -76.5t66.5 -52.5t97 -19.5q69 0 127.5 32t97.5 85t64 113t37 124q13 55 7 114t-24 107.5t-62 79.5t-107 31 q-138 0 -231 -101.5t-118 -244.5q-8 -51 -8.5 -99.5z" />
<glyph unicode="7" d="M303 1065l70 401h936l-27 -157l-184 -289q-300 -470 -566 -1020h-192l174 332q42 82 94.5 174.5t90 155.5t109 176t97 153t113 173.5t102.5 156.5h-606l-45 -256h-166z" />
<glyph unicode="8" d="M186 393q7 45 56 154q39 84 129 139t188 70q-129 19 -191 112.5t-38 227.5q23 127 95.5 217.5t177 135t231.5 44.5q193 0 296.5 -97t71.5 -284q-26 -148 -116.5 -238t-239.5 -116q35 -4 104 -33q93 -32 127.5 -126t14.5 -206q-35 -194 -179 -306t-342 -112 q-212 0 -317 105.5t-68 312.5zM369 408q-15 -82 1 -148.5t68.5 -108.5t136.5 -42q140 0 227 81t111 222q24 129 -35 206.5t-188 77.5q-126 0 -212.5 -80.5t-108.5 -207.5zM500 1079q-20 -112 41 -187t174 -75q116 0 202 81t107 198q22 124 -35 196t-182 72q-56 0 -112.5 -24 t-100.5 -66q-73 -69 -94 -195z" />
<glyph unicode="9" d="M195 348h178q-15 -106 26 -171.5t144 -65.5q61 0 116 26t95.5 68t75.5 101t58.5 117.5t43.5 127t31 119.5t20 104q-54 -104 -162 -171.5t-219 -67.5q-81 0 -144 25t-100 69t-58.5 103.5t-22 129.5t11.5 146q38 216 177 350.5t351 134.5q149 0 231 -64t119 -202 q16 -59 18 -142t-5 -159t-21 -150q-141 -801 -651 -801q-178 0 -258 98t-55 275zM459 887.5q6 -59.5 25 -107.5t65 -78t113 -30q62 0 125 31.5t108 82.5q78 90 102 220q25 168 -20 241q-62 111 -174 111q-72 0 -132 -29.5t-100 -81t-66 -112t-38 -129.5q-14 -59 -8 -118.5z " />
<glyph unicode=":" horiz-adv-x="796" d="M291 0l37 207h209l-37 -207h-209zM436 819l35 207h209l-35 -207h-209z" />
<glyph unicode=";" horiz-adv-x="796" d="M236 -289l145 289h-94l37 207h208l-36 -207l-140 -289h-120zM432 819l35 207h209l-35 -207h-209z" />
<glyph unicode="&#x3c;" horiz-adv-x="1351" d="M231 674l21 119l1196 507l-23 -129l-1040 -440l887 -432l-23 -129z" />
<glyph unicode="=" horiz-adv-x="1351" d="M246 516l22 125h1041l-23 -125h-1040zM301 821l23 127h1040l-23 -127h-1040z" />
<glyph unicode="&#x3e;" horiz-adv-x="1351" d="M143 170l23 129l1038 432l-885 440l23 129l1016 -507l-21 -119z" />
<glyph unicode="?" horiz-adv-x="1024" d="M272 1092q42 201 173.5 299t334.5 98q179 0 272.5 -105.5t63.5 -283.5q-39 -209 -258 -369q-53 -40 -96 -78q-61 -55 -85.5 -91.5t-49.5 -110.5q-12 -34 -25 -113h-180q8 46 37 145q23 73 41 105t71 94q24 29 115.5 102t106.5 86q62 55 93.5 109t43.5 127 q19 107 -31 176.5t-156 69.5q-113 0 -187 -72.5t-97 -187.5h-187zM356 0l33 190h191l-33 -190h-191z" />
<glyph unicode="@" horiz-adv-x="1843" d="M276 731q28 158 120.5 301.5t222 245.5t291 162.5t323.5 60.5q141 0 262 -46t205 -126.5t121 -199.5t12 -257q-37 -213 -174 -358q-75 -80 -176.5 -133t-198.5 -53q-120 0 -104 123q-140 -134 -312 -134q-70 0 -124.5 29.5t-83 77.5t-41 109t1.5 126q16 92 70 183.5 t129.5 162.5t173 115.5t194.5 44.5q85 0 145 -43t70 -118l51 100h96l-245 -524q-44 -91 -41 -129q6 -44 63 -45q57 0 128.5 39t121.5 87q137 127 176 336q39 228 -111 392q-154 163 -428 163q-289 0 -540 -194q-257 -202 -309 -498q-26 -151 8.5 -279t118.5 -216t211 -137.5 t280 -49.5q169 0 338 68t293 190l28 -59q-135 -137 -309.5 -207t-361.5 -70q-154 0 -302 54t-243 149q-100 102 -139 250t-11 307zM719 653q-18 -104 32 -174.5t156 -70.5q103 0 197 69q42 32 68.5 67t58.5 93q95 181 108 262q15 81 -33.5 130.5t-134.5 49.5 q-105 0 -205 -66t-164.5 -163.5t-82.5 -196.5z" />
<glyph unicode="A" horiz-adv-x="1593" d="M20 0l25 135h152l751 1331h209l277 -1331h147l-25 -135h-544l24 135h203l-65 352h-607l-186 -352h201l-25 -135h-537zM649 623h492l-125 684z" />
<glyph unicode="B" horiz-adv-x="1366" d="M59 0l25 135h207l211 1196h-205l22 135h685q56 0 87.5 -1.5t77 -8t80.5 -23.5t64 -44q51 -47 67 -126q9 -43 9 -86q0 -37 -7 -75q-24 -133 -114.5 -226t-223.5 -108q147 -10 213 -108q47 -69 47 -165q0 -39 -8 -83q-36 -209 -211 -326q-77 -53 -155 -69.5t-187 -16.5 h-684zM469 135h242q172 0 264 68q55 40 91.5 97t47.5 120q6 30 6 60q0 35 -8 68q-14 63 -57 95q-10 7 -20.5 12.5t-20 9.5t-22.5 7t-21 5t-23.5 3.5t-22 2t-24.5 1t-23 0.5h-25h-24h-264zM588 817h215q53 0 87.5 2t83.5 14.5t85 36.5q117 76 141 224q6 34 6 63 q0 100 -69 141q-11 7 -25 12t-24.5 8.5t-29.5 6t-27.5 4t-31 2t-28 0.5h-30.5h-28h-233z" />
<glyph unicode="C" horiz-adv-x="1478" d="M232 548q2 93 18 185q22 125 66.5 236.5t114 207t158 164.5t204.5 108.5t247 39.5q146 0 249 -56.5t136 -179.5l37 213h148l-92 -520h-160q5 39 5 74q-1 47 -9 89q-14 73 -53 126t-106.5 82t-158.5 29q-104 0 -192 -32t-151.5 -86.5t-112.5 -131.5t-79.5 -162.5 t-47.5 -183.5q-12 -68 -17 -132q-3 -33 -3 -67q1 -30 3 -61q4 -64 18.5 -117.5t43 -100.5t70.5 -79.5t103 -51t138 -18.5q170 0 288.5 101t157.5 270h189q-34 -164 -130 -282.5t-233 -177.5t-301 -59q-331 0 -469 224q-41 66 -61 161q-18 88 -18 175v13z" />
<glyph unicode="D" horiz-adv-x="1478" d="M51 0l25 135h207l211 1196h-207l22 135h570q161 0 245 -16q118 -24 207.5 -91t134.5 -171q38 -90 48 -214q3 -39 3 -76q0 -82 -14 -155q-53 -305 -219 -493q-100 -110 -213.5 -165t-261.5 -77q-72 -8 -234 -8h-524zM461 135h155q150 0 261.5 29t212.5 117q87 75 144 192 t79 238q15 81 16 158v9q1 72 -15 142q-16 74 -49.5 133t-93 102t-139.5 60q-82 16 -160 16h-200z" />
<glyph unicode="E" horiz-adv-x="1366" d="M59 0l25 135h209l211 1196h-209l22 135h1172l-76 -438h-160l54 303h-625l-92 -518h303l39 223h147l-102 -577h-148l39 219h-303l-94 -543h625l55 322h160l-80 -457h-1172z" />
<glyph unicode="F" horiz-adv-x="1251" d="M43 0l25 135h206l211 1196h-206l22 135h1126l-77 -444h-156l55 309h-585l-97 -545h293l37 215h143l-100 -571h-143l39 221h-293l-90 -516h243l-24 -135h-629z" />
<glyph unicode="G" horiz-adv-x="1593" d="M231 456q-2 41 -2 79q0 103 17 186q65 363 262 557q214 211 526 211q130 0 230.5 -53t138.5 -158l33 188h161l-92 -520h-162q8 47 8 90q0 121 -68 202q-92 110 -275 110q-101 0 -187.5 -37.5t-148 -98.5t-109.5 -144t-76.5 -168.5t-44.5 -178.5q-13 -75 -15 -145v-26 q0 -57 7 -114q9 -68 36 -124.5t68 -100t105.5 -68t147.5 -24.5q96 0 183.5 39t152 104t108.5 150.5t59 179.5h-225l23 133h575l-22 -133h-185l-104 -592h-168l39 225q-66 -124 -204 -187t-284 -63t-263.5 62.5t-190.5 187.5q-45 79 -54 231z" />
<glyph unicode="H" horiz-adv-x="1593" d="M63 0l25 135h205l211 1196h-205l23 135h587l-22 -135h-205l-92 -518h700l92 518h-206l22 135h590l-23 -135h-204l-211 -1196h204l-24 -135h-590l25 135h206l93 533h-701l-92 -533h205l-25 -135h-588z" />
<glyph unicode="I" horiz-adv-x="681" d="M47 0l25 135h204l211 1196h-204l22 135h590l-23 -135h-206l-211 -1196h207l-25 -135h-590z" />
<glyph unicode="J" horiz-adv-x="1024" d="M102 242.5q0 42.5 1 63.5t9 78t9 69h188q-13 -63 -14 -117v-7q0 -50 11 -98q13 -52 54 -82t107 -30q63 0 117.5 36.5t89.5 96.5q37 66 65 240l150 839h-215l22 135h555l-22 -135h-162l-145 -825q-32 -179 -60 -254q-61 -143 -188 -217q-45 -25 -118.5 -41.5t-127.5 -16.5 q-212 0 -291 132q-17 29 -26 60t-9 73.5z" />
<glyph unicode="K" horiz-adv-x="1366" d="M61 0l25 135h209l211 1196h-209l22 135h588l-22 -135h-201l-98 -551h2l624 551h-178l23 135h508l-23 -135h-102l-639 -553l438 -643h137l-24 -135h-541l25 135h178l-426 641h-2l-113 -641h201l-25 -135h-588z" />
<glyph unicode="L" horiz-adv-x="1251" d="M59 0l25 135h211l211 1196h-211l22 135h635l-22 -135h-246l-209 -1184h557l58 332h165l-84 -479h-1112z" />
<glyph unicode="M" horiz-adv-x="1933" d="M61 0l25 135h211l211 1196h-211l22 135h523l157 -1253l613 1253h516l-23 -135h-209l-210 -1196h208l-24 -135h-570l25 135h188l211 1196h-14l-672 -1331h-159l-201 1331h-14l-211 -1196h190l-25 -135h-557z" />
<glyph unicode="N" horiz-adv-x="1593" d="M59 0l25 135h207l211 1196h-207l22 135h471l422 -1276l203 1141h-205l23 135h565l-22 -135h-201l-236 -1331h-247l-437 1313l-207 -1178h211l-24 -135h-574z" />
<glyph unicode="O" horiz-adv-x="1593" d="M230 474q-2 30 -3 62q0 84 15 177q30 170 92 305.5t178 251.5q219 219 555 219q330 0 475 -227q47 -74 67 -166q17 -80 18 -157q0 -11 -1 -23q-3 -88 -22 -193q-25 -150 -93 -289q-78 -157 -165 -246q-108 -108 -248.5 -160.5t-290.5 -52.5q-131 0 -237 36t-176 102 t-113 157.5t-51 203.5zM442 735q-20 -111 -20 -201q0 -144 51 -231q108 -194 354 -194q243 0 412 206q127 156 174 416q13 79 15 153q0 10 1 19q0 65 -9 127q-10 72 -39 129.5t-73 102.5t-113 69.5t-157 24.5q-104 0 -194 -35.5t-155 -94.5t-116 -140t-82.5 -168t-48.5 -183 z" />
<glyph unicode="P" horiz-adv-x="1251" d="M59 0l25 135h209l211 1196h-209l22 135h646q122 0 190 -16q69 -18 117 -59t70 -96t28 -123q2 -20 2 -41q0 -48 -10 -99q-19 -110 -67.5 -193t-139.5 -153q-51 -40 -115 -59.5t-105.5 -22t-119.5 -2.5h-22h-238l-82 -467h246l-25 -135h-633zM575 737h222q60 0 92.5 2.5 t82 18.5t87.5 49q93 76 119 223q8 46 8 85q0 109 -64 159q-31 27 -75 40t-75 15t-89 2h-201z" />
<glyph unicode="Q" horiz-adv-x="1593" d="M192 454q-7 59 -7 116q0 84 16 161q27 154 98.5 291t176.5 241t247.5 165t300.5 61q163 0 278 -54.5t189 -177.5q64 -105 81 -247q6 -53 6 -105q0 -86 -17 -168q-15 -83 -49 -175t-84.5 -182.5t-123.5 -163.5t-153 -105q130 20 252 20h166l-25 -137h-524q-45 0 -132 -9.5 t-130 -9.5q-340 0 -486 230q-62 100 -80 249zM387 504q8 -101 37.5 -170.5t95.5 -134.5q88 -84 254 -84q121 0 226.5 56.5t178 149t120 200.5t67.5 222q13 75 14 147v6q0 69 -12 134q-13 68 -43 125t-74 100t-110 67t-148 24q-101 0 -191 -37t-156.5 -98.5t-119 -144 t-85 -171t-48.5 -182.5q-8 -54 -8 -126q0 -39 2 -83z" />
<glyph unicode="R" horiz-adv-x="1366" d="M45 0l25 135h209l210 1196h-208l22 135h615q160 0 222 -11q82 -14 130 -50q62 -49 86 -134q14 -51 15 -104q0 -37 -7 -75q-28 -162 -124 -268t-253 -119q58 -14 91 -31t51.5 -49t25 -64.5t12.5 -97.5l35 -328h158l-25 -135h-301l-47 432q-6 70 -24 118.5t-64 72.5 q-41 22 -151 22h-201l-90 -510h198l-24 -135h-586zM569 782h195q59 0 96 2t91.5 15.5t92.5 38.5q55 36 90 98t46 129q7 38 7 72q0 94 -54 147q-23 22 -64 33t-70 12.5t-79 1.5h-252z" />
<glyph unicode="S" d="M96 0l88 496h156q-8 -45 -8 -87q0 -31 4 -61q10 -70 39 -121.5t88.5 -81.5t142.5 -30q69 0 120.5 15t100.5 58q85 76 103 189q5 28 5.5 52t-4 44t-11.5 36t-20 30t-25.5 25t-32.5 22.5t-36.5 19.5t-41.5 19l-219 92q-36 16 -62.5 28.5t-56.5 29t-50 33.5t-40 38.5 t-32 45.5q-10 25 -18 55q-7 28 -8 61q0 37 9 82q27 151 110 237q90 90 182 126t214 36q239 0 301 -162l24 139h158l-84 -479h-158q10 57 10 107q0 22 -2 42q-6 68 -31.5 117t-82.5 76t-144 27q-112 0 -198.5 -66.5t-106.5 -177.5q-4 -20 -4 -39q0 -25 7 -51q12 -44 40 -76 q24 -25 150 -76l174 -71q65 -25 91 -36.5t66 -39t70 -64.5q55 -71 55 -179q0 -40 -8 -85q-10 -59 -28 -104.5t-60 -104.5q-71 -100 -182 -155.5t-252 -55.5q-122 0 -207 52t-106 159l-33 -186h-156z" />
<glyph unicode="T" horiz-adv-x="1366" d="M254 997l82 469h1188l-82 -469h-164l55 314h-340l-207 -1176h228l-25 -135h-631l25 135h225l207 1176h-342l-55 -314h-164z" />
<glyph unicode="U" horiz-adv-x="1478" d="M264 1331l23 135h579l-22 -135h-219l-136 -766q-12 -70 -16 -116q-1 -15 -2 -32q0 -33 6 -72q8 -58 35 -103q68 -119 252 -119q94 0 184.5 43.5t147.5 122.5q28 39 47 77t33.5 91t19.5 74.5t18 91.5l125 708h-215l23 135h555l-23 -135h-182l-133 -751q-13 -75 -21 -112.5 t-29 -94t-52 -105.5q-41 -63 -111.5 -129t-132.5 -96q-141 -66 -291 -66q-120 0 -222 46.5t-157 134.5q-30 45 -46 92q-16 48 -16 103v10q0 49 5 90q5 45 18 114l135 764h-180z" />
<glyph unicode="V" horiz-adv-x="1478" d="M264 1331l23 135h528l-22 -135h-215l194 -1149l608 1149h-213l23 135h514l-23 -135h-118l-729 -1331h-203l-248 1331h-119z" />
<glyph unicode="W" horiz-adv-x="2048" d="M264 1331l23 135h510l-23 -135h-211l41 -1155l559 1290h256l88 -1300l461 1165h-211l23 135h495l-22 -135h-117l-543 -1331h-239l-90 1335h-15l-561 -1335h-242l-63 1331h-119z" />
<glyph unicode="X" horiz-adv-x="1478" d="M33 0l24 135h146l569 633l-299 563h-154l23 135h569l-22 -135h-193l226 -426l381 426h-193l23 135h553l-23 -135h-154l-495 -553l336 -643h137l-25 -135h-577l24 135h215l-262 502l-456 -502h225l-25 -135h-573z" />
<glyph unicode="Y" horiz-adv-x="1366" d="M260 1331l23 135h520l-23 -135h-202l245 -573l449 573h-193l23 135h500l-23 -135h-115l-590 -731l-81 -465h227l-25 -135h-633l25 135h227l82 465l-323 731h-113z" />
<glyph unicode="Z" horiz-adv-x="1251" d="M78 0l33 186l1069 1141h-691l-51 -295h-164l76 434h1057l-29 -170l-1083 -1155h737l55 308h158l-80 -449h-1087z" />
<glyph unicode="[" horiz-adv-x="681" d="M135 -389l334 1886h311l-20 -115h-156l-293 -1656h156l-21 -115h-311z" />
<glyph unicode="\" horiz-adv-x="1187" d="M430 1497h141l347 -1497h-138z" />
<glyph unicode="]" horiz-adv-x="681" d="M86 -389l20 115h158l293 1656h-158l21 115h313l-334 -1886h-313z" />
<glyph unicode="^" horiz-adv-x="1351" d="M176 360l698 1106h115l314 -1106h-127l-271 959l-604 -959h-125z" />
<glyph unicode="_" horiz-adv-x="1024" d="M-41 -229l23 129h1024l-23 -129h-1024z" />
<glyph unicode="`" horiz-adv-x="569" d="M293 1511h158l178 -282h-105z" />
<glyph unicode="a" d="M139 211v19q0 47 8 81q15 87 59.5 152.5t109 104t139 57t157.5 18.5q20 0 60 1t59 1h168l16 98q4 27 4 51t-4 46q-8 42 -41 82q-22 28 -63 42.5t-84 14.5q-76 0 -125.5 -16.5t-101.5 -69.5q-40 -40 -64 -127h-172q55 240 287 313q72 23 186 23q90 0 155.5 -20t121.5 -72 q34 -32 50 -77q15 -44 16 -86q0 -43 -11 -104l-108 -614h169l-22 -129h-324l37 211q-75 -120 -166.5 -172.5t-222.5 -52.5q-79 0 -141.5 22t-104.5 74t-47 129zM322 307q-4 -25 -4 -47q0 -58 28 -98q39 -56 127 -56q71 0 132 23t104.5 61.5t77.5 92.5t55 111.5t35 123.5 q-51 8 -164 8q-43 0 -71 -1t-69.5 -5.5t-69.5 -12.5t-61 -24.5t-54.5 -39t-39.5 -57.5t-26 -79z" />
<glyph unicode="b" horiz-adv-x="1251" d="M43 0l23 129h170l215 1217h-168l20 120h334l-102 -583q64 98 171.5 158.5t215.5 60.5q77 0 139.5 -20.5t104.5 -57.5t70 -87.5t40 -112.5q12 -59 12 -123v-5q0 -68 -12 -141q-18 -106 -47.5 -187.5t-100.5 -181.5q-65 -93 -178.5 -146.5t-240.5 -53.5q-107 0 -188 53.5 t-107 146.5l2 25l-37 -211h-336zM454 393q1 -78 27 -145q52 -131 228 -131q82 0 151 35t116 94t77.5 129t44.5 147q10 54 12 104q1 18 0 36q0 33 -2 66q-4 52 -22 95t-45 77.5t-72.5 53.5t-104.5 19q-113 0 -225 -94q-49 -41 -75 -81t-54 -106q-27 -64 -41 -145 q-15 -72 -15 -145v-9z" />
<glyph unicode="c" horiz-adv-x="1024" d="M164 316q-8 43 -8 89q0 57 12 119q22 123 66 220.5t131 191.5q69 75 165.5 120.5t196.5 45.5q205 0 277 -166l22 133h129l-70 -393h-129q6 30 6 59q0 81 -44 145q-59 88 -173 87q-82 0 -151.5 -36t-116.5 -97t-77 -132t-44 -149q-12 -63 -12 -120q0 -98 35 -177 q28 -64 85 -100.5t130 -36.5q100 0 182.5 70.5t110.5 172.5h155q-33 -172 -172.5 -274t-314.5 -102q-113 0 -198 43t-130 116t-63 171z" />
<glyph unicode="d" horiz-adv-x="1251" d="M188 553q19 109 62 205t109 174.5t162 124t210 45.5q227 0 305 -187q0 -4 3 -10t3 -10l80 451h-176l21 120h342l-236 -1337h172l-22 -129h-338l37 213q-60 -111 -163.5 -169t-228.5 -58q-111 0 -200 57.5t-133 169.5q-26 69 -26 165q0 79 17 175zM350 360 q13 -114 74 -181.5t174 -67.5q80 0 155 40.5t126 110.5q45 65 65.5 128.5t36.5 158.5q9 49 11 96q1 13 1 27q0 34 -4 68q-5 48 -21.5 89.5t-42 73.5t-67 51.5t-94.5 20.5q-87 0 -153 -32.5t-128 -104.5q-44 -52 -75.5 -126.5t-42.5 -142.5q-17 -99 -16 -168q-1 -22 1 -41z " />
<glyph unicode="e" d="M186 358q0 8 -1 15q0 77 14 164q34 197 139 335q81 107 205 168.5t252 61.5q76 0 151 -25t123 -69q106 -103 106 -305q0 -79 -16 -173l-6 -28h-788q-5 -46 -6 -88q0 -125 51 -199q39 -61 92 -82.5t143 -21.5q98 0 189 64.5t118 158.5h158q-58 -168 -197.5 -258 t-318.5 -90q-102 0 -180 26.5t-125.5 75.5t-74 117.5t-28.5 152.5zM395 625h604q6 40 6 77q1 46 -9 90q-18 78 -76.5 132.5t-151.5 54.5q-72 0 -135.5 -30.5t-110 -81.5t-78.5 -113t-49 -129z" />
<glyph unicode="f" horiz-adv-x="681" d="M43 0l23 129h180l143 817h-188l22 123h189l10 55q8 49 11 66t13.5 57t22.5 62t33.5 51t50.5 53q59 49 122 66.5t144 17.5q85 0 164 -18l-25 -140q-104 17 -147 17q-115 0 -168 -66q-8 -10 -15 -22t-12.5 -27t-9 -25.5t-7.5 -29t-5.5 -26t-5 -28t-4.5 -24.5l-6 -39h227 l-23 -123h-227l-143 -817h202l-22 -129h-549z" />
<glyph unicode="g" horiz-adv-x="1251" d="M119 -104h184q2 -164 232 -164q79 0 157.5 31t122.5 92q27 37 47.5 88.5t28.5 84.5t20 95l11 65q-90 -109 -180.5 -155.5t-217.5 -46.5q-74 0 -135 20.5t-103 57t-72 87t-42.5 110.5t-15.5 127v21q0 58 12 117q41 234 145 373q74 97 189 150t221 53q118 0 204 -51 t122 -152l30 170h340l-20 -121h-176l-150 -844q-12 -67 -23 -111.5t-32 -95t-54.5 -93.5t-82.5 -85q-68 -56 -170.5 -84t-196.5 -28q-65 0 -119.5 6.5t-109 25.5t-91.5 50.5t-58 84.5q-18 44 -18 100q0 11 1 22zM348 530q-11 -63 -11 -118q0 -99 36 -170q32 -60 85.5 -94.5 t123.5 -34.5q74 0 146.5 37t131.5 100q93 99 119 266q18 76 18 145q0 9 -1 17q-2 76 -35 147q-28 61 -87 98.5t-129 37.5q-87 0 -158.5 -37.5t-118.5 -101t-76.5 -137t-43.5 -155.5z" />
<glyph unicode="h" horiz-adv-x="1251" d="M59 0l23 129h172l215 1217h-172l20 120h338l-94 -538q157 174 363 174q76 0 143 -27.5t102 -81.5q23 -39 31 -85q5 -33 6 -60q0 -10 -1 -20q-3 -34 -13 -97l-107 -602h177l-23 -129h-518l22 129h177l96 549q6 34 8 46t6 44.5t3 48.5t-4.5 42.5t-12.5 42t-24.5 32 t-37.5 27.5q-40 18 -88 18q-87 0 -157 -37q-43 -23 -76.5 -54.5t-54.5 -63t-36.5 -75t-23.5 -77t-16 -80.5l-82 -463h176l-23 -129h-514z" />
<glyph unicode="i" horiz-adv-x="606" d="M70 0l22 129h172l146 819h-170l20 121h336l-166 -940h166l-23 -129h-503zM457 1294l30 172h191l-31 -172h-190z" />
<glyph unicode="j" horiz-adv-x="569" d="M-61 -344l24 133q22 -4 33 -8q32 -1 62 -3h10q26 0 54 10q33 11 56 36q16 24 27 57.5t14.5 52.5t9.5 60l170 954h-176l21 121h342l-187 -1061q-37 -202 -84 -268q-38 -50 -105.5 -74t-133.5 -24q-87 0 -137 14zM449 1294l30 172h189l-31 -172h-188z" />
<glyph unicode="k" d="M51 0l23 129h172l215 1217h-172l20 120h338l-162 -923l455 405h-156l21 121h479l-20 -121h-144l-305 -270l211 -549h111l-23 -129h-432l23 129h131l-160 444l-219 -186l-45 -258h149l-22 -129h-488z" />
<glyph unicode="l" horiz-adv-x="569" d="M43 0l23 129h170l215 1217h-170l20 120h336l-236 -1337h164l-22 -129h-500z" />
<glyph unicode="m" horiz-adv-x="1820" d="M61 0l23 129h174l145 819h-174l21 121h340l-35 -192q42 102 136 163.5t204 61.5q120 0 186.5 -59.5t77.5 -165.5q39 100 137.5 162.5t204.5 62.5q125 0 203 -62.5t78 -162.5v-16q0 -67 -15 -152l-102 -580h156l-23 -129h-489l22 129h168l94 535q6 32 9 49.5t6.5 48 t3.5 48.5t-2.5 43t-10 40t-20 32t-31 26.5t-45 15.5t-59.5 6q-73 0 -138.5 -41t-107.5 -109q-44 -74 -74 -245l-80 -449h166l-22 -129h-498l23 129h166l94 535q8 41 11.5 64t6.5 60.5t-1 59.5t-14 49t-29 41.5t-50 24.5t-74 10q-72 0 -136.5 -41t-106.5 -109 q-46 -74 -76 -245l-80 -449h168l-23 -129h-508z" />
<glyph unicode="n" horiz-adv-x="1251" d="M51 0l23 129h178l145 819h-174l21 121h340l-35 -192q63 117 150 171t214 54q250 0 283 -225q0 -56 -14 -138l-109 -610h168l-22 -129h-502l22 129h168l99 553q8 48 10 86v19q0 29 -4 59q-6 40 -24.5 66.5t-54 43.5t-87.5 17t-81.5 -6t-70.5 -31q-60 -34 -108 -105 q-27 -39 -46.5 -91t-27 -86.5t-18.5 -96.5l-76 -428h168l-23 -129h-512z" />
<glyph unicode="o" d="M172 549q47 251 203 397q172 156 403 156q98 0 174 -29.5t122.5 -81t74 -122t29.5 -153.5v-16q0 -76 -13 -159q-20 -114 -69.5 -213.5t-123 -176t-177 -121t-222.5 -44.5q-126 0 -213 42t-139 138q-61 116 -61 256q0 61 12 127zM348 547q-13 -77 -13 -139q0 -101 34 -160 q33 -64 91 -100.5t134 -36.5q77 0 156.5 46t126.5 115q76 105 110 281q11 63 12 121v9q1 53 -11 105q-12 56 -40.5 96.5t-80 65.5t-122.5 25q-165 0 -288 -152q-82 -108 -109 -276z" />
<glyph unicode="p" horiz-adv-x="1251" d="M-18 -332l22 123h172l205 1157h-168l20 121h334l-37 -209q84 125 181.5 183.5t232.5 58.5q130 0 203 -55.5t125 -186.5q16 -40 20 -97q1 -23 1 -45q0 -31 -3 -58q-5 -47 -16 -113q-47 -254 -166 -381q-166 -180 -363 -180q-262 0 -331 213l-72 -408h172l-22 -123h-510z M475 547q-13 -75 -13 -137q0 -95 30 -160q28 -66 85 -103.5t132 -37.5q82 0 152 37t117.5 99t78 134t43.5 149q15 79 15 146q0 94 -30 166q-23 63 -79.5 100t-128.5 37q-171 0 -289 -152q-48 -61 -72.5 -126.5t-40.5 -151.5z" />
<glyph unicode="q" horiz-adv-x="1251" d="M172 547q20 107 46.5 181.5t74.5 143.5q157 230 412 230q268 0 323 -230l35 197h334l-21 -121h-168l-204 -1157h174l-23 -123h-510l23 123h170l71 410q-42 -61 -71 -86q-74 -75 -150 -102t-182 -27q-39 0 -107 14q-67 13 -129.5 79t-85.5 136q-26 75 -26 174q0 73 14 158 zM329 411q0 -59 15 -113q15 -57 45 -98t83 -66t124 -25q70 0 147 47t123 112q74 103 107 291q11 54 11 115q0 14 -1 28q-2 113 -69.5 194t-178.5 81q-71 0 -131 -26t-102.5 -68t-76 -100t-53 -117.5t-30.5 -124.5q-13 -69 -13 -130z" />
<glyph unicode="r" horiz-adv-x="796" d="M63 0l23 129h170l145 819h-170l21 121h336l-37 -213q73 137 145.5 184t218.5 47h43l-28 -153q-40 8 -68 8q-71 0 -128.5 -23t-96 -60t-68 -91.5t-46.5 -109t-29 -121.5l-72 -408h203l-23 -129h-539z" />
<glyph unicode="s" horiz-adv-x="1024" d="M106 0l66 369h129v-15q0 -128 64 -184q67 -59 176 -59q93 0 164.5 52t85.5 142q3 16 3 30q0 22 -6 40q-10 30 -24.5 45.5t-54 28.5t-56 16t-67.5 10l-39 6q-32 5 -58 10.5t-54.5 14t-50 18t-44 23t-36.5 29.5t-28 36.5t-18 45.5q-4 26 -6 56q-1 7 -1 13q0 25 7 53 q22 130 80 183q154 139 350 139q87 0 154 -34.5t96 -104.5l18 106h129l-61 -344h-129q4 33 4 62q1 51 -13 88q-22 57 -98 83q-59 19 -102 19q-98 0 -171 -48.5t-89 -142.5q-5 -25 2 -54t23 -42q12 -9 28 -17t28.5 -13t34 -10t31.5 -7t35.5 -6.5t32.5 -5.5q68 -12 110 -22.5 t94.5 -33.5t79 -53t40.5 -80q8 -27 8 -60q0 -27 -6 -58q-17 -107 -56 -154q-72 -85 -157 -134.5t-197 -49.5q-125 0 -188 39.5t-103 144.5l-30 -170h-130z" />
<glyph unicode="t" horiz-adv-x="757" d="M182 948l21 121h184l37 209l176 61l-47 -270h307l-20 -121h-308l-122 -692q-5 -28 -5 -51q0 -96 84 -96q25 0 46.5 10.5t36 30.5t25.5 40.5t18.5 48.5t11.5 46.5t8 42.5h133q-12 -80 -31 -137.5t-62 -109t-108 -77.5q-83 -18 -112 -18t-99 12q-46 8 -75 44.5t-41 86.5 q-4 16 -4 40q0 56 20 153l111 626h-185z" />
<glyph unicode="u" horiz-adv-x="1251" d="M209 948l20 121h334l-114 -655q-9 -50 -13 -88q-1 -16 -1 -32q0 -24 3 -48q5 -42 21.5 -71t52 -47.5t88.5 -18.5q76 0 146 40t114 109q59 88 88 258l78 432h-180l20 121h346l-165 -940h170l-23 -129h-336l37 205q-60 -118 -142 -168.5t-210 -50.5q-122 0 -199 53t-84 166 q-1 8 -1 17q0 62 24 192l94 534h-168z" />
<glyph unicode="v" d="M199 948l20 121h455l-21 -121h-170l107 -807h14l397 807h-170l21 121h444l-20 -121h-109l-491 -948h-211l-160 948h-106z" />
<glyph unicode="w" horiz-adv-x="1820" d="M199 948l20 121h477l-20 -121h-178l63 -796h14l414 917h234l94 -917h14l342 796h-178l21 121h464l-20 -121h-121l-442 -948h-219l-91 936h-14l-426 -936h-219l-109 948h-120z" />
<glyph unicode="x" d="M35 0l22 129h103l415 426l-245 393h-107l21 121h454l-20 -121h-150l177 -305l290 305h-161l20 121h436l-20 -121h-105l-387 -409l252 -410h107l-23 -129h-467l23 129h166l-191 311l-309 -311h178l-22 -129h-457z" />
<glyph unicode="y" d="M137 -342l23 135q55 -14 121 -14q32 0 62 16.5t49.5 35t43 56t32.5 55t28 56.5l-191 950h-102l20 121h457l-21 -121h-165l129 -749l387 749h-168l20 121h438l-20 -121h-94l-522 -958q-39 -71 -93 -158q-67 -105 -137 -143q-76 -45 -172 -45q-29 0 -125 14z" />
<glyph unicode="z" horiz-adv-x="1024" d="M100 0l25 139l768 809h-465l-39 -219h-145l59 340h801l-25 -137l-768 -803h492l43 238h143l-65 -367h-824z" />
<glyph unicode="{" horiz-adv-x="614" d="M172 561q55 8 115 49q24 18 40.5 39t26 49.5t13.5 47.5t10 57l65 366q33 190 108.5 263.5t246.5 64.5q-92 -27 -138.5 -86.5t-66.5 -163.5l-68 -387q-23 -132 -70.5 -202.5t-160.5 -96.5q100 -26 125.5 -92t3.5 -190l-74 -416q-19 -107 4.5 -164t110.5 -88q-75 -2 -123 8 t-88 47q-40 38 -44.5 107t11.5 131l72 413q11 48 10.5 90t-22.5 80q-37 55 -107 74z" />
<glyph unicode="|" horiz-adv-x="811" d="M469 -573v2297h137v-2297h-137z" />
<glyph unicode="}" horiz-adv-x="614" d="M6 -389q96 31 139.5 88t63.5 164l74 416q22 124 70 189.5t157 90.5q-70 18 -103.5 60t-34 101.5t12.5 137.5l68 389q19 104 -5 163t-108 87q119 5 177 -26.5t71 -106.5t-10 -197l-66 -366q-13 -51 -11 -104.5t36 -88.5q40 -40 94 -49q-76 -16 -131 -74 q-36 -39 -49.5 -73.5t-24.5 -94.5l-72 -413q-7 -41 -14 -67.5t-19.5 -61t-33 -61t-49.5 -46.5q-38 -27 -80.5 -40t-70.5 -15t-81 -2z" />
<glyph unicode="~" horiz-adv-x="1351" d="M231 647q41 51 76.5 87t80 69t95.5 50t107 17q91 0 248 -71q9 -4 40.5 -17t42.5 -17.5t36 -14t39 -13t32 -7t33 -3.5q47 0 91.5 24t71 51t66.5 75l86 -62q-44 -50 -73.5 -79t-73 -63.5t-90 -50.5t-97.5 -16q-35 0 -72.5 8.5t-57 15.5t-64.5 25l-100 41q-6 2 -27.5 11.5 t-30.5 13t-28.5 10.5t-32.5 10.5t-30.5 6t-33.5 2.5q-39 0 -74 -12.5t-67 -39.5t-54 -50t-55 -62z" />
<glyph unicode="&#xa1;" horiz-adv-x="796" d="M231 -358l232 1116h131l-152 -1116h-211zM459 911l35 191h194l-35 -191h-194z" />
<glyph unicode="&#xa2;" d="M233 551q18 99 63 192.5t110.5 171.5t157.5 127.5t194 55.5l30 178h84l-32 -182q157 -15 211 -162q1 -3 2 -9.5t2 -9.5l26 158h131l-69 -395h-133q18 115 -33 196.5t-160 90.5l-147 -838q97 4 170 70.5t102 166.5h158q-37 -162 -164 -262.5t-291 -109.5l-33 -189h-84 l33 191q-196 19 -282 174t-46 385zM409.5 422.5q3.5 -68.5 19 -126.5t56.5 -103t101 -60l145 823q-126 -26 -206 -143t-105 -260q-14 -62 -10.5 -130.5z" />
<glyph unicode="&#xa3;" d="M72 0l24 135h166l105 600h-174l24 139h174l29 156q20 109 55 190t107 150q66 63 157 93t185 30q160 0 249.5 -95t59.5 -253h-182q18 98 -24 152.5t-140 54.5q-62 0 -119 -28t-94 -81q-11 -14 -19.5 -28.5t-15.5 -32t-11 -29t-9 -33.5t-7 -30t-6.5 -33.5t-5.5 -30.5 l-27 -152h258l-24 -139h-258l-105 -594h437l39 217h155l-63 -358h-940z" />
<glyph unicode="&#xa4;" horiz-adv-x="1146" d="M133 291l133 110q-39 60 -52 139t1 154q14 80 54 158.5t100 138.5l-93 109l97 84l90 -111q148 103 315 103q171 0 277 -103l131 111l67 -84l-129 -109q78 -124 50 -297q-26 -152 -152 -293l88 -110l-98 -80l-88 108q-148 -104 -310 -104q-160 0 -282 104l-129 -108z M338 698q-26 -147 59 -252.5t232 -105.5q149 0 273.5 103t150.5 251q26 150 -59 255.5t-234 105.5t-272.5 -104.5t-149.5 -252.5z" />
<glyph unicode="&#xa5;" d="M47 453l16 92h508l11 55l-39 92h-453l16 92h396l-244 553h-113l23 129h520l-22 -129h-203l246 -579l448 579h-192l22 129h500l-23 -129h-114l-443 -553h396l-17 -92h-452l-74 -92l-10 -55h510l-17 -92h-510l-55 -318h227l-24 -135h-633l24 135h228l55 318h-508z" />
<glyph unicode="&#xa6;" horiz-adv-x="811" d="M469 -399v800h135v-800h-135zM469 748v804h135v-804h-135z" />
<glyph unicode="&#xa7;" d="M184 127h185q-22 -110 26.5 -174t157.5 -64q90 0 166 55t90 142q21 120 -111 170q-179 71 -233 96q-86 41 -112 62q-33 25 -62 69q-43 61 -25 172q15 84 76.5 154t144.5 98q-73 46 -100 111.5t-12 159.5q12 67 59 134t109 105q55 34 128.5 53t137.5 19q77 0 136.5 -12 t108 -38.5t74.5 -69t35 -104t-10 -143.5h-182q19 123 -25 174q-24 28 -64.5 44t-82.5 16q-92 0 -160 -45.5t-84 -134.5q-6 -38 3 -67t36.5 -51t46.5 -33t59 -29q10 -5 15 -7l141 -65q118 -54 163 -91q97 -80 75 -210q-18 -93 -78 -165t-150 -96q83 -31 113 -106.5t12 -173.5 q-12 -72 -61 -143.5t-115 -110.5q-60 -35 -136.5 -53.5t-146.5 -18.5q-201 0 -294 87t-54 284zM455 637q3 -33 10 -47q3 -8 9 -15t15 -15t13 -13q28 -21 65 -41t66 -32.5t75 -31t70 -28.5q49 24 84 67.5t45 93.5q11 68 -17.5 108t-92.5 73q-61 32 -211 96q-2 -1 -11 -5 t-12 -7q-90 -51 -108 -152q-3 -18 0 -51z" />
<glyph unicode="&#xa8;" horiz-adv-x="569" d="M215 1268l31 176h184l-31 -176h-184zM602 1268l31 176h184l-31 -176h-184z" />
<glyph unicode="&#xa9;" horiz-adv-x="1679" d="M211.5 495.5q-15.5 112.5 3.5 237.5q27 154 111.5 294t203 241t269 161t305.5 60q152 0 280.5 -59.5t211.5 -160t119 -239.5t9 -291q-28 -158 -112.5 -299.5t-203.5 -243.5t-270.5 -161.5t-308.5 -59.5q-122 0 -230 39t-186 108.5t-132 165t-69.5 208zM317 735 q-23 -133 7.5 -255t103 -210t184.5 -139.5t244 -50.5q175 -2 340 85t279 237.5t145 326.5q23 135 -7 257t-101.5 209.5t-183.5 139t-247 51.5q-175 0 -340 -88t-279 -238t-145 -325zM543 727q35 202 184.5 331.5t349.5 129.5q83 0 157 -25.5t127 -83t56 -137.5l-145 -33 q0 94 -57.5 144.5t-157.5 50.5q-76 0 -142 -31t-113 -83.5t-79 -118t-45 -138.5q-26 -154 35.5 -256t210.5 -102q100 0 178.5 53.5t128.5 151.5l117 -39q-63 -124 -190 -190t-265 -66q-193 0 -289.5 123.5t-60.5 318.5z" />
<glyph unicode="&#xaa;" horiz-adv-x="684" d="M256 1051q16 88 84.5 130t163.5 44h61q57 0 84 -2l6 20l4 33q5 28 3 51.5t-19 44.5q-25 31 -78 31q-40 0 -67 -9t-54 -38q-22 -20 -34 -68h-91q18 85 82 131.5t168 46.5q96 0 148 -49q49 -41 31 -141l-58 -324h90l-12 -67h-178l20 110q-36 -61 -82.5 -85.5t-117.5 -24.5 q-7 0 -26.5 -1.5t-29.5 -0.5q-63 13 -86 67q-21 39 -12 101zM350 1051q-15 -99 82 -99q38 0 69.5 11.5t53 30t38.5 46t27.5 56t18.5 63.5q-27 4 -80 4q-28 0 -45.5 -1t-43 -4t-42 -10.5t-34 -19t-28.5 -31.5t-16 -46z" />
<glyph unicode="&#xab;" d="M328 565l245 436h152l-246 -436l90 -444h-151zM692 565l244 436h151l-243 -436l86 -444h-150z" />
<glyph unicode="&#xac;" horiz-adv-x="1351" d="M301 823l23 125h1040l-113 -631h-123l91 506h-918z" />
<glyph unicode="&#xad;" horiz-adv-x="681" d="M186 492l27 149h483l-26 -149h-484z" />
<glyph unicode="&#xae;" horiz-adv-x="1679" d="M215 735q36 206 169 380t325 274t397 100q154 0 283 -60t212 -161.5t117.5 -242t7.5 -294.5q-27 -155 -112 -295t-204.5 -241t-270.5 -160.5t-305 -59.5t-282.5 60.5t-211 163t-117.5 243t-8 293.5zM317 735q-31 -181 30.5 -332.5t197.5 -239t317 -87.5q175 0 340.5 90.5 t278.5 242t143 326.5q24 133 -7 254t-104.5 207.5t-186 138t-245.5 51.5q-175 0 -340 -88t-279 -238t-145 -325zM584 291l159 901h410q45 0 74 -2t67 -11.5t66 -27.5q49 -31 66 -85.5t4 -119.5q-21 -122 -106 -183.5t-212 -64.5l186 -407h-147l-172 407h-197l-71 -407h-127z M801 797h235q39 0 69.5 2.5t66 12t60 26t44.5 46t27 70.5q7 38 -2.5 65.5t-27.5 42.5t-48 24t-57 11.5t-62 2.5h-252z" />
<glyph unicode="&#xaf;" horiz-adv-x="569" d="M248 1307l16 92h533l-17 -92h-532z" />
<glyph unicode="&#xb0;" horiz-adv-x="819" d="M311 1186q22 126 129 216.5t234 90.5q126 0 200.5 -90.5t51.5 -216.5q-23 -127 -129 -217t-232 -90q-128 0 -202.5 90t-51.5 217zM393 1186q-17 -93 38 -159t149 -66q92 0 169.5 65.5t94.5 159.5q17 92 -39 158.5t-150 66.5q-92 0 -169.5 -66.5t-92.5 -158.5z" />
<glyph unicode="&#xb1;" horiz-adv-x="1351" d="M145 0l23 125h1040l-22 -125h-1041zM264 670l21 125h456l82 456h127l-82 -456h457l-20 -125h-457l-82 -457h-127l82 457h-457z" />
<glyph unicode="&#xb2;" horiz-adv-x="681" d="M152 598l24 139q216 157 335 258t160 154t50 100q11 72 -22.5 116t-108.5 44q-80 0 -133 -53.5t-64 -128.5h-121q63 266 334 266q123 0 191.5 -58.5t50.5 -162.5q-14 -80 -53 -133t-121 -123q-76 -67 -271 -225l-133 -109h383l25 141h104l-41 -225h-589z" />
<glyph unicode="&#xb3;" horiz-adv-x="681" d="M199 844h125q-12 -74 19 -125t108 -51q84 0 141.5 46.5t71.5 123.5q14 88 -46 131q-37 33 -139 37l15 81q92 -2 156.5 39t78.5 125q11 70 -24.5 114t-110.5 44q-73 0 -119 -37q-52 -44 -67 -94l-7 -35h-122q23 116 115.5 183t221.5 67q119 0 184.5 -64.5t49.5 -166.5 q-17 -91 -78.5 -146.5t-159.5 -68.5v-5q96 -7 140.5 -64t29.5 -147q-23 -119 -116 -184t-224 -65q-136 0 -201 68.5t-42 193.5z" />
<glyph unicode="&#xb4;" horiz-adv-x="569" d="M373 1229l278 282h158l-332 -282h-104z" />
<glyph unicode="&#xb5;" horiz-adv-x="1251" d="M175.5 -288q-13.5 44 4.5 120q8 38 37.5 108t32.5 105q2 22 4 73.5t4 76.5q0 78 10 143l109 610h-168l20 121h334l-114 -655q-9 -49 -12.5 -87.5t1.5 -81t21.5 -71t52 -47t88.5 -18.5q76 0 146 40t114 109q59 88 88 258l78 432h-180l20 121h346l-165 -940h170l-23 -129 h-336l37 205h-4q-57 -118 -138.5 -168.5t-209.5 -50.5q-16 0 -32 2.5t-32.5 8.5t-27 10t-28 12t-22.5 10q-34 16 -45 -45q-6 -30 -10 -111l-2 -49q-4 -68 -37.5 -112t-73.5 -44q-44 0 -57.5 44z" />
<glyph unicode="&#xb6;" horiz-adv-x="1024" d="M268 1100q14 80 58.5 152t113.5 124q71 54 142.5 72t169.5 18h508l-23 -127h-180l-281 -1599h-106l280 1599h-168l-280 -1599h-109l174 995q-153 5 -239.5 108.5t-59.5 256.5z" />
<glyph unicode="&#xb7;" horiz-adv-x="569" d="M295 645l35 207h209l-35 -207h-209z" />
<glyph unicode="&#xb8;" horiz-adv-x="569" d="M-8 -385l41 61q88 -30 125 -30q51 0 98 24t55 72q2 14 -2 31t-14 22q-21 27 -74 27q-26 0 -92 -17l-25 27l152 168h78l-115 -121q48 12 68 12q76 0 121 -45q8 -14 14 -28q18 -24 8 -74q-11 -67 -80 -121q-51 -29 -88 -38t-94 -9q-63 0 -143 25q-20 12 -33 14z" />
<glyph unicode="&#xb9;" horiz-adv-x="681" d="M287 612l14 82h145l121 690l-20 -18q-112 -94 -223 -154l20 113q169 109 238 168h120l-141 -799h135l-14 -82h-395z" />
<glyph unicode="&#xba;" horiz-adv-x="684" d="M285 1180q21 133 106 206q89 80 217 80q130 0 181 -82t28 -210q-21 -124 -105 -207.5t-212 -83.5q-139 0 -189 94q-48 84 -26 203zM381 1180q-20 -103 10 -158q15 -33 47 -52.5t74 -19.5q41 0 84 24t70 60q21 31 38 77t23 97t-2.5 95t-42 73t-90.5 29q-90 0 -156 -80 q-44 -62 -55 -145z" />
<glyph unicode="&#xbb;" d="M248 121l248 444l-90 436h149l92 -436l-248 -444h-151zM602 121l256 444l-88 436h152l88 -436l-256 -444h-152z" />
<glyph unicode="&#xbc;" horiz-adv-x="1708" d="M227 612l15 82h145l121 690l-21 -18q-112 -94 -223 -154l21 113q165 106 237 168h121l-141 -799h135l-14 -82h-396zM406 0l1167 1493h119l-1168 -1493h-118zM1051 236l20 116l467 529h141l-100 -566h133l-14 -79h-133l-27 -154h121l-14 -82h-375l14 82h146l26 154h-405z M1149 315h321l82 465z" />
<glyph unicode="&#xbd;" horiz-adv-x="1708" d="M227 612l15 82h145l121 690l-21 -18q-112 -94 -223 -154l21 113q165 106 237 168h121l-141 -799h135l-14 -82h-396zM344 0l1167 1493h119l-1167 -1493h-119zM1067 0l25 139q216 157 335 258t159 154t48 100q12 72 -20.5 116t-108.5 44q-80 0 -133.5 -54t-64.5 -128h-121 q66 266 334 266q123 0 191 -58.5t50 -162.5q-14 -80 -52.5 -133t-119.5 -123q-48 -42 -270 -225l-135 -109h383l24 141h105l-39 -225h-590z" />
<glyph unicode="&#xbe;" horiz-adv-x="1708" d="M201 844h125q-12 -74 19 -125t108 -51q84 0 141.5 46.5t71.5 123.5q6 39 -5 74.5t-40 56.5q-37 33 -140 37l15 81q92 -2 156.5 39t78.5 125q11 70 -24.5 114t-110.5 44q-73 0 -119 -37q-52 -44 -67 -94l-7 -35h-122q23 116 115.5 183t221.5 67q119 0 184.5 -64.5 t49.5 -166.5q-17 -91 -78.5 -146.5t-159.5 -68.5v-5q96 -7 140.5 -64t29.5 -147q-23 -119 -116 -184t-224 -65q-136 0 -201 68.5t-42 193.5zM406 0l1167 1493h119l-1168 -1493h-118zM1051 236l20 116l467 529h141l-100 -566h133l-14 -79h-133l-27 -154h121l-14 -82h-375 l14 82h146l26 154h-405zM1149 315h321l82 465z" />
<glyph unicode="&#xbf;" horiz-adv-x="1024" d="M96 20q15 82 60 155t97.5 122.5t133.5 110.5q116 88 156.5 155.5t62.5 204.5h180q-25 -148 -74 -241.5t-163 -178.5q-96 -75 -109 -86q-77 -64 -108.5 -112.5t-48.5 -135.5q-20 -114 33 -176.5t169 -62.5q102 0 176.5 75.5t92.5 178.5h184q-42 -184 -164.5 -285.5 t-310.5 -101.5q-208 0 -299 98q-98 107 -68 280zM629 915l33 187h192l-33 -187h-192z" />
<glyph unicode="&#xc0;" horiz-adv-x="1593" d="M20 0l25 135h152l751 1331h209l277 -1331h147l-25 -135h-544l24 135h203l-65 352h-607l-186 -352h201l-25 -135h-537zM649 623h492l-125 684zM874 1909h158l178 -283h-104z" />
<glyph unicode="&#xc1;" horiz-adv-x="1593" d="M20 0l25 135h152l751 1331h209l277 -1331h147l-25 -135h-544l24 135h203l-65 352h-607l-186 -352h201l-25 -135h-537zM649 623h492l-125 684zM954 1626l279 283h158l-332 -283h-105z" />
<glyph unicode="&#xc2;" horiz-adv-x="1593" d="M20 0l25 135h152l751 1331h209l277 -1331h147l-25 -135h-544l24 135h203l-65 352h-607l-186 -352h201l-25 -135h-537zM649 623h492l-125 684zM784 1626l279 283h137l184 -283h-133l-131 207l-205 -207h-131z" />
<glyph unicode="&#xc3;" horiz-adv-x="1593" d="M20 0l25 135h152l751 1331h209l277 -1331h147l-25 -135h-544l24 135h203l-65 352h-607l-186 -352h201l-25 -135h-537zM649 623h492l-125 684zM770 1649q25 84 82.5 141t132.5 57q53 0 146 -46t129 -46q40 0 68 31.5t40 71.5h78q-21 -80 -74 -139.5t-129 -59.5 q-50 0 -104 26t-105.5 48t-103.5 14q-31 -14 -50 -37t-36 -61h-74z" />
<glyph unicode="&#xc4;" horiz-adv-x="1593" d="M20 0l25 135h152l751 1331h209l277 -1331h147l-25 -135h-544l24 135h203l-65 352h-607l-186 -352h201l-25 -135h-537zM649 623h492l-125 684zM795 1645l30 176h185l-31 -176h-184zM1182 1645l30 176h185l-31 -176h-184z" />
<glyph unicode="&#xc5;" horiz-adv-x="1593" d="M20 0l25 135h152l751 1331h209l277 -1331h147l-25 -135h-544l24 135h203l-65 352h-607l-186 -352h201l-25 -135h-537zM649 623h492l-125 684zM903 1763q13 81 85.5 142t154.5 61t131.5 -60t36.5 -143q-15 -84 -85.5 -144t-154.5 -60q-83 0 -133 60.5t-35 143.5zM973 1763 q-10 -55 23 -95t87 -40t102.5 40.5t57.5 94.5t-24.5 94.5t-88.5 40.5q-56 0 -102 -40t-55 -95z" />
<glyph unicode="&#xc6;" horiz-adv-x="2048" d="M29 0l24 135h76l967 1331h1089l-74 -424h-159l49 287h-639l-21 -502h275l39 215h149l-100 -565h-150l39 215h-254l-22 -557h498l55 314h158l-80 -449h-1041l25 135h209l16 350h-594l-250 -350h209l-24 -135h-469zM664 618h497l35 742h-14z" />
<glyph unicode="&#xc7;" horiz-adv-x="1478" d="M232.5 548q1.5 93 17.5 185q22 125 66.5 236.5t114 207t158 164.5t204.5 108.5t247 39.5q146 0 249 -56.5t136 -179.5l37 213h148l-92 -520h-160q11 90 -3.5 163t-53.5 126t-106.5 82t-158.5 29q-104 0 -192 -32t-151.5 -86.5t-112.5 -131.5t-79.5 -162.5t-47.5 -183.5 q-12 -69 -17 -132.5t-0.5 -127.5t19 -117.5t43 -100.5t70.5 -79.5t103 -51t138 -18.5q170 0 288.5 101t157.5 270h189q-34 -165 -130 -283.5t-233 -177.5t-301 -58h-14l-92 -96q48 12 67 12q76 0 121 -45q11 -19 15 -28q8 -11 10 -35.5t-2 -38.5q-6 -33 -28 -65.5t-52 -55.5 q-51 -29 -88 -38t-94 -9q-64 0 -144 25q-20 12 -33 14l41 61q5 -2 17 -6l18 -6t17 -5.5t18.5 -5t17 -3.5t19 -3t18.5 -1q31 0 62.5 9t58.5 31.5t33 55.5q2 14 -2 31t-14 22q-10 13 -31 20t-43 7q-26 0 -92 -17l-25 27l133 148q-263 26 -381 219q-41 66 -60.5 161t-18 188z " />
<glyph unicode="&#xc8;" horiz-adv-x="1366" d="M59 0l25 135h209l211 1196h-209l22 135h1172l-76 -438h-160l54 303h-625l-92 -518h303l39 223h147l-102 -577h-148l39 219h-303l-94 -543h625l55 322h160l-80 -457h-1172zM762 1909h158l178 -283h-105z" />
<glyph unicode="&#xc9;" horiz-adv-x="1366" d="M59 0l25 135h209l211 1196h-209l22 135h1172l-76 -438h-160l54 303h-625l-92 -518h303l39 223h147l-102 -577h-148l39 219h-303l-94 -543h625l55 322h160l-80 -457h-1172zM842 1626l278 283h158l-332 -283h-104z" />
<glyph unicode="&#xca;" horiz-adv-x="1366" d="M59 0l25 135h209l211 1196h-209l22 135h1172l-76 -438h-160l54 303h-625l-92 -518h303l39 223h147l-102 -577h-148l39 219h-303l-94 -543h625l55 322h160l-80 -457h-1172zM672 1626l278 283h137l185 -283h-133l-131 207l-205 -207h-131z" />
<glyph unicode="&#xcb;" horiz-adv-x="1366" d="M59 0l25 135h209l211 1196h-209l22 135h1172l-76 -438h-160l54 303h-625l-92 -518h303l39 223h147l-102 -577h-148l39 219h-303l-94 -543h625l55 322h160l-80 -457h-1172zM682 1645l31 176h184l-31 -176h-184zM1069 1645l31 176h184l-31 -176h-184z" />
<glyph unicode="&#xcc;" horiz-adv-x="681" d="M47 0l25 135h204l211 1196h-204l22 135h590l-23 -135h-206l-211 -1196h207l-25 -135h-590zM420 1909h158l178 -283h-105z" />
<glyph unicode="&#xcd;" horiz-adv-x="681" d="M47 0l25 135h204l211 1196h-204l22 135h590l-23 -135h-206l-211 -1196h207l-25 -135h-590zM500 1626l278 283h158l-332 -283h-104z" />
<glyph unicode="&#xce;" horiz-adv-x="681" d="M47 0l25 135h204l211 1196h-204l22 135h590l-23 -135h-206l-211 -1196h207l-25 -135h-590zM330 1626l278 283h137l185 -283h-133l-131 207l-205 -207h-131z" />
<glyph unicode="&#xcf;" horiz-adv-x="681" d="M47 0l25 135h204l211 1196h-204l22 135h590l-23 -135h-206l-211 -1196h207l-25 -135h-590zM340 1645l31 176h184l-31 -176h-184zM727 1645l31 176h184l-31 -176h-184z" />
<glyph unicode="&#xd0;" horiz-adv-x="1478" d="M51 0l25 135h207l106 613h-207l19 102h207l86 481h-207l22 135h570q161 0 245 -16q118 -24 207.5 -91t134.5 -171q39 -90 48.5 -214t-11.5 -231q-53 -305 -219 -493q-100 -110 -213.5 -165t-261.5 -77q-72 -8 -234 -8h-524zM461 135h155q150 0 261.5 29t212.5 117 q87 75 144 192t79 238q15 81 16 158t-15.5 151.5t-49.5 133t-92.5 101.5t-139.5 60q-82 16 -160 16h-200l-86 -481h293l-19 -102h-293z" />
<glyph unicode="&#xd1;" horiz-adv-x="1593" d="M59 0l25 135h207l211 1196h-207l22 135h471l422 -1276l203 1141h-205l23 135h565l-22 -135h-201l-236 -1331h-247l-437 1313l-207 -1178h211l-24 -135h-574zM770 1649q25 84 82.5 141t132.5 57q53 0 146 -46t129 -46q40 0 68 31.5t40 71.5h78q-21 -80 -74 -139.5 t-129 -59.5q-50 0 -104 26t-105.5 48t-103.5 14q-31 -14 -50 -37t-36 -61h-74z" />
<glyph unicode="&#xd2;" horiz-adv-x="1593" d="M229.5 474.5q-7.5 111.5 12.5 238.5q30 170 92 305.5t178 251.5q219 219 555 219q330 0 475 -227q47 -75 67 -166.5t17 -179t-22 -193.5q-25 -150 -93 -289q-78 -157 -165 -246q-108 -108 -248.5 -160.5t-290.5 -52.5q-131 0 -237 36t-176 102t-113.5 158t-51 203.5z M442 735q-51 -290 31 -432q108 -194 354 -194q243 0 412 206q127 156 174 416q14 79 15.5 153t-8.5 145.5t-39 129.5t-73 103t-113 69.5t-157 24.5q-104 0 -194 -35.5t-155 -94.5t-116 -140t-82.5 -168t-48.5 -183zM874 1909h158l178 -283h-104z" />
<glyph unicode="&#xd3;" horiz-adv-x="1593" d="M229.5 474.5q-7.5 111.5 12.5 238.5q30 170 92 305.5t178 251.5q219 219 555 219q330 0 475 -227q47 -75 67 -166.5t17 -179t-22 -193.5q-25 -150 -93 -289q-78 -157 -165 -246q-108 -108 -248.5 -160.5t-290.5 -52.5q-131 0 -237 36t-176 102t-113.5 158t-51 203.5z M442 735q-51 -290 31 -432q108 -194 354 -194q243 0 412 206q127 156 174 416q14 79 15.5 153t-8.5 145.5t-39 129.5t-73 103t-113 69.5t-157 24.5q-104 0 -194 -35.5t-155 -94.5t-116 -140t-82.5 -168t-48.5 -183zM954 1626l279 283h158l-332 -283h-105z" />
<glyph unicode="&#xd4;" horiz-adv-x="1593" d="M229.5 474.5q-7.5 111.5 12.5 238.5q30 170 92 305.5t178 251.5q219 219 555 219q330 0 475 -227q47 -75 67 -166.5t17 -179t-22 -193.5q-25 -150 -93 -289q-78 -157 -165 -246q-108 -108 -248.5 -160.5t-290.5 -52.5q-131 0 -237 36t-176 102t-113.5 158t-51 203.5z M442 735q-51 -290 31 -432q108 -194 354 -194q243 0 412 206q127 156 174 416q14 79 15.5 153t-8.5 145.5t-39 129.5t-73 103t-113 69.5t-157 24.5q-104 0 -194 -35.5t-155 -94.5t-116 -140t-82.5 -168t-48.5 -183zM784 1626l279 283h137l184 -283h-133l-131 207l-205 -207 h-131z" />
<glyph unicode="&#xd5;" horiz-adv-x="1593" d="M229.5 474.5q-7.5 111.5 12.5 238.5q30 170 92 305.5t178 251.5q219 219 555 219q330 0 475 -227q47 -75 67 -166.5t17 -179t-22 -193.5q-25 -150 -93 -289q-78 -157 -165 -246q-108 -108 -248.5 -160.5t-290.5 -52.5q-131 0 -237 36t-176 102t-113.5 158t-51 203.5z M442 735q-51 -290 31 -432q108 -194 354 -194q243 0 412 206q127 156 174 416q14 79 15.5 153t-8.5 145.5t-39 129.5t-73 103t-113 69.5t-157 24.5q-104 0 -194 -35.5t-155 -94.5t-116 -140t-82.5 -168t-48.5 -183zM770 1649q25 84 82.5 141t132.5 57q53 0 146 -46t129 -46 q40 0 68 31.5t40 71.5h78q-21 -80 -74 -139.5t-129 -59.5q-50 0 -104 26t-105.5 48t-103.5 14q-31 -14 -50 -37t-36 -61h-74z" />
<glyph unicode="&#xd6;" horiz-adv-x="1593" d="M229.5 474.5q-7.5 111.5 12.5 238.5q30 170 92 305.5t178 251.5q219 219 555 219q330 0 475 -227q47 -75 67 -166.5t17 -179t-22 -193.5q-25 -150 -93 -289q-78 -157 -165 -246q-108 -108 -248.5 -160.5t-290.5 -52.5q-131 0 -237 36t-176 102t-113.5 158t-51 203.5z M442 735q-51 -290 31 -432q108 -194 354 -194q243 0 412 206q127 156 174 416q14 79 15.5 153t-8.5 145.5t-39 129.5t-73 103t-113 69.5t-157 24.5q-104 0 -194 -35.5t-155 -94.5t-116 -140t-82.5 -168t-48.5 -183zM795 1645l30 176h185l-31 -176h-184zM1182 1645l30 176 h185l-31 -176h-184z" />
<glyph unicode="&#xd7;" horiz-adv-x="1351" d="M199 301l518 430l-367 430l107 90l364 -430l518 430l72 -90l-518 -428l367 -430l-107 -90l-365 430l-518 -430z" />
<glyph unicode="&#xd8;" horiz-adv-x="1593" d="M150 6l180 182q-70 98 -93 233t5 292q30 167 90.5 301t173.5 248q103 108 250 167.5t293 59.5q278 0 421 -150l172 174l64 -63l-166 -176q49 -82 69.5 -174.5t17.5 -179t-23 -197.5q-27 -161 -97 -301q-35 -77 -71.5 -126.5t-100.5 -107.5q-121 -110 -251.5 -161.5 t-284.5 -51.5q-263 0 -412 146l-176 -178zM442 735q-46 -267 21 -413l889 897q-111 137 -318 137q-103 0 -192 -36t-154 -95.5t-116 -141t-82 -168t-48 -180.5zM512 246q107 -137 315 -137q248 0 410 206q130 167 178 428q45 245 -18 396z" />
<glyph unicode="&#xd9;" horiz-adv-x="1478" d="M264 1331l23 135h579l-22 -135h-219l-136 -766q-12 -70 -16 -116t4 -104t35 -103q68 -119 252 -119q94 0 184.5 43.5t147.5 122.5q28 39 47 77t33.5 91t19.5 74.5t18 91.5l125 708h-215l23 135h555l-23 -135h-182l-133 -751q-13 -75 -21 -112.5t-29 -94t-52 -105.5 q-41 -63 -111.5 -129t-132.5 -96q-141 -66 -291 -66q-120 0 -222 46.5t-157 134.5q-30 45 -45.5 92.5t-16 102.5t4.5 100t18 114l135 764h-180zM817 1909h158l178 -283h-104z" />
<glyph unicode="&#xda;" horiz-adv-x="1478" d="M264 1331l23 135h579l-22 -135h-219l-136 -766q-12 -70 -16 -116t4 -104t35 -103q68 -119 252 -119q94 0 184.5 43.5t147.5 122.5q28 39 47 77t33.5 91t19.5 74.5t18 91.5l125 708h-215l23 135h555l-23 -135h-182l-133 -751q-13 -75 -21 -112.5t-29 -94t-52 -105.5 q-41 -63 -111.5 -129t-132.5 -96q-141 -66 -291 -66q-120 0 -222 46.5t-157 134.5q-30 45 -45.5 92.5t-16 102.5t4.5 100t18 114l135 764h-180zM897 1626l279 283h157l-332 -283h-104z" />
<glyph unicode="&#xdb;" horiz-adv-x="1478" d="M264 1331l23 135h579l-22 -135h-219l-136 -766q-12 -70 -16 -116t4 -104t35 -103q68 -119 252 -119q94 0 184.5 43.5t147.5 122.5q28 39 47 77t33.5 91t19.5 74.5t18 91.5l125 708h-215l23 135h555l-23 -135h-182l-133 -751q-13 -75 -21 -112.5t-29 -94t-52 -105.5 q-41 -63 -111.5 -129t-132.5 -96q-141 -66 -291 -66q-120 0 -222 46.5t-157 134.5q-30 45 -45.5 92.5t-16 102.5t4.5 100t18 114l135 764h-180zM727 1626l279 283h137l184 -283h-133l-131 207l-205 -207h-131z" />
<glyph unicode="&#xdc;" horiz-adv-x="1478" d="M264 1331l23 135h579l-22 -135h-219l-136 -766q-12 -70 -16 -116t4 -104t35 -103q68 -119 252 -119q94 0 184.5 43.5t147.5 122.5q28 39 47 77t33.5 91t19.5 74.5t18 91.5l125 708h-215l23 135h555l-23 -135h-182l-133 -751q-13 -75 -21 -112.5t-29 -94t-52 -105.5 q-41 -63 -111.5 -129t-132.5 -96q-141 -66 -291 -66q-120 0 -222 46.5t-157 134.5q-30 45 -45.5 92.5t-16 102.5t4.5 100t18 114l135 764h-180zM737 1645l31 176h184l-30 -176h-185zM1124 1645l31 176h184l-30 -176h-185z" />
<glyph unicode="&#xdd;" horiz-adv-x="1366" d="M260 1331l23 135h520l-23 -135h-202l245 -573l449 573h-193l23 135h500l-23 -135h-115l-590 -731l-81 -465h227l-25 -135h-633l25 135h227l82 465l-323 731h-113zM842 1626l278 283h158l-332 -283h-104z" />
<glyph unicode="&#xde;" horiz-adv-x="1251" d="M59 0l25 135h209l211 1196h-209l22 135h596l-22 -135h-209l-27 -147h258q119 0 191 -17q134 -35 183.5 -148.5t23.5 -268.5q-21 -111 -69 -194.5t-138 -152.5q-51 -40 -115 -59.5t-106 -22t-120 -2.5h-22h-237l-33 -184h209l-25 -135h-596zM526 455h222q61 0 93 2 t81.5 18t87.5 49q90 73 116 224q31 177 -55 243q-31 27 -74.5 40.5t-76 15.5t-89.5 2h-200z" />
<glyph unicode="&#xdf;" d="M29 0l22 129h172l164 928q11 62 19.5 96.5t26.5 84.5t48 88t72 69q78 56 159.5 78t180.5 22q83 0 147.5 -17t113.5 -53.5t68.5 -100.5t4.5 -150q-25 -142 -120.5 -230.5t-240.5 -103.5q165 -15 236 -125.5t41 -280.5q-16 -95 -66 -190t-123 -154q-72 -57 -158.5 -74.5 t-197.5 -15.5l23 129q146 -10 232 71.5t112 231.5q28 159 -31 245t-215 77l26 151q114 0 199 69.5t105 182.5q18 104 -32 157.5t-155 53.5q-62 0 -127 -26.5t-102 -75.5q-11 -14 -20 -29t-15.5 -27t-12.5 -30l-9 -27t-7.5 -30.5t-5.5 -28.5t-5 -32t-5 -30l-160 -903h99 l-23 -129h-440z" />
<glyph unicode="&#xe0;" d="M139 211q-2 59 8 100q15 87 59.5 152.5t109 104t139 57t157.5 18.5q20 0 60 1t59 1h168l16 98q8 54 0 96.5t-41 82.5q-22 28 -63 42.5t-84 14.5q-76 0 -125.5 -16.5t-101.5 -69.5q-40 -40 -64 -127h-172q55 240 287 313q72 23 186 23q90 0 155.5 -20t121.5 -72 q35 -32 50.5 -77t15 -88.5t-10.5 -101.5l-108 -614h169l-22 -129h-324l37 211q-75 -120 -166.5 -172.5t-222.5 -52.5q-79 0 -141.5 22t-104.5 74t-47 129zM322 307q-15 -90 24 -145.5t127 -55.5q71 0 132 23t104.5 61.5t77.5 92.5t55 111.5t35 123.5q-51 8 -164 8 q-43 0 -71 -1t-69.5 -5.5t-69.5 -12.5t-61 -24.5t-54.5 -39t-39.5 -57.5t-26 -79zM578 1511h157l178 -282h-104z" />
<glyph unicode="&#xe1;" d="M139 211q-2 59 8 100q15 87 59.5 152.5t109 104t139 57t157.5 18.5q20 0 60 1t59 1h168l16 98q8 54 0 96.5t-41 82.5q-22 28 -63 42.5t-84 14.5q-76 0 -125.5 -16.5t-101.5 -69.5q-40 -40 -64 -127h-172q55 240 287 313q72 23 186 23q90 0 155.5 -20t121.5 -72 q35 -32 50.5 -77t15 -88.5t-10.5 -101.5l-108 -614h169l-22 -129h-324l37 211q-75 -120 -166.5 -172.5t-222.5 -52.5q-79 0 -141.5 22t-104.5 74t-47 129zM322 307q-15 -90 24 -145.5t127 -55.5q71 0 132 23t104.5 61.5t77.5 92.5t55 111.5t35 123.5q-51 8 -164 8 q-43 0 -71 -1t-69.5 -5.5t-69.5 -12.5t-61 -24.5t-54.5 -39t-39.5 -57.5t-26 -79zM657 1229l279 282h158l-332 -282h-105z" />
<glyph unicode="&#xe2;" d="M139 211q-2 59 8 100q15 87 59.5 152.5t109 104t139 57t157.5 18.5q20 0 60 1t59 1h168l16 98q8 54 0 96.5t-41 82.5q-22 28 -63 42.5t-84 14.5q-76 0 -125.5 -16.5t-101.5 -69.5q-40 -40 -64 -127h-172q55 240 287 313q72 23 186 23q90 0 155.5 -20t121.5 -72 q35 -32 50.5 -77t15 -88.5t-10.5 -101.5l-108 -614h169l-22 -129h-324l37 211q-75 -120 -166.5 -172.5t-222.5 -52.5q-79 0 -141.5 22t-104.5 74t-47 129zM322 307q-15 -90 24 -145.5t127 -55.5q71 0 132 23t104.5 61.5t77.5 92.5t55 111.5t35 123.5q-51 8 -164 8 q-43 0 -71 -1t-69.5 -5.5t-69.5 -12.5t-61 -24.5t-54.5 -39t-39.5 -57.5t-26 -79zM487 1229l279 282h137l184 -282h-133l-131 207l-205 -207h-131z" />
<glyph unicode="&#xe3;" d="M139 211q-2 59 8 100q15 87 59.5 152.5t109 104t139 57t157.5 18.5q20 0 60 1t59 1h168l16 98q8 54 0 96.5t-41 82.5q-22 28 -63 42.5t-84 14.5q-76 0 -125.5 -16.5t-101.5 -69.5q-40 -40 -64 -127h-172q55 240 287 313q72 23 186 23q90 0 155.5 -20t121.5 -72 q35 -32 50.5 -77t15 -88.5t-10.5 -101.5l-108 -614h169l-22 -129h-324l37 211q-75 -120 -166.5 -172.5t-222.5 -52.5q-79 0 -141.5 22t-104.5 74t-47 129zM322 307q-15 -90 24 -145.5t127 -55.5q71 0 132 23t104.5 61.5t77.5 92.5t55 111.5t35 123.5q-51 8 -164 8 q-43 0 -71 -1t-69.5 -5.5t-69.5 -12.5t-61 -24.5t-54.5 -39t-39.5 -57.5t-26 -79zM473 1251q25 84 82.5 141.5t132.5 57.5q53 0 146 -46t129 -46q70 0 108 102h78q-21 -80 -74 -139t-129 -59q-50 0 -104 26t-105.5 48t-103.5 14q-32 -14 -51 -38t-35 -61h-74z" />
<glyph unicode="&#xe4;" d="M139 211q-2 59 8 100q15 87 59.5 152.5t109 104t139 57t157.5 18.5q20 0 60 1t59 1h168l16 98q8 54 0 96.5t-41 82.5q-22 28 -63 42.5t-84 14.5q-76 0 -125.5 -16.5t-101.5 -69.5q-40 -40 -64 -127h-172q55 240 287 313q72 23 186 23q90 0 155.5 -20t121.5 -72 q35 -32 50.5 -77t15 -88.5t-10.5 -101.5l-108 -614h169l-22 -129h-324l37 211q-75 -120 -166.5 -172.5t-222.5 -52.5q-79 0 -141.5 22t-104.5 74t-47 129zM322 307q-15 -90 24 -145.5t127 -55.5q71 0 132 23t104.5 61.5t77.5 92.5t55 111.5t35 123.5q-51 8 -164 8 q-43 0 -71 -1t-69.5 -5.5t-69.5 -12.5t-61 -24.5t-54.5 -39t-39.5 -57.5t-26 -79zM500 1268l30 176h185l-31 -176h-184zM887 1268l31 176h184l-31 -176h-184z" />
<glyph unicode="&#xe5;" d="M139 211q-2 59 8 100q15 87 59.5 152.5t109 104t139 57t157.5 18.5q20 0 60 1t59 1h168l16 98q8 54 0 96.5t-41 82.5q-22 28 -63 42.5t-84 14.5q-76 0 -125.5 -16.5t-101.5 -69.5q-40 -40 -64 -127h-172q55 240 287 313q72 23 186 23q90 0 155.5 -20t121.5 -72 q35 -32 50.5 -77t15 -88.5t-10.5 -101.5l-108 -614h169l-22 -129h-324l37 211q-75 -120 -166.5 -172.5t-222.5 -52.5q-79 0 -141.5 22t-104.5 74t-47 129zM322 307q-15 -90 24 -145.5t127 -55.5q71 0 132 23t104.5 61.5t77.5 92.5t55 111.5t35 123.5q-51 8 -164 8 q-43 0 -71 -1t-69.5 -5.5t-69.5 -12.5t-61 -24.5t-54.5 -39t-39.5 -57.5t-26 -79zM610 1399q15 82 87.5 142.5t154.5 60.5t131.5 -60t34.5 -143q-14 -84 -84 -144.5t-154 -60.5q-83 0 -133.5 61t-36.5 144zM680 1399q-9 -55 25 -95t88 -40t101 40.5t56 94.5q11 54 -22 94.5 t-88 40.5t-102 -39.5t-58 -95.5z" />
<glyph unicode="&#xe6;" horiz-adv-x="1705" d="M188 311q15 94 74.5 165.5t153.5 103.5q97 34 317 34h150l12 66q2 11 8 42t8 47t3.5 41t-2 45.5t-11.5 39.5q-43 84 -156 84q-108 0 -177 -59.5t-91 -167.5h-172q13 78 58.5 150t109.5 118q116 82 285 82q55 0 102.5 -9t90 -30t68.5 -60t30 -94q107 193 348 193 q99 0 165.5 -30t100 -87.5t44 -129.5t3.5 -169q-2 -28 -7 -60t-13 -70t-11 -58h-663q-14 -57 -17 -111.5t8 -106t36 -90t71 -61.5t109 -23q93 0 170 72.5t100 167.5h147q-40 -165 -162 -262.5t-290 -97.5q-16 0 -37 2.5t-47 6.5t-37 5q-67 9 -134 90.5t-63 149.5 q-133 -254 -399 -254q-159 0 -234.5 84.5t-48.5 240.5zM360 303q-15 -87 28 -142t130 -55q73 0 134.5 35t102.5 93.5t67.5 124.5t39.5 139h-63q-14 0 -48 0.5t-53 0.5t-53 -1.5t-55.5 -4.5t-52 -9.5t-50.5 -16t-43.5 -25t-38 -34.5t-27 -46t-18.5 -59zM1036 614h504 q13 58 17.5 106.5t-2 97t-27 82t-63 54.5t-105.5 21q-70 0 -128.5 -33t-97 -87.5t-62.5 -115t-36 -125.5z" />
<glyph unicode="&#xe7;" horiz-adv-x="1024" d="M168 524q22 123 66 220.5t131 191.5q69 75 165.5 120.5t196.5 45.5q205 0 277 -166l22 133h129l-70 -393h-129q21 116 -38 203.5t-173 87.5q-82 0 -151.5 -36t-116.5 -97t-77 -132t-44 -149q-32 -171 23 -297q28 -64 85 -100.5t130 -36.5q100 0 182.5 70.5t110.5 172.5 h155q-22 -115 -96 -202.5t-176 -131t-215 -42.5h-6l-103 -107q48 12 68 12q76 0 121 -45q8 -14 14 -28q18 -24 8 -74q-12 -68 -79 -121q-51 -29 -88.5 -38t-94.5 -9q-63 0 -143 25q-20 12 -33 14l41 61q88 -30 125 -30q51 0 98.5 24t55.5 72q2 14 -2.5 30.5t-14.5 22.5 q-21 27 -73 27q-27 0 -93 -17l-24 27l143 160q-122 19 -200.5 95.5t-104.5 189.5t-2 247z" />
<glyph unicode="&#xe8;" d="M185.5 357.5q-1.5 83.5 13.5 179.5q34 197 139 335q81 107 205 168.5t252 61.5q76 0 151 -25t123 -69q148 -144 90 -478l-6 -28h-788q-22 -188 45 -287q39 -61 92 -82.5t143 -21.5q98 0 189 64.5t118 158.5h158q-58 -168 -197.5 -258t-318.5 -90q-102 0 -180 26.5 t-125.5 75.5t-74.5 117.5t-28.5 152zM395 625h604q14 89 -3.5 167.5t-76 132.5t-151.5 54q-72 0 -135.5 -30.5t-110 -81.5t-78.5 -113t-49 -129zM578 1511h157l178 -282h-104z" />
<glyph unicode="&#xe9;" d="M185.5 357.5q-1.5 83.5 13.5 179.5q34 197 139 335q81 107 205 168.5t252 61.5q76 0 151 -25t123 -69q148 -144 90 -478l-6 -28h-788q-22 -188 45 -287q39 -61 92 -82.5t143 -21.5q98 0 189 64.5t118 158.5h158q-58 -168 -197.5 -258t-318.5 -90q-102 0 -180 26.5 t-125.5 75.5t-74.5 117.5t-28.5 152zM395 625h604q14 89 -3.5 167.5t-76 132.5t-151.5 54q-72 0 -135.5 -30.5t-110 -81.5t-78.5 -113t-49 -129zM657 1229l279 282h158l-332 -282h-105z" />
<glyph unicode="&#xea;" d="M185.5 357.5q-1.5 83.5 13.5 179.5q34 197 139 335q81 107 205 168.5t252 61.5q76 0 151 -25t123 -69q148 -144 90 -478l-6 -28h-788q-22 -188 45 -287q39 -61 92 -82.5t143 -21.5q98 0 189 64.5t118 158.5h158q-58 -168 -197.5 -258t-318.5 -90q-102 0 -180 26.5 t-125.5 75.5t-74.5 117.5t-28.5 152zM395 625h604q14 89 -3.5 167.5t-76 132.5t-151.5 54q-72 0 -135.5 -30.5t-110 -81.5t-78.5 -113t-49 -129zM487 1229l279 282h137l184 -282h-133l-131 207l-205 -207h-131z" />
<glyph unicode="&#xeb;" d="M185.5 357.5q-1.5 83.5 13.5 179.5q34 197 139 335q81 107 205 168.5t252 61.5q76 0 151 -25t123 -69q148 -144 90 -478l-6 -28h-788q-22 -188 45 -287q39 -61 92 -82.5t143 -21.5q98 0 189 64.5t118 158.5h158q-58 -168 -197.5 -258t-318.5 -90q-102 0 -180 26.5 t-125.5 75.5t-74.5 117.5t-28.5 152zM395 625h604q14 89 -3.5 167.5t-76 132.5t-151.5 54q-72 0 -135.5 -30.5t-110 -81.5t-78.5 -113t-49 -129zM500 1268l30 176h185l-31 -176h-184zM887 1268l31 176h184l-31 -176h-184z" />
<glyph unicode="&#xec;" horiz-adv-x="606" d="M63 0l23 129h170l145 819h-170l21 121h336l-166 -940h158l-23 -129h-494zM311 1511h158l178 -282h-104z" />
<glyph unicode="&#xed;" horiz-adv-x="606" d="M63 0l23 129h170l145 819h-170l21 121h336l-166 -940h158l-23 -129h-494zM391 1229l279 282h157l-331 -282h-105z" />
<glyph unicode="&#xee;" horiz-adv-x="606" d="M63 0l23 129h170l145 819h-170l21 121h336l-166 -940h158l-23 -129h-494zM221 1229l279 282h137l184 -282h-133l-131 207l-205 -207h-131z" />
<glyph unicode="&#xef;" horiz-adv-x="606" d="M63 0l23 129h170l145 819h-170l21 121h336l-166 -940h158l-23 -129h-494zM233 1268l31 176h185l-31 -176h-185zM621 1268l30 176h185l-31 -176h-184z" />
<glyph unicode="&#xf0;" d="M157 368q-3 82 11 173q41 225 200.5 368.5t370.5 143.5q151 0 244 -103l4 4q-28 182 -192 306l-250 -136l-53 66l227 123q-126 72 -250 88l23 131q230 -34 380 -135l254 135l52 -66l-234 -125q157 -136 209 -344.5t10 -447.5q-22 -124 -71 -226.5t-123.5 -178t-177 -117 t-224.5 -41.5q-97 0 -174 29t-125 80t-78 121t-33 152zM335 404q-1 -57 16 -110.5t44.5 -94.5t77.5 -65.5t115 -24.5t123.5 25t102 65.5t78 94t56 110t31.5 114.5q9 61 9.5 119.5t-16.5 111.5t-45.5 93.5t-78.5 64t-115 23.5q-81 0 -150.5 -37.5t-116.5 -99t-78 -132 t-44 -143.5q-8 -57 -9 -114z" />
<glyph unicode="&#xf1;" horiz-adv-x="1251" d="M51 0l23 129h178l145 819h-174l21 121h340l-35 -192q63 117 150 171t214 54q250 0 283 -225q0 -56 -14 -138l-109 -610h168l-22 -129h-502l22 129h168l99 553q8 48 10 86.5t-4.5 78t-24.5 66t-53.5 43.5t-87.5 17t-81.5 -6t-70.5 -31q-60 -34 -108 -105 q-27 -39 -46.5 -91t-27 -86.5t-18.5 -96.5l-76 -428h168l-23 -129h-512zM530 1251q25 84 82.5 141.5t132.5 57.5q53 0 146 -46t129 -46q70 0 108 102h78q-21 -80 -73.5 -139t-128.5 -59q-41 0 -84 16t-73.5 34.5t-73 31t-83.5 6.5q-32 -14 -51 -38t-35 -61h-74z" />
<glyph unicode="&#xf2;" d="M172 549q47 251 203 397q172 156 403 156q98 0 174 -29.5t122.5 -81t74 -122t29 -153.5t-12.5 -175q-20 -114 -69.5 -213.5t-123 -176t-177 -121t-222.5 -44.5q-126 0 -213 42t-139 138q-87 167 -49 383zM348 547q-33 -204 21 -299q33 -64 91 -100.5t134 -36.5 q77 0 156.5 46t126.5 115q76 105 110 281q11 64 12 121.5t-11.5 113.5t-40.5 96.5t-79.5 65.5t-122.5 25q-165 0 -288 -152q-82 -108 -109 -276zM578 1511h157l178 -282h-104z" />
<glyph unicode="&#xf3;" d="M172 549q47 251 203 397q172 156 403 156q98 0 174 -29.5t122.5 -81t74 -122t29 -153.5t-12.5 -175q-20 -114 -69.5 -213.5t-123 -176t-177 -121t-222.5 -44.5q-126 0 -213 42t-139 138q-87 167 -49 383zM348 547q-33 -204 21 -299q33 -64 91 -100.5t134 -36.5 q77 0 156.5 46t126.5 115q76 105 110 281q11 64 12 121.5t-11.5 113.5t-40.5 96.5t-79.5 65.5t-122.5 25q-165 0 -288 -152q-82 -108 -109 -276zM657 1229l279 282h158l-332 -282h-105z" />
<glyph unicode="&#xf4;" d="M172 549q47 251 203 397q172 156 403 156q98 0 174 -29.5t122.5 -81t74 -122t29 -153.5t-12.5 -175q-20 -114 -69.5 -213.5t-123 -176t-177 -121t-222.5 -44.5q-126 0 -213 42t-139 138q-87 167 -49 383zM348 547q-33 -204 21 -299q33 -64 91 -100.5t134 -36.5 q77 0 156.5 46t126.5 115q76 105 110 281q11 64 12 121.5t-11.5 113.5t-40.5 96.5t-79.5 65.5t-122.5 25q-165 0 -288 -152q-82 -108 -109 -276zM487 1229l279 282h137l184 -282h-133l-131 207l-205 -207h-131z" />
<glyph unicode="&#xf5;" d="M172 549q47 251 203 397q172 156 403 156q98 0 174 -29.5t122.5 -81t74 -122t29 -153.5t-12.5 -175q-20 -114 -69.5 -213.5t-123 -176t-177 -121t-222.5 -44.5q-126 0 -213 42t-139 138q-87 167 -49 383zM348 547q-33 -204 21 -299q33 -64 91 -100.5t134 -36.5 q77 0 156.5 46t126.5 115q76 105 110 281q11 64 12 121.5t-11.5 113.5t-40.5 96.5t-79.5 65.5t-122.5 25q-165 0 -288 -152q-82 -108 -109 -276zM473 1251q25 84 82.5 141.5t132.5 57.5q53 0 146 -46t129 -46q70 0 108 102h78q-21 -80 -74 -139t-129 -59q-50 0 -104 26 t-105.5 48t-103.5 14q-32 -14 -51 -38t-35 -61h-74z" />
<glyph unicode="&#xf6;" d="M172 549q47 251 203 397q172 156 403 156q98 0 174 -29.5t122.5 -81t74 -122t29 -153.5t-12.5 -175q-20 -114 -69.5 -213.5t-123 -176t-177 -121t-222.5 -44.5q-126 0 -213 42t-139 138q-87 167 -49 383zM348 547q-33 -204 21 -299q33 -64 91 -100.5t134 -36.5 q77 0 156.5 46t126.5 115q76 105 110 281q11 64 12 121.5t-11.5 113.5t-40.5 96.5t-79.5 65.5t-122.5 25q-165 0 -288 -152q-82 -108 -109 -276zM500 1268l30 176h185l-31 -176h-184zM887 1268l31 176h184l-31 -176h-184z" />
<glyph unicode="&#xf7;" horiz-adv-x="1351" d="M264 670l21 125h1040l-20 -125h-1041zM598 213l37 207h209l-37 -207h-209zM745 1044l37 207h209l-37 -207h-209z" />
<glyph unicode="&#xf8;" d="M104 8l132 137q-3 3 -8 11t-7 10q-87 167 -49 383q47 251 203 397q172 156 403 156q177 0 277 -90l119 123l61 -56l-125 -131q99 -151 55 -407q-20 -114 -69.5 -213.5t-123 -176t-177 -121t-222.5 -44.5q-199 0 -294 100l-125 -129zM348 547q-31 -171 10 -271l584 613 q-67 86 -197 86q-165 0 -288 -152q-82 -108 -109 -276zM397 209q69 -98 197 -98q77 0 156.5 46t126.5 115q76 105 110 281q26 167 -8 260z" />
<glyph unicode="&#xf9;" horiz-adv-x="1251" d="M209 948l20 121h334l-114 -655q-9 -49 -12.5 -87.5t1.5 -81t21.5 -71t52 -47t88.5 -18.5q76 0 146 40t114 109q59 88 88 258l78 432h-180l20 121h346l-165 -940h170l-23 -129h-336l37 205q-60 -118 -142 -168.5t-210 -50.5q-122 0 -199 53t-84 166q-4 60 23 209l94 534 h-168zM635 1511h158l178 -282h-105z" />
<glyph unicode="&#xfa;" horiz-adv-x="1251" d="M209 948l20 121h334l-114 -655q-9 -49 -12.5 -87.5t1.5 -81t21.5 -71t52 -47t88.5 -18.5q76 0 146 40t114 109q59 88 88 258l78 432h-180l20 121h346l-165 -940h170l-23 -129h-336l37 205q-60 -118 -142 -168.5t-210 -50.5q-122 0 -199 53t-84 166q-4 60 23 209l94 534 h-168zM715 1229l278 282h158l-332 -282h-104z" />
<glyph unicode="&#xfb;" horiz-adv-x="1251" d="M209 948l20 121h334l-114 -655q-9 -49 -12.5 -87.5t1.5 -81t21.5 -71t52 -47t88.5 -18.5q76 0 146 40t114 109q59 88 88 258l78 432h-180l20 121h346l-165 -940h170l-23 -129h-336l37 205q-60 -118 -142 -168.5t-210 -50.5q-122 0 -199 53t-84 166q-4 60 23 209l94 534 h-168zM545 1229l278 282h138l184 -282h-133l-131 207l-205 -207h-131z" />
<glyph unicode="&#xfc;" horiz-adv-x="1251" d="M209 948l20 121h334l-114 -655q-9 -49 -12.5 -87.5t1.5 -81t21.5 -71t52 -47t88.5 -18.5q76 0 146 40t114 109q59 88 88 258l78 432h-180l20 121h346l-165 -940h170l-23 -129h-336l37 205q-60 -118 -142 -168.5t-210 -50.5q-122 0 -199 53t-84 166q-4 60 23 209l94 534 h-168zM557 1268l31 176h184l-31 -176h-184zM944 1268l31 176h184l-31 -176h-184z" />
<glyph unicode="&#xfd;" d="M137 -342l23 135q55 -14 121 -14q32 0 62 16.5t49.5 35t43 56t32.5 55t28 56.5l-191 950h-102l20 121h457l-21 -121h-165l129 -749l387 749h-168l20 121h438l-20 -121h-94l-522 -958q-39 -71 -93 -158q-67 -105 -137 -143q-76 -45 -172 -45q-29 0 -125 14zM657 1229 l279 282h158l-332 -282h-105z" />
<glyph unicode="&#xfe;" horiz-adv-x="1251" d="M-18 -332l22 123h172l275 1552h-168l20 123h334l-107 -606h5q80 124 177 183t232 59q130 0 203 -55.5t125 -186.5q16 -40 19.5 -97t-1.5 -103.5t-16 -112.5q-47 -254 -166 -381q-166 -180 -363 -180q-264 0 -327 213h-4l-72 -408h172l-22 -123h-510zM475 547 q-33 -189 17 -297q28 -66 85 -103.5t132 -37.5q82 0 152 37t117.5 99t78 134t43.5 149q36 190 -15 312q-23 65 -79 102t-129 37q-170 0 -289 -154q-48 -61 -72.5 -126.5t-40.5 -151.5z" />
<glyph unicode="&#xff;" d="M137 -342l23 135q55 -14 121 -14q32 0 62 16.5t49.5 35t43 56t32.5 55t28 56.5l-191 950h-102l20 121h457l-21 -121h-165l129 -749l387 749h-168l20 121h438l-20 -121h-94l-522 -958q-39 -71 -93 -158q-67 -105 -137 -143q-76 -45 -172 -45q-29 0 -125 14zM500 1268 l30 176h185l-31 -176h-184zM887 1268l31 176h184l-31 -176h-184z" />
<glyph unicode="&#x152;" horiz-adv-x="2048" d="M224 566.5q3 86.5 20 183.5q21 119 64 227.5t110.5 202.5t153 162.5t197 107.5t237.5 39q75 0 217.5 -11.5t216.5 -11.5h733l-74 -426h-160l52 291h-566l-92 -522h244l37 215h147l-98 -563h-147l36 213h-243l-95 -539h566l53 311h160l-78 -446h-883q-43 0 -130.5 -6 t-131.5 -6q-159 0 -244 35q-84 35 -145 92.5t-95 126t-49.5 153.5t-12.5 171.5zM414 576q-3 -72 11.5 -149.5t49.5 -141.5q89 -164 356 -164q101 0 205 16l211 1204q-130 17 -190 17q-120 0 -246.5 -48t-196.5 -139q-135 -175 -182 -434q-15 -89 -18 -161z" />
<glyph unicode="&#x153;" horiz-adv-x="1705" d="M157.5 387q-1.5 67 12.5 137q23 126 62 222.5t114 181.5q72 83 173.5 128.5t205.5 45.5q146 0 230 -58t94 -192q2 5 8 16.5t8 16.5q70 114 166 165.5t225 51.5q53 0 110.5 -11t86.5 -34q41 -32 61 -61t41 -83q33 -95 -2 -311l-18 -102h-674q-10 -61 -14 -94.5t0 -81 t20 -86.5q27 -57 77 -90t116 -33q104 0 180 68.5t100 174.5h154q-31 -166 -156.5 -269t-292.5 -103q-70 0 -112 10.5t-91 42.5q-47 31 -75.5 86t-30.5 115q-33 -83 -100.5 -142t-147.5 -85.5t-166 -26.5q-75 0 -136.5 20.5t-103 57t-71 87t-41 110t-13 126.5zM348 535 q-31 -181 4 -281q24 -62 76.5 -100.5t120.5 -38.5q80 0 152.5 44.5t119.5 119.5q62 96 101 315q10 67 12.5 133.5t-22.5 128.5t-78 90q-47 27 -121 27q-82 0 -152 -42.5t-117 -117.5q-66 -102 -96 -278zM1081 616h502q84 357 -166 357q-67 0 -126 -33t-100 -87t-68.5 -114 t-41.5 -123z" />
<glyph unicode="&#x178;" horiz-adv-x="1366" d="M260 1331l23 135h520l-23 -135h-202l245 -573l449 573h-193l23 135h500l-23 -135h-115l-590 -731l-81 -465h227l-25 -135h-633l25 135h227l82 465l-323 731h-113zM682 1645l31 176h184l-31 -176h-184zM1069 1645l31 176h184l-31 -176h-184z" />
<glyph unicode="&#x2c6;" horiz-adv-x="569" d="M203 1229l278 282h137l185 -282h-133l-131 207l-205 -207h-131z" />
<glyph unicode="&#x2dc;" horiz-adv-x="569" d="M188 1251q25 84 82.5 141.5t132.5 57.5q53 0 146 -46t129 -46q70 0 108 102h78q-21 -80 -73.5 -139t-128.5 -59q-41 0 -84 16t-73.5 34.5t-73 31t-83.5 6.5q-32 -14 -51 -38t-35 -61h-74z" />
<glyph unicode="&#x2000;" horiz-adv-x="983" />
<glyph unicode="&#x2001;" horiz-adv-x="1966" />
<glyph unicode="&#x2002;" horiz-adv-x="983" />
<glyph unicode="&#x2003;" horiz-adv-x="1966" />
<glyph unicode="&#x2004;" horiz-adv-x="655" />
<glyph unicode="&#x2005;" horiz-adv-x="491" />
<glyph unicode="&#x2006;" horiz-adv-x="327" />
<glyph unicode="&#x2007;" horiz-adv-x="327" />
<glyph unicode="&#x2008;" horiz-adv-x="245" />
<glyph unicode="&#x2009;" horiz-adv-x="393" />
<glyph unicode="&#x200a;" horiz-adv-x="109" />
<glyph unicode="&#x2010;" horiz-adv-x="681" d="M186 492l27 149h483l-26 -149h-484z" />
<glyph unicode="&#x2011;" horiz-adv-x="681" d="M186 492l27 149h483l-26 -149h-484z" />
<glyph unicode="&#x2012;" horiz-adv-x="681" d="M186 492l27 149h483l-26 -149h-484z" />
<glyph unicode="&#x2013;" d="M88 502l23 129h1140l-22 -129h-1141z" />
<glyph unicode="&#x2014;" horiz-adv-x="2048" d="M88 502l23 129h2048l-23 -129h-2048z" />
<glyph unicode="&#x2018;" horiz-adv-x="569" d="M352 971l35 205l148 290h118l-145 -290h94l-35 -205h-215z" />
<glyph unicode="&#x2019;" horiz-adv-x="569" d="M342 971l147 291h-96l35 204h215l-35 -204l-145 -291h-121z" />
<glyph unicode="&#x201a;" horiz-adv-x="569" d="M129 -289l147 289h-96l37 205h215l-37 -205l-147 -289h-119z" />
<glyph unicode="&#x201c;" d="M434 971l35 203l147 292h119l-147 -292h96l-35 -203h-215zM825 971l35 203l148 292h118l-147 -292h96l-35 -203h-215z" />
<glyph unicode="&#x201d;" d="M434 971l148 293h-97l35 202h215l-35 -202l-147 -293h-119zM825 971l148 293h-96l34 202h215l-34 -202l-148 -293h-119z" />
<glyph unicode="&#x201e;" d="M211 -289l147 289h-96l37 205h215l-37 -205l-147 -289h-119zM602 -289l148 289h-97l37 205h215l-37 -205l-147 -289h-119z" />
<glyph unicode="&#x2022;" horiz-adv-x="1228" d="M354 367l129 731h652l-129 -731h-652z" />
<glyph unicode="&#x2026;" horiz-adv-x="2048" d="M238 0l36 207h209l-37 -207h-208zM920 0l36 207h209l-37 -207h-208zM1602 0l36 207h209l-37 -207h-208z" />
<glyph unicode="&#x202f;" horiz-adv-x="393" />
<glyph unicode="&#x2039;" horiz-adv-x="569" d="M223 565l244 436h151l-243 -436l88 -444h-152z" />
<glyph unicode="&#x203a;" horiz-adv-x="569" d="M150 121l247 444l-92 436h152l92 -436l-248 -444h-151z" />
<glyph unicode="&#x205f;" horiz-adv-x="491" />
<glyph unicode="&#x20ac;" d="M106 555l54 107h121q6 79 28 163h-155l53 107h131q58 187 156 323q175 236 403 236q103 0 169.5 -42t84.5 -110l25 140h155l-71 -406h-156l2 35q8 119 -51 185.5t-174 66.5q-121 0 -213 -117.5t-148 -310.5h535l-54 -107h-507q-3 -20 -14 -75.5t-15 -87.5h459l-54 -107 h-415q-11 -90 -2.5 -170.5t31 -140.5t69.5 -95.5t115 -35.5q112 0 186 70t109 175h176q-61 -194 -189 -289.5t-303 -95.5q-110 0 -198.5 52.5t-135.5 167.5q-61 147 -43 362h-164z" />
<glyph unicode="&#x2122;" horiz-adv-x="2007" d="M238 1350l20 116h676l-21 -116h-264l-127 -717h-145l127 717h-266zM934 633l147 833h213l136 -587l352 587h209l-148 -833h-129l127 717l-416 -717h-77l-156 717l-127 -717h-131z" />
<glyph unicode="&#xe000;" horiz-adv-x="1064" d="M0 0v1065h1065v-1065h-1065z" />
<glyph unicode="&#xfb01;" horiz-adv-x="1214" d="M49 0l23 129h178l143 817h-182l22 123h183q10 57 17.5 90.5t23 79.5t42 83.5t64.5 70.5q120 104 334 104q82 0 141 -12.5t105.5 -42.5t66.5 -86.5t13 -138.5h-193q3 74 -39.5 109.5t-120.5 35.5q-138 0 -213 -84q-41 -46 -71 -186l-4 -23h632l-165 -940h174l-23 -129 h-504l23 129h164l143 817h-467l-143 -817h164l-23 -129h-508z" />
<glyph unicode="&#xfb02;" horiz-adv-x="1214" d="M49 0l23 129h178l143 817h-182l22 123h183q38 232 158.5 330t355.5 98q194 0 297 -24q14 -3 32 -6.5t20 -6.5t-1 -19q-1 -4 -2 -7l-229 -1305h172l-23 -129h-504l23 129h166l213 1212q-56 11 -195 11q-148 0 -217.5 -64t-97.5 -219h225l-23 -123h-227l-143 -817h164 l-23 -129h-508z" />
</font>
</defs>
</svg>
