<?xml version="1.0" standalone="no"?>
<!DOCTYPE svg PUBLIC "-//W3C//DTD SVG 1.1//EN" "http://www.w3.org/Graphics/SVG/1.1/DTD/svg11.dtd" >
<svg xmlns="http://www.w3.org/2000/svg">
<metadata></metadata>
<defs>
<font id="GlyphaLTStdLightRegular" horiz-adv-x="1024" >
<font-face units-per-em="2048" ascent="1466" descent="-582" />
<missing-glyph horiz-adv-x="512" />
<glyph horiz-adv-x="0" />
<glyph horiz-adv-x="2048" />
<glyph unicode=" "  horiz-adv-x="512" />
<glyph unicode="&#x09;" horiz-adv-x="512" />
<glyph unicode="&#xa0;" horiz-adv-x="512" />
<glyph unicode="!" horiz-adv-x="679" d="M266 0v147h148v-147h-148zM266 1466h148l-31 -1151h-86z" />
<glyph unicode="&#x22;" horiz-adv-x="909" d="M260 1057v409h111v-409h-111zM539 1057v409h110v-409h-110z" />
<glyph unicode="#" d="M20 473v98h220l45 324h-207v98h219l65 473h99l-66 -473h303l64 473h98l-63 -473h207v-98h-222l-43 -324h207v-98h-221l-66 -473h-98l66 473h-301l-66 -473h-98l65 473h-207zM338 571h303l43 324h-301z" />
<glyph unicode="$" d="M72 0v504h98q6 -123 37.5 -215t99.5 -154.5t168 -73.5v646q-44 15 -66.5 22.5t-63 23.5t-63 28t-56 31.5t-52 38t-41 45t-34 55t-19.5 64.5t-8 77q0 184 109 291.5t294 107.5v182h74v-190q191 -33 270 -195h4v178h99v-495h-99q-9 377 -274 426v-598q52 -16 87.5 -28.5 t81.5 -32.5t76.5 -41t63 -51.5t51.5 -66t31 -83t12 -103.5q0 -115 -44.5 -207t-137 -150t-221.5 -61v-182h-74v182q-237 33 -301 230h-4v-205h-98zM195 1112q0 -61 21 -107.5t62.5 -79t86.5 -53.5t110 -43v576q-129 -3 -204.5 -86.5t-75.5 -206.5zM549 61q135 17 207.5 103 t72.5 229q0 59 -20.5 104.5t-60.5 78.5t-86.5 55.5t-112.5 44.5v-615z" />
<glyph unicode="%" horiz-adv-x="1593" d="M174 1102q0 56 6 106.5t23.5 103.5t45.5 91.5t75 63t108 24.5t108 -24.5t75 -63t45.5 -91.5t23.5 -103.5t6 -106.5q0 -72 -11 -134.5t-37.5 -123t-80 -96t-129.5 -35.5t-129.5 35.5t-80 96t-37.5 123t-11 134.5zM260 1102q0 -161 46 -238.5t126 -77.5q81 0 126.5 77 t45.5 239q0 160 -45.5 237.5t-126.5 77.5q-80 0 -126 -77.5t-46 -237.5zM383 -25l739 1516h86l-739 -1516h-86zM903 365q0 56 6 106.5t23.5 103.5t45.5 91.5t75 63t108 24.5t108 -24.5t75 -63t45.5 -91.5t23.5 -103.5t6 -106.5q0 -57 -6 -107.5t-23.5 -104t-45.5 -91.5 t-75 -62.5t-108 -24.5t-108 24.5t-75 62.5t-45.5 91.5t-23.5 104t-6 107.5zM989 365q0 -161 46 -238.5t126 -77.5q81 0 126.5 77t45.5 239q0 160 -45.5 237.5t-126.5 77.5q-80 0 -126 -77.5t-46 -237.5z" />
<glyph unicode="&#x26;" horiz-adv-x="1517" d="M117 395q0 141 80.5 243.5t242.5 184.5q-113 133 -160 214t-47 155q0 129 88.5 214t243.5 85t243.5 -85t88.5 -214q0 -112 -76 -210t-221 -175l391 -451q48 64 76 183.5t31 232.5h-154v86h442v-86h-178q-31 -328 -149 -491l174 -195h203v-86h-287l-158 184 q-185 -209 -452 -209q-198 0 -310 115.5t-112 304.5zM240 395q0 -143 85 -238.5t226 -95.5q239 0 381 195l-432 496q-260 -136 -260 -357zM356 1192q0 -117 183 -322q131 80 189 157.5t58 164.5q0 101 -58.5 157t-158.5 56q-97 0 -155 -56t-58 -157z" />
<glyph unicode="'" horiz-adv-x="569" d="M229 1057v409h111v-409h-111z" />
<glyph unicode="(" horiz-adv-x="569" d="M147 590q0 211 80.5 466.5t216.5 461.5h99q-285 -447 -285 -928q0 -488 285 -930h-99q-136 202 -216.5 458t-80.5 472z" />
<glyph unicode=")" horiz-adv-x="569" d="M27 -340q284 440 284 928q0 484 -284 930h98q136 -206 216.5 -461.5t80.5 -468.5q0 -214 -80.5 -470t-216.5 -458h-98z" />
<glyph unicode="*" horiz-adv-x="831" d="M88 1159l37 117l260 -129l-25 319h111l-25 -319l261 129l36 -117l-278 -74l192 -227l-88 -72l-153 267l-154 -267l-88 72l193 227z" />
<glyph unicode="+" horiz-adv-x="1228" d="M96 463v110h463v463h111v-463h463v-110h-463v-463h-111v463h-463z" />
<glyph unicode="," horiz-adv-x="512" d="M154 -262l90 262h-62v147h148v-147l-90 -262h-86z" />
<glyph unicode="-" horiz-adv-x="757" d="M133 512v98h492v-98h-492z" />
<glyph unicode="." horiz-adv-x="512" d="M182 0v147h148v-147h-148z" />
<glyph unicode="/" horiz-adv-x="720" d="M29 -25l553 1516h110l-553 -1516h-110z" />
<glyph unicode="0" d="M78 717q0 175 25 311t66 222t98.5 141.5t118.5 77.5t130 22q95 0 171.5 -42t135.5 -129t91 -231.5t32 -338.5q0 -175 -25 -311.5t-66 -222t-98.5 -141.5t-118.5 -78t-130 -22q-95 0 -171.5 42.5t-135.5 129t-91 231.5t-32 339zM201 733q0 -185 22.5 -317.5t64.5 -209 t97 -111t127 -34.5q152 0 231.5 176.5t79.5 495.5q0 185 -22.5 317.5t-64.5 209t-97 111t-127 34.5q-152 0 -231.5 -176.5t-79.5 -495.5z" />
<glyph unicode="1" d="M209 1057v123q172 136 303 286h123v-1380h207v-86h-541v86h223v1270h-4q-41 -63 -139.5 -155t-171.5 -144z" />
<glyph unicode="2" d="M88 0v145q298 332 441.5 508t198 278t54.5 187q0 115 -69 195t-185 80q-137 0 -213 -92t-90 -246h-110q19 199 125 317.5t288 118.5q176 0 276.5 -106t100.5 -267q0 -102 -49 -195.5t-154 -217.5l-516 -607h639v234h111v-332h-848z" />
<glyph unicode="3" d="M104 408h123q0 -151 82 -242.5t203 -91.5q71 0 127 28t89.5 74.5t51 101t17.5 111.5q0 297 -351 307v99q100 1 170 28t104.5 73t49 94.5t14.5 105.5q0 125 -73.5 211t-198.5 86q-110 0 -184 -78.5t-90 -241.5h-123q8 183 112 300.5t279 117.5q187 0 294 -113.5 t107 -287.5q0 -130 -77 -229.5t-209 -117.5v-4q140 -17 219.5 -115t79.5 -239q0 -187 -112.5 -298.5t-301.5 -111.5q-60 0 -115.5 13.5t-108.5 46t-91.5 81t-62 123.5t-24.5 169z" />
<glyph unicode="4" d="M35 422v137l604 907h147v-958h203v-86h-203v-336h183v-86h-516v86h223v336h-641zM121 508h555v848h-4z" />
<glyph unicode="5" d="M127 389h111q9 -150 86.5 -232.5t203.5 -82.5q136 0 222 104t86 295q0 165 -78.5 266t-216.5 101q-105 0 -176 -54.5t-113 -175.5h-111l29 856h721v-98h-610l-29 -592h6q40 73 114 117.5t167 44.5q193 0 300 -125t107 -330q0 -108 -25 -198.5t-76 -160.5t-135.5 -109.5 t-195.5 -39.5q-73 0 -139.5 23.5t-123 70.5t-90.5 130t-34 190z" />
<glyph unicode="6" d="M90 598q0 455 125.5 674t345.5 219q167 0 263 -99.5t100 -279.5h-111q-5 131 -71 212t-175 81q-56 0 -105.5 -21t-97.5 -73t-82.5 -131.5t-56.5 -206t-24 -287.5h4q44 110 130 171t208 61q76 0 140.5 -26t110 -70t77.5 -102t47.5 -123t15.5 -132q0 -101 -27 -188.5 t-79 -155.5t-135.5 -107t-188.5 -39q-97 0 -170.5 36.5t-117.5 94t-72.5 142t-39.5 167.5t-14 183zM213 444q0 -178 86.5 -280.5t218.5 -102.5t218.5 102.5t86.5 280.5q0 179 -86.5 283t-218.5 104t-218.5 -104t-86.5 -283z" />
<glyph unicode="7" d="M78 1110v356h868v-110q-322 -704 -543 -1356h-122q216 602 555 1368h-648v-258h-110z" />
<glyph unicode="8" d="M100 381q0 141 76 244.5t213 130.5v4q-131 30 -198.5 126.5t-67.5 237.5q0 116 56.5 201.5t145 125.5t195.5 40q80 0 151 -24t126.5 -68.5t88 -115.5t32.5 -159q0 -143 -70.5 -238.5t-212.5 -125.5v-4q138 -27 213.5 -130t75.5 -245q0 -129 -56.5 -222.5t-148.5 -138.5 t-207 -45q-114 0 -206 45t-149 139t-57 222zM211 389q0 -147 78.5 -237.5t224.5 -90.5q143 0 221 91t78 237q0 144 -78 236t-221 92q-145 0 -224 -92t-79 -236zM233 1104q0 -82 30.5 -148.5t97 -109.5t159.5 -43t159.5 43t97 109.5t30.5 148.5q0 132 -76 216.5t-211 84.5 t-211 -84.5t-76 -216.5z" />
<glyph unicode="9" d="M90 1001q0 101 27 188.5t79 155.5t135.5 107t188.5 39q97 0 170.5 -36.5t117.5 -94t72.5 -142t39.5 -167.5t14 -183q0 -455 -125.5 -674t-345.5 -219q-167 0 -263 99.5t-100 279.5h111q5 -131 71 -212t175 -81q56 0 105.5 21t97.5 73t82.5 131.5t56.5 206t24 287.5h-4 q-44 -110 -130 -170.5t-208 -60.5q-94 0 -170 39t-123.5 104t-72.5 144.5t-25 164.5zM201 1022q0 -179 86.5 -283t218.5 -104t218.5 104t86.5 283q0 178 -86.5 280.5t-218.5 102.5t-218.5 -102.5t-86.5 -280.5z" />
<glyph unicode=":" horiz-adv-x="512" d="M182 0v147h148v-147h-148zM182 877v147h148v-147h-148z" />
<glyph unicode=";" horiz-adv-x="512" d="M154 -262l90 262h-62v147h148v-147l-90 -262h-86zM182 877v147h148v-147h-148z" />
<glyph unicode="&#x3c;" horiz-adv-x="1228" d="M96 463v110l1037 484v-111l-914 -428l914 -428v-110z" />
<glyph unicode="=" horiz-adv-x="1228" d="M96 264v111h1037v-111h-1037zM96 662v110h1037v-110h-1037z" />
<glyph unicode="&#x3e;" horiz-adv-x="1228" d="M96 -20v110l914 428l-914 428v111l1037 -484v-110z" />
<glyph unicode="?" d="M111 1106q9 188 114 286.5t267 98.5q189 0 295 -98.5t106 -272.5q0 -75 -21 -138t-54 -108t-73.5 -86t-80.5 -79t-73 -78.5t-54 -95t-21 -117.5v-105h-123v109q0 70 21 130t54 104t73.5 84.5t80.5 80t73 81.5t54 99t21 123q0 123 -72.5 202t-195.5 79q-70 0 -123 -24.5 t-84 -67.5t-46.5 -95t-15.5 -112h-122zM381 0v147h147v-147h-147z" />
<glyph unicode="@" horiz-adv-x="1638" d="M61 733q0 155 64 296t171 242t252.5 160.5t303.5 59.5q198 0 363.5 -80t263.5 -225t98 -324q0 -119 -47 -230t-118 -186.5t-155 -121t-159 -45.5q-64 0 -104 34t-46 101h-4q-128 -135 -280 -135q-116 0 -194.5 91t-78.5 224q0 103 37 207t100 187.5t155 135.5t194 52 q47 0 89 -16t78 -55.5t50 -96.5h4l47 131h123l-197 -588q-24 -74 -24 -119q0 -24 17 -39.5t52 -15.5q90 0 172 73.5t130 185.5t48 224q0 155 -83.5 278t-222 189t-304.5 66q-147 0 -275.5 -55t-217.5 -146.5t-140 -213t-51 -253.5q0 -130 53 -250t144 -208t220 -140.5 t273 -52.5q156 0 306 74t245 194h123q-65 -113 -172.5 -196.5t-236.5 -127t-265 -43.5q-222 0 -406.5 101.5t-289.5 275.5t-105 381zM502 600q0 -103 53.5 -163t142.5 -60q94 0 177 81.5t127.5 191.5t44.5 208q0 94 -47 156.5t-128 62.5q-65 0 -124.5 -30t-103.5 -79 t-76.5 -111t-49 -128.5t-16.5 -128.5z" />
<glyph unicode="A" horiz-adv-x="1478" d="M25 0v86h127l514 1380h147l514 -1380h127v-86h-457v86h207l-157 442h-615l-158 -442h207v-86h-456zM463 614h553l-275 754h-4z" />
<glyph unicode="B" horiz-adv-x="1253" d="M43 0v86h205v1294h-205v86h666q95 0 167 -23.5t113 -59t66.5 -84.5t34 -92.5t8.5 -90.5q0 -149 -73 -243.5t-204 -106.5v-4q70 -1 126.5 -27t90 -64.5t56 -87.5t31 -91.5t8.5 -81.5q0 -175 -117 -292.5t-283 -117.5h-690zM358 86h310q158 0 250 85t92 237q0 133 -80 217 t-228 84h-344v-623zM358 795h332q125 0 205 83.5t80 211.5q0 127 -65.5 208.5t-190.5 81.5h-361v-585z" />
<glyph unicode="C" horiz-adv-x="1366" d="M102 733q0 156 40 291t117 240.5t201 166t281 60.5q148 0 253 -64t155 -182h4v221h98v-514h-98q-6 202 -120 321.5t-302 119.5q-106 0 -197 -42t-160.5 -122t-109 -207t-39.5 -287q0 -161 39.5 -289t109 -208t160.5 -122t197 -42q359 0 410 415h123q-24 -242 -159.5 -378 t-363.5 -136q-157 0 -281 60.5t-201 166t-117 240.5t-40 291z" />
<glyph unicode="D" horiz-adv-x="1402" d="M43 0v86h205v1294h-205v86h578q324 0 501.5 -200t177.5 -533t-177.5 -533t-501.5 -200h-578zM358 86h250q259 0 414.5 180.5t155.5 466.5t-155.5 466.5t-414.5 180.5h-250v-1294z" />
<glyph unicode="E" horiz-adv-x="1253" d="M43 0v86h205v1294h-205v86h1073v-432h-98v346h-660v-585h359v239h98v-579h-98v254h-359v-623h670v369h98v-455h-1083z" />
<glyph unicode="F" horiz-adv-x="1138" d="M43 0v86h205v1294h-205v86h1040v-446h-98v360h-627v-616h347v242h98v-572h-98v244h-347v-592h250v-86h-565z" />
<glyph unicode="G" horiz-adv-x="1478" d="M102 733q0 124 25 235.5t77.5 207.5t128.5 166t184.5 109.5t238.5 39.5q151 0 256 -64t155 -182h4v221h99v-514h-99q-6 202 -120.5 321.5t-305.5 119.5q-111 0 -205 -42t-164.5 -122t-110.5 -207t-40 -287q0 -161 39.5 -289t109 -208t160.5 -122t197 -42q201 0 318.5 125 t117.5 329v103h-241v86h522v-86h-170v-631h-111v236h-6q-23 -75 -91.5 -136t-155.5 -93t-173 -32q-157 0 -281 60.5t-201 166t-117 240.5t-40 291z" />
<glyph unicode="H" horiz-adv-x="1478" d="M43 0v86h205v1294h-205v86h520v-86h-205v-585h762v585h-205v86h521v-86h-205v-1294h205v-86h-521v86h205v610h-762v-610h205v-86h-520z" />
<glyph unicode="I" horiz-adv-x="606" d="M43 0v86h205v1294h-205v86h520v-86h-205v-1294h205v-86h-520z" />
<glyph unicode="J" horiz-adv-x="909" d="M43 393v58h123v-54q0 -323 225 -323q116 0 176 76t60 243v987h-205v86h465v-86h-150v-1034q0 -95 -27.5 -168t-75 -116.5t-107 -65t-128.5 -21.5q-356 0 -356 418z" />
<glyph unicode="K" horiz-adv-x="1251" d="M43 0v86h205v1294h-205v86h520v-86h-205v-598l607 598h-181v86h418v-86h-98l-610 -602l618 -692h107v-86h-418v86h176l-619 688v-688h205v-86h-520z" />
<glyph unicode="L" horiz-adv-x="1138" d="M43 0v86h205v1294h-205v86h569v-86h-254v-1294h605v385h98v-471h-1018z" />
<glyph unicode="M" horiz-adv-x="1818" d="M49 0v86h209v1294h-209v86h410l448 -1300h4l449 1300h409v-86h-208v-1294h208v-86h-501v86h182v1294h-10l-482 -1380h-98l-481 1380h-10v-1294h182v-86h-502z" />
<glyph unicode="N" horiz-adv-x="1478" d="M43 0v86h205v1294h-205v86h395l719 -1343h4v1257h-205v86h492v-86h-176v-1380h-166l-739 1380h-9v-1294h205v-86h-520z" />
<glyph unicode="O" horiz-adv-x="1478" d="M102 733q0 124 24.5 235.5t76 207.5t126 166t179.5 109.5t231 39.5t231 -39.5t179.5 -109.5t126 -166t76 -207.5t24.5 -235.5t-24.5 -235.5t-76 -207.5t-126 -166t-179.5 -109.5t-231 -39.5t-231 39.5t-179.5 109.5t-126 166t-76 207.5t-24.5 235.5zM225 733 q0 -168 38.5 -298t108 -211t162.5 -122t205 -41t205 41t162.5 122t108 211t38.5 298t-38.5 298t-108 211t-162.5 122t-205 41t-205 -41t-162.5 -122t-108 -211t-38.5 -298z" />
<glyph unicode="P" horiz-adv-x="1138" d="M43 0v86h205v1294h-205v86h623q198 0 314 -111.5t116 -293.5q0 -206 -115 -318t-348 -112h-275v-545h246v-86h-561zM358 717h279q163 0 249.5 86.5t86.5 253.5q0 155 -88 239t-262 84h-265v-663z" />
<glyph unicode="Q" horiz-adv-x="1478" d="M102 733q0 124 24.5 235.5t76 207.5t126 166t179.5 109.5t231 39.5t231 -39.5t179.5 -109.5t126 -166t76 -207.5t24.5 -235.5q0 -209 -70.5 -378t-207.5 -265v-4h356v-86h-534q-84 -25 -181 -25q-126 0 -231 39.5t-179.5 109.5t-126 166t-76 207.5t-24.5 235.5zM225 733 q0 -168 38.5 -298t108 -211t162.5 -122t205 -41t205 41t162.5 122t108 211t38.5 298t-38.5 298t-108 211t-162.5 122t-205 41t-205 -41t-162.5 -122t-108 -211t-38.5 -298z" />
<glyph unicode="R" horiz-adv-x="1290" d="M43 0v86h205v1294h-205v86h619q217 0 316 -102.5t99 -302.5q0 -137 -79.5 -234t-198.5 -112v-4q86 -18 130.5 -86t86.5 -217l90 -322h147v-86h-243l-62 246q-24 95 -42.5 157t-41.5 113.5t-45.5 80t-54.5 48.5t-69 26.5t-89 6.5h-248v-592h205v-86h-520zM358 764h271 q75 0 133.5 19t93.5 49t58 70t31.5 78t8.5 77q0 159 -81 241t-263 82h-252v-616z" />
<glyph unicode="S" horiz-adv-x="1064" d="M102 0v504h99q5 -97 26.5 -175.5t61.5 -139.5t104.5 -94.5t149.5 -33.5q148 0 232.5 88t84.5 244q0 81 -42 139.5t-108.5 92.5t-147.5 61.5t-162 58t-147.5 70.5t-108.5 110t-42 167q0 184 109 291.5t291 107.5q129 0 217 -56.5t131 -146.5h4v178h98v-495h-98 q-6 210 -92 322t-248 112q-133 0 -211 -84t-78 -211q0 -66 26 -116t70 -82t100.5 -56.5t119.5 -44.5t126 -41.5t119.5 -52.5t100.5 -72t70 -106t26 -148q0 -115 -45 -208t-137.5 -150.5t-218.5 -57.5q-302 0 -377 230h-4v-205h-99z" />
<glyph unicode="T" horiz-adv-x="1253" d="M66 1012v454h1122v-454h-98v356h-408v-1282h242v-86h-594v86h241v1282h-407v-356h-98z" />
<glyph unicode="U" horiz-adv-x="1363" d="M25 1380v86h487v-86h-221v-856q0 -232 106 -347.5t285 -115.5t285 115.5t106 347.5v856h-221v86h487v-86h-155v-854q0 -255 -128 -403t-374 -148q-133 0 -230.5 39t-156.5 113t-87 173t-28 226v854h-155z" />
<glyph unicode="V" horiz-adv-x="1363" d="M-6 1380v86h471v-86h-219l434 -1257h4l434 1257h-219v86h471v-86h-129l-491 -1380h-136l-491 1380h-129z" />
<glyph unicode="W" horiz-adv-x="1855" d="M2 1380v86h459v-86h-230l275 -1257h4l336 1343h164l336 -1343h4l274 1257h-217v86h446v-86h-118l-310 -1380h-153l-342 1356h-4l-342 -1356h-154l-309 1380h-119z" />
<glyph unicode="X" horiz-adv-x="1402" d="M2 0v86h135l481 684l-430 610h-147v86h471v-86h-188l368 -526l369 526h-189v86h459v-86h-147l-430 -610l477 -684h135v-86h-494v86h224l-418 598l-418 -598h225v-86h-483z" />
<glyph unicode="Y" horiz-adv-x="1253" d="M6 1380v86h459v-86h-215l377 -657l377 657h-195v86h438v-86h-121l-444 -768v-526h242v-86h-594v86h241v526l-444 768h-121z" />
<glyph unicode="Z" horiz-adv-x="1175" d="M66 0v123l903 1257h-781v-346h-98v432h977v-123l-903 -1257h823v369h98v-455h-1019z" />
<glyph unicode="[" horiz-adv-x="569" d="M195 -340v1858h268v-86h-158v-1686h158v-86h-268z" />
<glyph unicode="\" horiz-adv-x="720" d="M29 1491h110l553 -1516h-110z" />
<glyph unicode="]" horiz-adv-x="569" d="M106 -254h158v1686h-158v86h269v-1858h-269v86z" />
<glyph unicode="^" horiz-adv-x="1228" d="M190 719l381 747h86l381 -747h-110l-314 612l-313 -612h-111z" />
<glyph unicode="_" d="M0 -154h1024v-102h-1024v102z" />
<glyph unicode="`" horiz-adv-x="528" d="M51 1491h164l180 -274h-110z" />
<glyph unicode="a" d="M78 287q0 344 438 344h223v78q0 290 -254 290q-119 0 -186.5 -68t-73.5 -179h-110q7 162 107 247.5t259 85.5q104 0 178 -26.5t114.5 -76.5t58.5 -111t18 -140v-645h141v-86h-239v215h-4q-47 -133 -133.5 -188.5t-215.5 -55.5q-147 0 -234 84.5t-87 231.5zM188 281 q0 -100 64.5 -162t171.5 -62q80 0 142.5 36t99 96.5t55 133.5t18.5 154v62q-15 0 -86.5 3t-107.5 3q-187 0 -272 -65t-85 -199z" />
<glyph unicode="b" horiz-adv-x="1138" d="M41 0v86h141v1294h-141v86h252v-587h4q105 206 346 206q131 0 226.5 -72t143.5 -197t48 -288q0 -129 -27.5 -230.5t-70 -161t-100 -98.5t-111 -53t-109.5 -14q-124 0 -203 47t-143 162h-4v-180h-252zM281 547q0 -77 10.5 -146t35 -132.5t61 -110t93 -74t127.5 -27.5 q110 0 188.5 64.5t116 169t37.5 237.5t-37.5 237.5t-116 169t-188.5 64.5q-45 0 -88.5 -13t-87.5 -45.5t-77 -82t-53.5 -130t-20.5 -181.5z" />
<glyph unicode="c" d="M111 528q0 166 47.5 289t151 195.5t253.5 72.5q101 0 183.5 -53.5t109.5 -144.5h4v170h86v-391h-86q-29 333 -297 333q-110 0 -188.5 -64.5t-116 -169t-37.5 -237.5t37.5 -237.5t116 -169t188.5 -64.5q116 0 189.5 70.5t95.5 200.5h98q-12 -162 -118 -259.5t-265 -97.5 q-150 0 -253.5 72.5t-151 195.5t-47.5 289z" />
<glyph unicode="d" horiz-adv-x="1138" d="M78 528q0 163 48 288t143.5 197t226.5 72q241 0 346 -206h4v501h-176v86h286v-1380h142v-86h-252v180h-4q-64 -115 -143 -162t-203 -47q-56 0 -109.5 14t-111 53t-100 98.5t-70 161t-27.5 230.5zM188 528q0 -133 37.5 -237.5t116 -169t188.5 -64.5q88 0 153.5 41 t102.5 112.5t54.5 155.5t17.5 181q0 101 -21 181.5t-54 130t-77 82t-87.5 45.5t-88.5 13q-110 0 -188.5 -64.5t-116 -169t-37.5 -237.5z" />
<glyph unicode="e" d="M78 528q0 166 47.5 289t151 195.5t253.5 72.5q112 0 197 -47.5t134 -130.5t73 -183t24 -216h-770q3 -208 93 -329.5t249 -121.5q125 0 206.5 62t103.5 196h98q-29 -170 -136 -257t-272 -87q-150 0 -253.5 72.5t-151 195.5t-47.5 289zM188 594h660q-5 191 -90.5 298 t-241.5 107q-137 0 -225 -111t-103 -294z" />
<glyph unicode="f" horiz-adv-x="569" d="M41 0v86h164v885h-164v86h164v88q0 346 289 346q22 0 120 -10v-86q-82 10 -102 10q-100 0 -148.5 -55t-48.5 -185v-108h217v-86h-217v-885h189v-86h-463z" />
<glyph unicode="g" horiz-adv-x="1138" d="M78 543q0 149 46.5 270t143.5 196.5t230 75.5q120 0 212.5 -58.5t131.5 -168.5h4v199h264v-86h-154v-920q0 -215 -108.5 -317.5t-327.5 -102.5q-75 0 -139 14t-119.5 44.5t-89 86.5t-37.5 132h111q19 -107 90.5 -149t189.5 -42q172 0 246 86.5t74 305.5v131h-4 q-36 -118 -127 -179t-217 -61q-133 0 -230 76t-143.5 197t-46.5 270zM188 535q0 -82 20.5 -159.5t60.5 -143.5t107 -106t152 -40q77 0 139 40t100 105.5t58.5 144t20.5 159.5q0 210 -87.5 337t-236.5 127q-155 0 -244.5 -126.5t-89.5 -337.5z" />
<glyph unicode="h" horiz-adv-x="1138" d="M41 0v86h164v1294h-164v86h274v-575h4q84 194 310 194q166 0 241.5 -95t75.5 -296v-608h152v-86h-439v86h177v608q0 156 -60 230.5t-182 74.5q-125 0 -202 -107.5t-77 -289.5v-516h164v-86h-438z" />
<glyph unicode="i" horiz-adv-x="530" d="M29 0v86h176v885h-176v86h286v-971h164v-86h-450zM193 1278v147h135v-147h-135z" />
<glyph unicode="j" horiz-adv-x="491" d="M-4 -268q47 -15 76 -15q81 0 107 42.5t26 144.5v1067h-176v86h286v-1192q0 -122 -51.5 -178t-183.5 -56q-46 0 -84 15v86zM193 1278v147h135v-147h-135z" />
<glyph unicode="k" d="M41 0v86h164v1294h-164v86h274v-954l447 459h-139v86h368v-86h-119l-297 -305l328 -580h107v-86h-348v86h131l-289 504l-189 -195v-309h164v-86h-438z" />
<glyph unicode="l" horiz-adv-x="491" d="M29 0v86h176v1294h-176v86h286v-1380h164v-86h-450z" />
<glyph unicode="m" horiz-adv-x="1708" d="M41 0v86h164v885h-164v86h274v-172h4q32 89 109.5 144.5t183.5 55.5q119 0 190 -61t93 -156h4q33 101 111.5 159t189.5 58q148 0 232 -91t84 -255v-653h151v-86h-438v86h176v629q0 140 -61 212t-175 72q-104 0 -179 -92t-75 -241v-580h152v-86h-438v86h176v608 q0 154 -57.5 229.5t-147.5 75.5q-127 0 -206 -97t-79 -273v-543h164v-86h-438z" />
<glyph unicode="n" horiz-adv-x="1138" d="M41 0v86h164v885h-164v86h274v-166h4q84 194 310 194q166 0 241.5 -95t75.5 -296v-608h152v-86h-439v86h177v608q0 156 -60 230.5t-182 74.5q-125 0 -202 -107.5t-77 -289.5v-516h164v-86h-438z" />
<glyph unicode="o" horiz-adv-x="1060" d="M78 528q0 162 54 287.5t157 197.5t241 72q150 0 253.5 -72.5t151.5 -195.5t48 -289q0 -162 -54 -288t-157.5 -197.5t-241.5 -71.5t-241 72t-157 197.5t-54 287.5zM188 528q0 -133 37.5 -237.5t116 -169t188.5 -64.5q147 0 244.5 126.5t97.5 344.5q0 133 -37.5 237.5 t-116 169t-188.5 64.5q-147 0 -244.5 -126.5t-97.5 -344.5z" />
<glyph unicode="p" horiz-adv-x="1138" d="M20 -254h162v1225h-162v86h273v-197h4q64 124 143 174.5t203 50.5q56 0 109.5 -14t111 -53t100 -98.5t70 -161t27.5 -230.5q0 -163 -48 -288t-143.5 -197t-226.5 -72q-240 0 -346 207h-4v-432h168v-86h-441v86zM281 510q0 -101 20.5 -181.5t53.5 -130.5t77 -82.5 t87.5 -45.5t88.5 -13q110 0 188.5 64.5t116 169t37.5 237.5t-37.5 237.5t-116 169t-188.5 64.5q-88 0 -153.5 -41t-102 -112t-54 -155t-17.5 -181z" />
<glyph unicode="q" horiz-adv-x="1138" d="M78 528q0 129 27.5 230.5t70 161t100 98.5t111 53t109.5 14q124 0 203 -50.5t143 -174.5h4v197h272v-86h-162v-1225h162v-86h-440v86h168v432h-4q-106 -207 -346 -207q-131 0 -226.5 72t-143.5 197t-48 288zM188 528q0 -133 37.5 -237.5t116 -169t188.5 -64.5 q45 0 88.5 13t87.5 45.5t77 82.5t54 130.5t21 181.5q0 97 -17.5 181t-54.5 155t-102.5 112t-153.5 41q-110 0 -188.5 -64.5t-116 -169t-37.5 -237.5z" />
<glyph unicode="r" horiz-adv-x="681" d="M41 0v86h164v885h-164v86h274v-189h4q32 104 106.5 160.5t170.5 56.5q39 0 57 -6v-98q-15 6 -49 6q-141 0 -215 -105.5t-74 -279.5v-516h201v-86h-475z" />
<glyph unicode="s" horiz-adv-x="909" d="M86 0v371h86q6 -153 83 -233.5t200 -80.5q119 0 188.5 61t69.5 169q0 94 -49 134.5t-179 61.5l-133 21q-256 39 -256 252q0 153 99.5 241t240.5 88q209 0 281 -153h4v125h86v-363h-86v58q0 117 -74.5 182t-193.5 65q-113 0 -179.5 -63.5t-66.5 -165.5q0 -141 186 -170 l154 -25q145 -23 210.5 -90t65.5 -188q0 -160 -96.5 -243t-267.5 -83q-215 0 -285 170h-2v-141h-86z" />
<glyph unicode="t" horiz-adv-x="681" d="M16 971v86h189v225l110 41v-266h285v-86h-285v-740q0 -90 30 -132t75 -42q127 0 127 203v23h86v-39q0 -123 -59.5 -198t-163.5 -75q-106 0 -155.5 59t-49.5 177v764h-189z" />
<glyph unicode="u" horiz-adv-x="1138" d="M41 971v86h262v-695q0 -156 60 -230.5t182 -74.5t200 104t78 281v529h-164v86h275v-971h164v-86h-275v172h-4q-41 -95 -122 -148t-187 -53q-166 0 -241.5 95t-75.5 296v609h-152z" />
<glyph unicode="v" d="M25 971v86h352v-86h-150l283 -848h4l283 848h-150v86h352v-86h-92l-332 -971h-135l-323 971h-92z" />
<glyph unicode="w" horiz-adv-x="1630" d="M33 971v86h368v-86h-163l247 -848h4l252 934h148l252 -934h4l248 848h-148v86h352v-86h-94l-284 -971h-148l-254 946h-4l-254 -946h-147l-285 971h-94z" />
<glyph unicode="x" horiz-adv-x="1060" d="M33 0v86h92l338 459l-311 426h-91v86h361v-86h-148l256 -353l261 353h-132v86h361v-86h-107l-315 -426l338 -459h92v-86h-360v86h145l-283 385l-282 -385h145v-86h-360z" />
<glyph unicode="y" d="M25 971v86h360v-86h-154l291 -811h4l291 811h-153v86h335v-86h-71l-410 -1121q-47 -127 -103.5 -173t-138.5 -46q-59 0 -100 13v86q32 -13 84 -13q44 0 71.5 18.5t59.5 78t78 186.5l-348 971h-96z" />
<glyph unicode="z" horiz-adv-x="948" d="M102 0v104l625 867h-520v-209h-98v295h729v-105l-625 -866h535v242h98v-328h-744z" />
<glyph unicode="{" horiz-adv-x="569" d="M72 545v86q52 0 87 43t49.5 107.5t14.5 146.5v340q0 114 52.5 182t138.5 68h104v-86h-98q-42 0 -64 -56t-22 -139v-344q1 -72 -17.5 -132t-46 -94.5t-50 -53t-38.5 -23.5v-4q16 -5 38.5 -23.5t50 -52.5t46 -94.5t17.5 -134.5v-340q0 -81 22 -138t64 -57h98v-86h-104 q-86 0 -138.5 68t-52.5 182v336q0 83 -14.5 148t-49.5 108t-87 43z" />
<glyph unicode="|" horiz-adv-x="454" d="M172 -512v2048h111v-2048h-111z" />
<glyph unicode="}" horiz-adv-x="569" d="M51 -254h99q42 0 64 57t22 138v340q-1 74 17.5 134.5t45.5 94.5t49.5 52.5t38.5 23.5v4q-16 5 -38.5 23.5t-49.5 53t-45.5 94.5t-17.5 132v344q0 83 -22 139t-64 56h-99v86h105q85 0 137.5 -67.5t52.5 -182.5v-340q0 -82 14.5 -146.5t50 -107.5t87.5 -43v-86 q-77 0 -114.5 -85t-37.5 -214v-336q0 -115 -52.5 -182.5t-137.5 -67.5h-105v86z" />
<glyph unicode="~" horiz-adv-x="1228" d="M141 463q89 172 256 172q91 0 238 -66q53 -25 77 -35.5t61 -22t61 -11.5q90 0 180 145l73 -65q-105 -179 -256 -179q-55 0 -114.5 21.5t-104 46.5t-106 46.5t-119.5 21.5q-49 0 -95.5 -37.5t-76.5 -108.5z" />
<glyph unicode="&#xa1;" horiz-adv-x="679" d="M266 -344l31 1151h86l31 -1151h-148zM266 975v147h148v-147h-148z" />
<glyph unicode="&#xa2;" d="M111 528q0 238 101.5 387.5t301.5 169.5v175h74v-175q99 -11 171.5 -63t96.5 -135h4v170h86v-391h-86q-13 159 -81 240t-191 93v-938q109 9 174 78t86 189h98q-12 -155 -108.5 -249.5t-249.5 -103.5v-178h-74v178q-200 17 -301.5 166t-101.5 387zM221 528q0 -188 76 -317 t217 -150v938q-141 -24 -217 -153.5t-76 -317.5z" />
<glyph unicode="&#xa3;" d="M55 0v86h174v696h-174v86h174v195q0 126 36.5 219.5t120.5 151t210 57.5q166 0 255.5 -87.5t94.5 -248.5h-110q-3 250 -244 250q-130 0 -191 -91t-61 -278v-168h256v-86h-256v-696h496v231h110v-317h-891z" />
<glyph unicode="&#xa4;" d="M45 338l105 104q-105 127 -105 291q0 163 105 293l-105 102l72 72l104 -102q127 102 291 102q161 0 291 -102l104 102l72 -72l-102 -102q102 -130 102 -293q0 -167 -105 -291l105 -104l-72 -72l-104 105q-121 -105 -291 -105q-167 0 -291 105l-104 -105zM156 733 q0 -165 99 -266.5t257 -101.5t257 101.5t99 266.5t-99 267t-257 102t-257 -102t-99 -267z" />
<glyph unicode="&#xa5;" d="M4 1380v86h375v-86h-176l297 -626h24l297 626h-159v86h358v-86h-100l-297 -626h251v-86h-290l-23 -56v-133h313v-86h-313v-307h193v-86h-484v86h193v307h-313v86h313v133l-21 56h-292v86h251l-297 626h-100z" />
<glyph unicode="&#xa6;" horiz-adv-x="454" d="M172 -358v716h111v-716h-111zM172 666v716h111v-716h-111z" />
<glyph unicode="&#xa7;" d="M135 659q0 54 19.5 106.5t66 100t113.5 64.5q-182 92 -182 268q0 114 96.5 203.5t240.5 89.5q370 0 381 -365h-110q-19 267 -262 267q-111 0 -173.5 -56.5t-62.5 -144.5q0 -57 34.5 -101.5t90 -74t122 -56t133.5 -55t122.5 -63t90 -88.5t34.5 -123q0 -89 -46 -162 t-138 -111q167 -88 167 -272q0 -145 -102.5 -226t-259.5 -81q-169 0 -268 86.5t-99 269.5h111q1 -128 69 -193t183 -65q40 0 81 10.5t82 33t67 67t26 104.5q0 54 -27 96t-71 67.5t-100.5 50t-115 42.5t-115 45.5t-100.5 59.5t-71 85t-27 121zM246 672q0 -39 11 -66.5t47 -62 t113 -71t201 -79.5q79 38 119.5 96t40.5 115t-26.5 95.5t-106 83.5t-237.5 104q-81 -27 -121.5 -88.5t-40.5 -126.5z" />
<glyph unicode="&#xa8;" horiz-adv-x="528" d="M8 1282v135h135v-135h-135zM385 1282v135h135v-135h-135z" />
<glyph unicode="&#xa9;" horiz-adv-x="1638" d="M61 733q0 154 60 294.5t161.5 242t242 161.5t294.5 60t294.5 -60t242 -161.5t161.5 -242t60 -294.5t-60 -294.5t-161.5 -242t-242 -161.5t-294.5 -60t-294.5 60t-242 161.5t-161.5 242t-60 294.5zM172 733q0 -137 51 -259.5t138 -210t206.5 -138.5t251.5 -51t251.5 51 t206.5 138.5t138 210t51 259.5q0 182 -86.5 334t-235 239t-325.5 87t-325.5 -87t-235 -239t-86.5 -334zM408 733q0 200 117 329.5t313 129.5q148 0 252 -81t124 -224h-116q-20 89 -89 148t-169 59q-149 0 -235.5 -103.5t-86.5 -255.5q0 -147 91 -255.5t235 -108.5 q100 0 169 61t85 152h116q-31 -142 -134 -227t-253 -85q-121 0 -217 61.5t-149 166.5t-53 233z" />
<glyph unicode="&#xaa;" horiz-adv-x="665" d="M45 1012q0 207 291 207h139v36q0 89 -43 132t-117 43q-73 0 -115.5 -41.5t-45.5 -108.5h-86q6 105 71.5 158t173.5 53q136 0 192 -57t56 -156v-377h92v-61h-166v129h-6q-28 -80 -82.5 -113t-138.5 -33q-100 0 -157.5 50t-57.5 139zM131 1004q0 -50 40.5 -84.5 t104.5 -34.5q95 0 147 71.5t52 159.5v41h-121q-116 0 -169.5 -38t-53.5 -115z" />
<glyph unicode="&#xab;" horiz-adv-x="909" d="M162 561l174 447h98l-174 -447l174 -446h-98zM475 561l174 447h99l-175 -447l175 -446h-99z" />
<glyph unicode="&#xac;" horiz-adv-x="1228" d="M96 662v110h1037v-551h-111v441h-926z" />
<glyph unicode="&#xad;" horiz-adv-x="757" d="M133 512v98h492v-98h-492z" />
<glyph unicode="&#xae;" horiz-adv-x="1638" d="M61 733q0 154 60 294.5t161.5 242t242 161.5t294.5 60t294.5 -60t242 -161.5t161.5 -242t60 -294.5t-60 -294.5t-161.5 -242t-242 -161.5t-294.5 -60t-294.5 60t-242 161.5t-161.5 242t-60 294.5zM172 733q0 -137 51 -259.5t138 -210t206.5 -138.5t251.5 -51t251.5 51 t206.5 138.5t138 210t51 259.5q0 182 -86.5 334t-235 239t-325.5 87t-325.5 -87t-235 -239t-86.5 -334zM537 287v891h337q304 0 304 -242q0 -111 -63 -173t-157 -77l246 -399h-110l-246 399h-213v-399h-98zM635 772h194q39 0 63.5 1.5t57 6t52.5 15t39.5 28t28.5 45.5t9 66 q0 47 -16 79.5t-46 49t-64 23t-79 6.5h-239v-320z" />
<glyph unicode="&#xaf;" horiz-adv-x="528" d="M0 1307v86h528v-86h-528z" />
<glyph unicode="&#xb0;" horiz-adv-x="819" d="M117 1198q0 122 85.5 207.5t207.5 85.5q121 0 206.5 -85.5t85.5 -207.5t-85.5 -207.5t-206.5 -85.5q-122 0 -207.5 85.5t-85.5 207.5zM203 1198q0 -86 60.5 -146.5t146.5 -60.5t146 60.5t60 146.5t-60 146.5t-146 60.5t-146.5 -60.5t-60.5 -146.5z" />
<glyph unicode="&#xb1;" horiz-adv-x="1228" d="M96 0v111h1037v-111h-1037zM96 555v111h463v370h111v-370h463v-111h-463v-371h-111v371h-463z" />
<glyph unicode="&#xb2;" horiz-adv-x="665" d="M43 596v102q194 196 290.5 303.5t131.5 165t35 101.5q0 58 -44 103.5t-112 45.5q-83 0 -131 -56.5t-51 -146.5h-99q11 135 76 206t205 71q125 0 189.5 -62.5t64.5 -160.5q0 -63 -31.5 -121t-99.5 -129l-338 -348h408v139h86v-213h-580z" />
<glyph unicode="&#xb3;" horiz-adv-x="665" d="M57 854h99q0 -89 52.5 -144t125.5 -55q82 0 129 55t47 119q0 176 -231 183v73q65 0 111.5 16t69.5 42.5t32.5 53t9.5 56.5q0 65 -47 114.5t-121 49.5q-67 0 -114 -47t-58 -145h-99q6 120 76 193t191 73q128 0 199 -68.5t71 -173.5q0 -78 -50 -136t-136 -64v-7 q90 -12 142 -70.5t52 -142.5q0 -114 -74 -180.5t-204 -66.5q-54 0 -100.5 14t-86 44t-62.5 84.5t-24 129.5z" />
<glyph unicode="&#xb4;" horiz-adv-x="528" d="M133 1217l180 274h164l-233 -274h-111z" />
<glyph unicode="&#xb5;" horiz-adv-x="1138" d="M41 971v86h262v-695q0 -156 60 -230.5t182 -74.5t200 104t78 281v529h-164v86h275v-971h164v-86h-275v172h-4q-41 -95 -120.5 -148t-176.5 -53q-65 0 -125 24.5t-90 72.5h-4v-408h-110v1311h-152z" />
<glyph unicode="&#xb6;" horiz-adv-x="1228" d="M158 1104q0 177 110 269.5t310 92.5h430v-1663h-111v1565h-240v-1565h-110v951q-167 0 -278 102t-111 248z" />
<glyph unicode="&#xb7;" horiz-adv-x="512" d="M182 598v147h148v-147h-148z" />
<glyph unicode="&#xb8;" horiz-adv-x="528" d="M41 -350l35 69q88 -45 155 -45q37 0 65 24.5t28 57.5q0 37 -32 56.5t-77 19.5q-28 0 -61 -10l-31 39l104 149h86l-77 -104q198 -3 198 -150q0 -70 -59 -112.5t-139 -42.5q-119 0 -195 49z" />
<glyph unicode="&#xb9;" horiz-adv-x="665" d="M117 1231v74q109 71 207 172h92v-820h133v-61h-363v61h144v734h-4q-39 -47 -77 -76t-132 -84z" />
<glyph unicode="&#xba;" horiz-adv-x="636" d="M16 1157q0 153 75 243.5t226 90.5q152 0 228 -90.5t76 -243.5t-76 -243.5t-228 -90.5q-151 0 -226 90.5t-75 243.5zM102 1157q0 -115 57 -193.5t158 -78.5q103 0 160.5 78.5t57.5 193.5t-57.5 194t-160.5 79q-101 0 -158 -79t-57 -194z" />
<glyph unicode="&#xbb;" horiz-adv-x="909" d="M162 115l174 446l-174 447h98l174 -447l-174 -446h-98zM475 115l174 446l-174 447h98l175 -447l-175 -446h-98z" />
<glyph unicode="&#xbc;" horiz-adv-x="1536" d="M100 1231v74q109 71 207 172h92v-820h133v-61h-362v61h143v734h-4q-39 -47 -77 -76t-132 -84zM240 -55l938 1577h86l-938 -1577h-86zM795 252v92l393 535h117v-566h131v-61h-131v-191h116v-61h-354v61h152v191h-424zM856 313h363v492h-5z" />
<glyph unicode="&#xbd;" horiz-adv-x="1536" d="M100 1231v74q109 71 207 172h92v-820h133v-61h-362v61h143v734h-4q-39 -47 -77 -76t-132 -84zM240 -55l938 1577h86l-938 -1577h-86zM918 0v102q194 196 290.5 304t131 165.5t34.5 102.5q0 58 -43.5 103.5t-111.5 45.5q-83 0 -131.5 -56t-51.5 -146h-98 q11 135 75.5 205.5t205.5 70.5q125 0 189.5 -62.5t64.5 -160.5q0 -65 -32 -123t-100 -129l-337 -348h407v139h86v-213h-579z" />
<glyph unicode="&#xbe;" horiz-adv-x="1536" d="M39 854h98q0 -89 52.5 -144t125.5 -55q82 0 129.5 55t47.5 119q0 176 -232 183v73q65 0 111.5 16t69.5 42.5t32.5 53t9.5 56.5q0 65 -47.5 114.5t-120.5 49.5q-67 0 -114 -47t-58 -145h-98q6 121 75.5 193.5t190.5 72.5q128 0 199.5 -68.5t71.5 -173.5 q0 -77 -50.5 -135.5t-136.5 -64.5v-7q91 -12 143 -71t52 -142q0 -114 -74.5 -180.5t-204.5 -66.5q-54 0 -100.5 14t-86 44t-62 84.5t-23.5 129.5zM303 -55l938 1577h86l-938 -1577h-86zM856 252v92l393 535h117v-566h131v-61h-131v-191h117v-61h-355v61h152v191h-424z M918 313h362v492h-4z" />
<glyph unicode="&#xbf;" d="M131 2q0 75 21 138t54 108.5t73 86t80.5 79t73.5 79t54 95t21 117.5v104h123v-109q0 -70 -21 -130t-54 -104t-73.5 -84.5t-80.5 -80t-73 -81.5t-54 -99t-21 -123q0 -123 72.5 -202t195.5 -79q70 0 123 24.5t84 67.5t46.5 95t15.5 112h122q-9 -188 -114 -286.5t-267 -98.5 q-189 0 -295 98.5t-106 272.5zM496 975v147h147v-147h-147z" />
<glyph unicode="&#xc0;" horiz-adv-x="1478" d="M25 0v86h127l514 1380h147l514 -1380h127v-86h-457v86h207l-157 442h-615l-158 -442h207v-86h-456zM463 614h553l-275 754h-4zM526 1819h164l180 -275h-110z" />
<glyph unicode="&#xc1;" horiz-adv-x="1478" d="M25 0v86h127l514 1380h147l514 -1380h127v-86h-457v86h207l-157 442h-615l-158 -442h207v-86h-456zM463 614h553l-275 754h-4zM608 1544l180 275h164l-233 -275h-111z" />
<glyph unicode="&#xc2;" horiz-adv-x="1478" d="M25 0v86h127l514 1380h147l514 -1380h127v-86h-457v86h207l-157 442h-615l-158 -442h207v-86h-456zM463 614h553l-275 754h-4zM469 1544l209 275h123l209 -275h-123l-148 201l-147 -201h-123z" />
<glyph unicode="&#xc3;" horiz-adv-x="1478" d="M25 0v86h127l514 1380h147l514 -1380h127v-86h-457v86h207l-157 442h-615l-158 -442h207v-86h-456zM442 1589q26 183 160 183q64 0 148 -43q94 -48 127 -48q61 0 86 80h73q-10 -90 -53.5 -134t-105.5 -44q-46 0 -135 45t-138 45q-34 0 -57.5 -22t-30.5 -62h-74zM463 614 h553l-275 754h-4z" />
<glyph unicode="&#xc4;" horiz-adv-x="1478" d="M25 0v86h127l514 1380h147l514 -1380h127v-86h-457v86h207l-157 442h-615l-158 -442h207v-86h-456zM463 614h553l-275 754h-4zM483 1610v135h135v-135h-135zM860 1610v135h135v-135h-135z" />
<glyph unicode="&#xc5;" horiz-adv-x="1478" d="M25 0v86h127l514 1380h147l514 -1380h127v-86h-457v86h207l-157 442h-615l-158 -442h207v-86h-456zM463 614h553l-275 754h-4zM555 1700q0 76 53.5 130t130.5 54t131 -54t54 -130t-54 -130t-131 -54t-130.5 54t-53.5 130zM629 1700q0 -46 32 -78.5t78 -32.5t78.5 32.5 t32.5 78.5t-32.5 78t-78.5 32t-78 -32t-32 -78z" />
<glyph unicode="&#xc6;" horiz-adv-x="1933" d="M25 0v86h84l710 1380h991v-432h-98v346h-702l86 -585h315v239h98v-561h-98v236h-303l88 -623h537v387h98v-473h-973v86h227l-61 442h-582l-223 -442h211v-86h-405zM481 614h531l-113 766h-18z" />
<glyph unicode="&#xc7;" horiz-adv-x="1366" d="M102 733q0 156 40 291t117 240.5t201 166t281 60.5q148 0 253 -64t155 -182h4v221h98v-514h-98q-6 202 -120 321.5t-302 119.5q-106 0 -197 -42t-160.5 -122t-109 -207t-39.5 -287q0 -161 39.5 -289t109 -208t160.5 -122t197 -42q359 0 410 415h123q-24 -235 -151 -370 t-343 -144l-53 -69q198 -3 198 -150q0 -70 -59 -112.5t-139 -42.5q-119 0 -195 49l35 69q88 -45 156 -45q37 0 64.5 24t27.5 58q0 37 -32 56.5t-77 19.5q-28 0 -61 -10l-31 39l82 119q-144 11 -257 75t-183.5 167t-107 233t-36.5 278z" />
<glyph unicode="&#xc8;" horiz-adv-x="1253" d="M43 0v86h205v1294h-205v86h1073v-432h-98v346h-660v-585h359v239h98v-579h-98v254h-359v-623h670v369h98v-455h-1083zM414 1819h164l180 -275h-111z" />
<glyph unicode="&#xc9;" horiz-adv-x="1253" d="M43 0v86h205v1294h-205v86h1073v-432h-98v346h-660v-585h359v239h98v-579h-98v254h-359v-623h670v369h98v-455h-1083zM496 1544l180 275h164l-234 -275h-110z" />
<glyph unicode="&#xca;" horiz-adv-x="1253" d="M43 0v86h205v1294h-205v86h1073v-432h-98v346h-660v-585h359v239h98v-579h-98v254h-359v-623h670v369h98v-455h-1083zM356 1544l209 275h123l209 -275h-123l-147 201l-148 -201h-123z" />
<glyph unicode="&#xcb;" horiz-adv-x="1253" d="M43 0v86h205v1294h-205v86h1073v-432h-98v346h-660v-585h359v239h98v-579h-98v254h-359v-623h670v369h98v-455h-1083zM371 1610v135h135v-135h-135zM748 1610v135h135v-135h-135z" />
<glyph unicode="&#xcc;" horiz-adv-x="606" d="M43 0v86h205v1294h-205v86h520v-86h-205v-1294h205v-86h-520zM102 1819h164l180 -275h-110z" />
<glyph unicode="&#xcd;" horiz-adv-x="606" d="M43 0v86h205v1294h-205v86h520v-86h-205v-1294h205v-86h-520zM184 1544l181 275h163l-233 -275h-111z" />
<glyph unicode="&#xce;" horiz-adv-x="606" d="M43 0v86h205v1294h-205v86h520v-86h-205v-1294h205v-86h-520zM45 1544l209 275h123l209 -275h-123l-148 201l-147 -201h-123z" />
<glyph unicode="&#xcf;" horiz-adv-x="606" d="M43 0v86h205v1294h-205v86h520v-86h-205v-1294h205v-86h-520zM59 1610v135h136v-135h-136zM436 1610v135h135v-135h-135z" />
<glyph unicode="&#xd0;" horiz-adv-x="1402" d="M43 0v86h205v668h-205v86h205v540h-205v86h578q324 0 501.5 -200t177.5 -533t-177.5 -533t-501.5 -200h-578zM358 86h250q259 0 414.5 180.5t155.5 466.5t-155.5 466.5t-414.5 180.5h-250v-540h385v-86h-385v-668z" />
<glyph unicode="&#xd1;" horiz-adv-x="1478" d="M43 0v86h205v1294h-205v86h395l719 -1343h4v1257h-205v86h492v-86h-176v-1380h-166l-739 1380h-9v-1294h205v-86h-520zM455 1589q13 94 52 138.5t107 44.5q64 0 148 -43q94 -48 127 -48q61 0 86 80h74q-10 -90 -54 -134t-106 -44q-46 0 -135 45t-138 45q-34 0 -57.5 -22 t-30.5 -62h-73z" />
<glyph unicode="&#xd2;" horiz-adv-x="1478" d="M102 733q0 124 24.5 235.5t76 207.5t126 166t179.5 109.5t231 39.5t231 -39.5t179.5 -109.5t126 -166t76 -207.5t24.5 -235.5t-24.5 -235.5t-76 -207.5t-126 -166t-179.5 -109.5t-231 -39.5t-231 39.5t-179.5 109.5t-126 166t-76 207.5t-24.5 235.5zM225 733 q0 -168 38.5 -298t108 -211t162.5 -122t205 -41t205 41t162.5 122t108 211t38.5 298t-38.5 298t-108 211t-162.5 122t-205 41t-205 -41t-162.5 -122t-108 -211t-38.5 -298zM563 1819h164l180 -275h-110z" />
<glyph unicode="&#xd3;" horiz-adv-x="1478" d="M102 733q0 124 24.5 235.5t76 207.5t126 166t179.5 109.5t231 39.5t231 -39.5t179.5 -109.5t126 -166t76 -207.5t24.5 -235.5t-24.5 -235.5t-76 -207.5t-126 -166t-179.5 -109.5t-231 -39.5t-231 39.5t-179.5 109.5t-126 166t-76 207.5t-24.5 235.5zM225 733 q0 -168 38.5 -298t108 -211t162.5 -122t205 -41t205 41t162.5 122t108 211t38.5 298t-38.5 298t-108 211t-162.5 122t-205 41t-205 -41t-162.5 -122t-108 -211t-38.5 -298zM645 1544l180 275h164l-233 -275h-111z" />
<glyph unicode="&#xd4;" horiz-adv-x="1478" d="M102 733q0 124 24.5 235.5t76 207.5t126 166t179.5 109.5t231 39.5t231 -39.5t179.5 -109.5t126 -166t76 -207.5t24.5 -235.5t-24.5 -235.5t-76 -207.5t-126 -166t-179.5 -109.5t-231 -39.5t-231 39.5t-179.5 109.5t-126 166t-76 207.5t-24.5 235.5zM225 733 q0 -168 38.5 -298t108 -211t162.5 -122t205 -41t205 41t162.5 122t108 211t38.5 298t-38.5 298t-108 211t-162.5 122t-205 41t-205 -41t-162.5 -122t-108 -211t-38.5 -298zM506 1544l209 275h123l209 -275h-123l-148 201l-147 -201h-123z" />
<glyph unicode="&#xd5;" horiz-adv-x="1478" d="M102 733q0 124 24.5 235.5t76 207.5t126 166t179.5 109.5t231 39.5t231 -39.5t179.5 -109.5t126 -166t76 -207.5t24.5 -235.5t-24.5 -235.5t-76 -207.5t-126 -166t-179.5 -109.5t-231 -39.5t-231 39.5t-179.5 109.5t-126 166t-76 207.5t-24.5 235.5zM225 733 q0 -168 38.5 -298t108 -211t162.5 -122t205 -41t205 41t162.5 122t108 211t38.5 298t-38.5 298t-108 211t-162.5 122t-205 41t-205 -41t-162.5 -122t-108 -211t-38.5 -298zM479 1589q26 183 160 183q63 0 147 -43q94 -48 127 -48q61 0 86 80h74q-10 -90 -54 -134t-106 -44 q-46 0 -134.5 45t-137.5 45q-34 0 -57.5 -22t-30.5 -62h-74z" />
<glyph unicode="&#xd6;" horiz-adv-x="1478" d="M102 733q0 124 24.5 235.5t76 207.5t126 166t179.5 109.5t231 39.5t231 -39.5t179.5 -109.5t126 -166t76 -207.5t24.5 -235.5t-24.5 -235.5t-76 -207.5t-126 -166t-179.5 -109.5t-231 -39.5t-231 39.5t-179.5 109.5t-126 166t-76 207.5t-24.5 235.5zM225 733 q0 -168 38.5 -298t108 -211t162.5 -122t205 -41t205 41t162.5 122t108 211t38.5 298t-38.5 298t-108 211t-162.5 122t-205 41t-205 -41t-162.5 -122t-108 -211t-38.5 -298zM520 1610v135h135v-135h-135zM897 1610v135h135v-135h-135z" />
<glyph unicode="&#xd7;" horiz-adv-x="1228" d="M152 129l389 389l-389 389l73 74l389 -389l390 389l73 -74l-389 -389l389 -389l-73 -74l-390 389l-389 -389z" />
<glyph unicode="&#xd8;" horiz-adv-x="1478" d="M102 733q0 124 24.5 235.5t76 207.5t126 166t179.5 109.5t231 39.5q263 0 426 -166l144 184l55 -39l-154 -196q166 -208 166 -541q0 -124 -24.5 -235.5t-76 -207.5t-126 -166t-179.5 -109.5t-231 -39.5q-260 0 -426 166l-143 -184l-55 39l153 197q-166 204 -166 540z M225 733q0 -289 111 -457l766 969q-132 160 -363 160q-112 0 -205 -41t-162.5 -122t-108 -211t-38.5 -298zM377 221q132 -160 362 -160q112 0 205 41t162.5 122t108 211t38.5 298q0 293 -110 455z" />
<glyph unicode="&#xd9;" horiz-adv-x="1363" d="M25 1380v86h487v-86h-221v-856q0 -232 106 -347.5t285 -115.5t285 115.5t106 347.5v856h-221v86h487v-86h-155v-854q0 -255 -128 -403t-374 -148q-133 0 -230.5 39t-156.5 113t-87 173t-28 226v854h-155zM481 1819h164l180 -275h-110z" />
<glyph unicode="&#xda;" horiz-adv-x="1363" d="M25 1380v86h487v-86h-221v-856q0 -232 106 -347.5t285 -115.5t285 115.5t106 347.5v856h-221v86h487v-86h-155v-854q0 -255 -128 -403t-374 -148q-133 0 -230.5 39t-156.5 113t-87 173t-28 226v854h-155zM563 1544l180 275h164l-233 -275h-111z" />
<glyph unicode="&#xdb;" horiz-adv-x="1363" d="M25 1380v86h487v-86h-221v-856q0 -232 106 -347.5t285 -115.5t285 115.5t106 347.5v856h-221v86h487v-86h-155v-854q0 -255 -128 -403t-374 -148q-133 0 -230.5 39t-156.5 113t-87 173t-28 226v854h-155zM424 1544l209 275h123l209 -275h-123l-148 201l-147 -201h-123z " />
<glyph unicode="&#xdc;" horiz-adv-x="1363" d="M25 1380v86h487v-86h-221v-856q0 -232 106 -347.5t285 -115.5t285 115.5t106 347.5v856h-221v86h487v-86h-155v-854q0 -255 -128 -403t-374 -148q-133 0 -230.5 39t-156.5 113t-87 173t-28 226v854h-155zM438 1610v135h135v-135h-135zM815 1610v135h135v-135h-135z" />
<glyph unicode="&#xdd;" horiz-adv-x="1253" d="M6 1380v86h459v-86h-215l377 -657l377 657h-195v86h438v-86h-121l-444 -768v-526h242v-86h-594v86h241v526l-444 768h-121zM532 1544l181 275h164l-234 -275h-111z" />
<glyph unicode="&#xde;" horiz-adv-x="1138" d="M43 0v86h205v1294h-205v86h520v-86h-205v-180h308q198 0 314 -111.5t116 -293.5q0 -203 -111.5 -316.5t-320.5 -113.5h-306v-279h246v-86h-561zM358 451h279q163 0 249.5 86.5t86.5 253.5q0 155 -88 239t-262 84h-265v-663z" />
<glyph unicode="&#xdf;" d="M41 0v86h129v952q0 225 99 339t284 114q94 0 164 -29t110.5 -81t60 -116t19.5 -141q0 -135 -68.5 -219t-201.5 -104v-4q163 -18 241 -126.5t78 -281.5q0 -165 -92 -277t-254 -112h-94v86h72q119 0 188.5 89t69.5 231q0 164 -77.5 249t-254.5 95v98q154 6 218.5 85 t64.5 200q0 136 -69.5 204t-172.5 68q-274 0 -274 -373v-946h98v-86h-338z" />
<glyph unicode="&#xe0;" d="M78 287q0 344 438 344h223v78q0 290 -254 290q-119 0 -186.5 -68t-73.5 -179h-110q7 162 107 247.5t259 85.5q104 0 178 -26.5t114.5 -76.5t58.5 -111t18 -140v-645h141v-86h-239v215h-4q-47 -133 -133.5 -188.5t-215.5 -55.5q-147 0 -234 84.5t-87 231.5zM188 281 q0 -100 64.5 -162t171.5 -62q80 0 142.5 36t99 96.5t55 133.5t18.5 154v62q-15 0 -86.5 3t-107.5 3q-187 0 -272 -65t-85 -199zM299 1491h164l180 -274h-111z" />
<glyph unicode="&#xe1;" d="M78 287q0 344 438 344h223v78q0 290 -254 290q-119 0 -186.5 -68t-73.5 -179h-110q7 162 107 247.5t259 85.5q104 0 178 -26.5t114.5 -76.5t58.5 -111t18 -140v-645h141v-86h-239v215h-4q-47 -133 -133.5 -188.5t-215.5 -55.5q-147 0 -234 84.5t-87 231.5zM188 281 q0 -100 64.5 -162t171.5 -62q80 0 142.5 36t99 96.5t55 133.5t18.5 154v62q-15 0 -86.5 3t-107.5 3q-187 0 -272 -65t-85 -199zM381 1217l180 274h164l-233 -274h-111z" />
<glyph unicode="&#xe2;" d="M78 287q0 344 438 344h223v78q0 290 -254 290q-119 0 -186.5 -68t-73.5 -179h-110q7 162 107 247.5t259 85.5q104 0 178 -26.5t114.5 -76.5t58.5 -111t18 -140v-645h141v-86h-239v215h-4q-47 -133 -133.5 -188.5t-215.5 -55.5q-147 0 -234 84.5t-87 231.5zM188 281 q0 -100 64.5 -162t171.5 -62q80 0 142.5 36t99 96.5t55 133.5t18.5 154v62q-15 0 -86.5 3t-107.5 3q-187 0 -272 -65t-85 -199zM242 1217l209 274h122l209 -274h-123l-147 200l-147 -200h-123z" />
<glyph unicode="&#xe3;" d="M78 287q0 344 438 344h223v78q0 290 -254 290q-119 0 -186.5 -68t-73.5 -179h-110q7 162 107 247.5t259 85.5q104 0 178 -26.5t114.5 -76.5t58.5 -111t18 -140v-645h141v-86h-239v215h-4q-47 -133 -133.5 -188.5t-215.5 -55.5q-147 0 -234 84.5t-87 231.5zM188 281 q0 -100 64.5 -162t171.5 -62q80 0 142.5 36t99 96.5t55 133.5t18.5 154v62q-15 0 -86.5 3t-107.5 3q-187 0 -272 -65t-85 -199zM215 1262q26 182 160 182q63 0 147 -43q92 -47 127 -47q61 0 86 80h74q-10 -90 -54 -134.5t-106 -44.5q-46 0 -134.5 45.5t-137.5 45.5 q-34 0 -57.5 -22t-30.5 -62h-74z" />
<glyph unicode="&#xe4;" d="M78 287q0 344 438 344h223v78q0 290 -254 290q-119 0 -186.5 -68t-73.5 -179h-110q7 162 107 247.5t259 85.5q104 0 178 -26.5t114.5 -76.5t58.5 -111t18 -140v-645h141v-86h-239v215h-4q-47 -133 -133.5 -188.5t-215.5 -55.5q-147 0 -234 84.5t-87 231.5zM188 281 q0 -100 64.5 -162t171.5 -62q80 0 142.5 36t99 96.5t55 133.5t18.5 154v62q-15 0 -86.5 3t-107.5 3q-187 0 -272 -65t-85 -199zM256 1282v135h135v-135h-135zM633 1282v135h135v-135h-135z" />
<glyph unicode="&#xe5;" d="M78 287q0 344 438 344h223v78q0 290 -254 290q-119 0 -186.5 -68t-73.5 -179h-110q7 162 107 247.5t259 85.5q104 0 178 -26.5t114.5 -76.5t58.5 -111t18 -140v-645h141v-86h-239v215h-4q-47 -133 -133.5 -188.5t-215.5 -55.5q-147 0 -234 84.5t-87 231.5zM188 281 q0 -100 64.5 -162t171.5 -62q80 0 142.5 36t99 96.5t55 133.5t18.5 154v62q-15 0 -86.5 3t-107.5 3q-187 0 -272 -65t-85 -199zM328 1372q0 76 54 130t130 54t130 -54t54 -130t-54 -130t-130 -54t-130 54t-54 130zM401 1372q0 -46 32.5 -78t78.5 -32t78.5 32t32.5 78 t-32.5 78.5t-78.5 32.5t-78.5 -32.5t-32.5 -78.5z" />
<glyph unicode="&#xe6;" horiz-adv-x="1517" d="M78 287q0 155 100 231t283 76h235v90q0 161 -49 238t-162 77q-119 0 -186.5 -68t-73.5 -179h-110q7 162 107 247.5t259 85.5q249 0 291 -206h4q107 206 297 206q79 0 143 -26.5t115.5 -82.5t80 -153.5t28.5 -230.5v-84h-645q4 -218 81 -334.5t197 -116.5q118 0 179.5 77 t68.5 188h111q-14 -155 -108.5 -253t-242.5 -98q-77 0 -140 25.5t-98.5 60t-61 78.5t-34.5 72.5t-12 50.5h-4q-16 -56 -40.5 -103t-63 -90.5t-97 -68.5t-131.5 -25q-147 0 -234 84.5t-87 231.5zM188 281q0 -100 64.5 -162t171.5 -62q53 0 96 21.5t70.5 54.5t48.5 79t31.5 87 t16.5 87.5t7.5 72.5t1.5 49h-207q-156 0 -228.5 -57t-72.5 -170zM795 594h534q-1 209 -64.5 307t-187.5 98q-122 0 -192.5 -106.5t-89.5 -298.5z" />
<glyph unicode="&#xe7;" d="M111 528q0 166 47.5 289t151 195.5t253.5 72.5q101 0 183.5 -53.5t109.5 -144.5h4v170h86v-391h-86q-29 333 -297 333q-110 0 -188.5 -64.5t-116 -169t-37.5 -237.5t37.5 -237.5t116 -169t188.5 -64.5q116 0 189.5 70.5t95.5 200.5h98q-12 -154 -108 -250t-242 -107 l-51 -65q198 -3 198 -150q0 -70 -59 -112.5t-139 -42.5q-119 0 -195 49l35 69q88 -45 156 -45q37 0 64.5 24t27.5 58q0 37 -32 56.5t-77 19.5q-28 0 -61 -10l-31 39l82 114q-200 17 -301.5 166t-101.5 387z" />
<glyph unicode="&#xe8;" d="M78 528q0 166 47.5 289t151 195.5t253.5 72.5q112 0 197 -47.5t134 -130.5t73 -183t24 -216h-770q3 -208 93 -329.5t249 -121.5q125 0 206.5 62t103.5 196h98q-29 -170 -136 -257t-272 -87q-150 0 -253.5 72.5t-151 195.5t-47.5 289zM188 594h660q-5 191 -90.5 298 t-241.5 107q-137 0 -225 -111t-103 -294zM336 1491h164l180 -274h-111z" />
<glyph unicode="&#xe9;" d="M78 528q0 166 47.5 289t151 195.5t253.5 72.5q112 0 197 -47.5t134 -130.5t73 -183t24 -216h-770q3 -208 93 -329.5t249 -121.5q125 0 206.5 62t103.5 196h98q-29 -170 -136 -257t-272 -87q-150 0 -253.5 72.5t-151 195.5t-47.5 289zM188 594h660q-5 191 -90.5 298 t-241.5 107q-137 0 -225 -111t-103 -294zM418 1217l180 274h164l-234 -274h-110z" />
<glyph unicode="&#xea;" d="M78 528q0 166 47.5 289t151 195.5t253.5 72.5q112 0 197 -47.5t134 -130.5t73 -183t24 -216h-770q3 -208 93 -329.5t249 -121.5q125 0 206.5 62t103.5 196h98q-29 -170 -136 -257t-272 -87q-150 0 -253.5 72.5t-151 195.5t-47.5 289zM188 594h660q-5 191 -90.5 298 t-241.5 107q-137 0 -225 -111t-103 -294zM279 1217l208 274h123l209 -274h-123l-147 200l-148 -200h-122z" />
<glyph unicode="&#xeb;" d="M78 528q0 166 47.5 289t151 195.5t253.5 72.5q112 0 197 -47.5t134 -130.5t73 -183t24 -216h-770q3 -208 93 -329.5t249 -121.5q125 0 206.5 62t103.5 196h98q-29 -170 -136 -257t-272 -87q-150 0 -253.5 72.5t-151 195.5t-47.5 289zM188 594h660q-5 191 -90.5 298 t-241.5 107q-137 0 -225 -111t-103 -294zM293 1282v135h135v-135h-135zM670 1282v135h135v-135h-135z" />
<glyph unicode="&#xec;" horiz-adv-x="530" d="M29 0v86h176v885h-176v86h286v-971h164v-86h-450zM66 1491h163l181 -274h-111z" />
<glyph unicode="&#xed;" horiz-adv-x="530" d="M29 0v86h176v885h-176v86h286v-971h164v-86h-450zM147 1217l181 274h164l-234 -274h-111z" />
<glyph unicode="&#xee;" horiz-adv-x="530" d="M-35 1217l209 274h123l209 -274h-123l-147 200l-148 -200h-123zM29 0v86h176v885h-176v86h286v-971h164v-86h-450z" />
<glyph unicode="&#xef;" horiz-adv-x="530" d="M23 1282v135h135v-135h-135zM29 0v86h176v885h-176v86h286v-971h164v-86h-450zM399 1282v135h136v-135h-136z" />
<glyph unicode="&#xf0;" horiz-adv-x="1060" d="M78 528q0 134 51.5 245.5t155 181t241.5 69.5q172 0 275 -139l4 4q-84 253 -299 391l-230 -145l-51 55l211 133q-118 62 -256 92l25 76q175 -29 321 -111l238 152l51 -57l-217 -138q190 -129 287.5 -339t97.5 -478q0 -255 -114.5 -402t-333.5 -147q-226 0 -341.5 151.5 t-115.5 405.5zM188 528q0 -236 89 -353.5t253 -117.5t253 117.5t89 353.5q0 87 -21.5 158t-56.5 117t-80.5 77t-91.5 44.5t-92 13.5t-92 -13.5t-91.5 -44.5t-80.5 -77t-56.5 -117t-21.5 -158z" />
<glyph unicode="&#xf1;" horiz-adv-x="1138" d="M41 0v86h164v885h-164v86h274v-166h4q84 194 310 194q166 0 241.5 -95t75.5 -296v-608h152v-86h-439v86h177v608q0 156 -60 230.5t-182 74.5q-125 0 -202 -107.5t-77 -289.5v-516h164v-86h-438zM309 1262q26 182 160 182q63 0 147 -43q92 -47 127 -47q61 0 86 80h74 q-10 -90 -54 -134.5t-106 -44.5q-46 0 -134.5 45.5t-137.5 45.5q-34 0 -57.5 -22t-30.5 -62h-74z" />
<glyph unicode="&#xf2;" horiz-adv-x="1060" d="M78 528q0 162 54 287.5t157 197.5t241 72q150 0 253.5 -72.5t151.5 -195.5t48 -289q0 -162 -54 -288t-157.5 -197.5t-241.5 -71.5t-241 72t-157 197.5t-54 287.5zM188 528q0 -133 37.5 -237.5t116 -169t188.5 -64.5q147 0 244.5 126.5t97.5 344.5q0 133 -37.5 237.5 t-116 169t-188.5 64.5q-147 0 -244.5 -126.5t-97.5 -344.5zM330 1491h164l180 -274h-111z" />
<glyph unicode="&#xf3;" horiz-adv-x="1060" d="M78 528q0 162 54 287.5t157 197.5t241 72q150 0 253.5 -72.5t151.5 -195.5t48 -289q0 -162 -54 -288t-157.5 -197.5t-241.5 -71.5t-241 72t-157 197.5t-54 287.5zM188 528q0 -133 37.5 -237.5t116 -169t188.5 -64.5q147 0 244.5 126.5t97.5 344.5q0 133 -37.5 237.5 t-116 169t-188.5 64.5q-147 0 -244.5 -126.5t-97.5 -344.5zM412 1217l180 274h164l-234 -274h-110z" />
<glyph unicode="&#xf4;" horiz-adv-x="1060" d="M78 528q0 162 54 287.5t157 197.5t241 72q150 0 253.5 -72.5t151.5 -195.5t48 -289q0 -162 -54 -288t-157.5 -197.5t-241.5 -71.5t-241 72t-157 197.5t-54 287.5zM188 528q0 -133 37.5 -237.5t116 -169t188.5 -64.5q147 0 244.5 126.5t97.5 344.5q0 133 -37.5 237.5 t-116 169t-188.5 64.5q-147 0 -244.5 -126.5t-97.5 -344.5zM272 1217l209 274h123l209 -274h-123l-147 200l-148 -200h-123z" />
<glyph unicode="&#xf5;" horiz-adv-x="1060" d="M78 528q0 162 54 287.5t157 197.5t241 72q150 0 253.5 -72.5t151.5 -195.5t48 -289q0 -162 -54 -288t-157.5 -197.5t-241.5 -71.5t-241 72t-157 197.5t-54 287.5zM188 528q0 -133 37.5 -237.5t116 -169t188.5 -64.5q147 0 244.5 126.5t97.5 344.5q0 133 -37.5 237.5 t-116 169t-188.5 64.5q-147 0 -244.5 -126.5t-97.5 -344.5zM246 1262q26 182 160 182q63 0 147 -43q92 -47 127 -47q61 0 86 80h74q-10 -90 -54 -134.5t-106 -44.5q-46 0 -134.5 45.5t-137.5 45.5q-34 0 -58 -22t-31 -62h-73z" />
<glyph unicode="&#xf6;" horiz-adv-x="1060" d="M78 528q0 162 54 287.5t157 197.5t241 72q150 0 253.5 -72.5t151.5 -195.5t48 -289q0 -162 -54 -288t-157.5 -197.5t-241.5 -71.5t-241 72t-157 197.5t-54 287.5zM188 528q0 -133 37.5 -237.5t116 -169t188.5 -64.5q147 0 244.5 126.5t97.5 344.5q0 133 -37.5 237.5 t-116 169t-188.5 64.5q-147 0 -244.5 -126.5t-97.5 -344.5zM287 1282v135h135v-135h-135zM664 1282v135h135v-135h-135z" />
<glyph unicode="&#xf7;" horiz-adv-x="1228" d="M96 463v110h1037v-110h-1037zM541 0v147h147v-147h-147zM541 889v147h147v-147h-147z" />
<glyph unicode="&#xf8;" horiz-adv-x="1060" d="M78 -6l112 145q-112 149 -112 389q0 162 54 287.5t157 197.5t241 72q189 0 304 -112l100 131l49 -39l-109 -139q109 -147 109 -398q0 -162 -54 -288t-157.5 -197.5t-241.5 -71.5q-178 0 -297 119l-106 -137zM188 528q0 -182 70 -301l508 658q-84 114 -236 114 q-147 0 -244.5 -126.5t-97.5 -344.5zM295 170q89 -113 235 -113q147 0 244.5 126.5t97.5 344.5q0 183 -69 303z" />
<glyph unicode="&#xf9;" horiz-adv-x="1138" d="M41 971v86h262v-695q0 -156 60 -230.5t182 -74.5t200 104t78 281v529h-164v86h275v-971h164v-86h-275v172h-4q-41 -95 -122 -148t-187 -53q-166 0 -241.5 95t-75.5 296v609h-152zM356 1491h164l180 -274h-110z" />
<glyph unicode="&#xfa;" horiz-adv-x="1138" d="M41 971v86h262v-695q0 -156 60 -230.5t182 -74.5t200 104t78 281v529h-164v86h275v-971h164v-86h-275v172h-4q-41 -95 -122 -148t-187 -53q-166 0 -241.5 95t-75.5 296v609h-152zM438 1217l180 274h164l-233 -274h-111z" />
<glyph unicode="&#xfb;" horiz-adv-x="1138" d="M41 971v86h262v-695q0 -156 60 -230.5t182 -74.5t200 104t78 281v529h-164v86h275v-971h164v-86h-275v172h-4q-41 -95 -122 -148t-187 -53q-166 0 -241.5 95t-75.5 296v609h-152zM299 1217l209 274h123l209 -274h-123l-148 200l-147 -200h-123z" />
<glyph unicode="&#xfc;" horiz-adv-x="1138" d="M41 971v86h262v-695q0 -156 60 -230.5t182 -74.5t200 104t78 281v529h-164v86h275v-971h164v-86h-275v172h-4q-41 -95 -122 -148t-187 -53q-166 0 -241.5 95t-75.5 296v609h-152zM313 1282v135h136v-135h-136zM690 1282v135h135v-135h-135z" />
<glyph unicode="&#xfd;" d="M25 971v86h360v-86h-154l291 -811h4l291 811h-153v86h335v-86h-71l-410 -1121q-47 -127 -103.5 -173t-138.5 -46q-59 0 -100 13v86q32 -13 84 -13q44 0 71.5 18.5t59.5 78t78 186.5l-348 971h-96zM418 1217l180 274h164l-234 -274h-110z" />
<glyph unicode="&#xfe;" horiz-adv-x="1138" d="M20 -254h162v1634h-162v86h273v-606h4q64 124 143 174.5t203 50.5q56 0 109.5 -14t111 -53t100 -98.5t70 -161t27.5 -230.5q0 -163 -48 -288t-143.5 -197t-226.5 -72q-240 0 -346 207h-4v-432h168v-86h-441v86zM281 510q0 -101 20.5 -181.5t53.5 -130.5t77 -82.5 t87.5 -45.5t88.5 -13q110 0 188.5 64.5t116 169t37.5 237.5t-37.5 237.5t-116 169t-188.5 64.5q-88 0 -153.5 -41t-102 -112t-54 -155t-17.5 -181z" />
<glyph unicode="&#xff;" d="M25 971v86h360v-86h-154l291 -811h4l291 811h-153v86h335v-86h-71l-410 -1121q-47 -127 -103.5 -173t-138.5 -46q-59 0 -100 13v86q32 -13 84 -13q44 0 71.5 18.5t59.5 78t78 186.5l-348 971h-96zM268 1282v135h135v-135h-135zM645 1282v135h135v-135h-135z" />
<glyph unicode="&#x152;" horiz-adv-x="1933" d="M102 733q0 174 40 312.5t120.5 238.5t208 153.5t295.5 53.5q123 0 244 -25h786v-432h-98v346h-602v-585h301v239h98v-579h-98v254h-301v-623h612v369h98v-455h-802q-196 -25 -265 -25q-126 0 -231 39.5t-179.5 109.5t-126 166t-76 207.5t-24.5 235.5zM225 733 q0 -168 38.5 -298t108 -211t162.5 -122t205 -41q140 0 258 25v1294q-92 25 -217 25q-264 0 -409.5 -162.5t-145.5 -509.5z" />
<glyph unicode="&#x153;" horiz-adv-x="1630" d="M78 528q0 253 119.5 405t310.5 152q52 0 101.5 -13.5t99.5 -44t89 -88.5t56 -138h4q77 284 342 284q79 0 143 -26.5t115.5 -82.5t80 -153.5t28.5 -230.5v-84h-666q3 -220 82.5 -335.5t212.5 -115.5q118 0 179.5 77t68.5 188h110q-14 -156 -108 -253.5t-242 -97.5 q-143 0 -231 77t-115 198h-4q-104 -275 -367 -275q-179 0 -294 147.5t-115 409.5zM188 516q0 -127 32.5 -229t101.5 -166t165 -64q144 0 230 121.5t86 364.5q0 456 -299 456q-144 0 -230 -120.5t-86 -362.5zM901 594h555q-1 209 -66 307t-194 98q-132 0 -204.5 -106.5 t-90.5 -298.5z" />
<glyph unicode="&#x178;" horiz-adv-x="1253" d="M6 1380v86h459v-86h-215l377 -657l377 657h-195v86h438v-86h-121l-444 -768v-526h242v-86h-594v86h241v526l-444 768h-121zM371 1610v135h135v-135h-135zM748 1610v135h135v-135h-135z" />
<glyph unicode="&#x2c6;" horiz-adv-x="528" d="M-6 1217l209 274h123l209 -274h-123l-148 200l-147 -200h-123z" />
<glyph unicode="&#x2dc;" horiz-adv-x="528" d="M-33 1262q26 182 160 182q63 0 147 -43q92 -47 127 -47q61 0 86 80h74q-10 -90 -54 -134.5t-106 -44.5q-46 0 -134.5 45.5t-137.5 45.5q-34 0 -57.5 -22t-30.5 -62h-74z" />
<glyph unicode="&#x2000;" horiz-adv-x="942" />
<glyph unicode="&#x2001;" horiz-adv-x="1884" />
<glyph unicode="&#x2002;" horiz-adv-x="942" />
<glyph unicode="&#x2003;" horiz-adv-x="1884" />
<glyph unicode="&#x2004;" horiz-adv-x="628" />
<glyph unicode="&#x2005;" horiz-adv-x="471" />
<glyph unicode="&#x2006;" horiz-adv-x="314" />
<glyph unicode="&#x2007;" horiz-adv-x="314" />
<glyph unicode="&#x2008;" horiz-adv-x="235" />
<glyph unicode="&#x2009;" horiz-adv-x="376" />
<glyph unicode="&#x200a;" horiz-adv-x="104" />
<glyph unicode="&#x2010;" horiz-adv-x="757" d="M133 512v98h492v-98h-492z" />
<glyph unicode="&#x2011;" horiz-adv-x="757" d="M133 512v98h492v-98h-492z" />
<glyph unicode="&#x2012;" horiz-adv-x="757" d="M133 512v98h492v-98h-492z" />
<glyph unicode="&#x2013;" d="M0 518v86h1024v-86h-1024z" />
<glyph unicode="&#x2014;" horiz-adv-x="2048" d="M0 518v86h2048v-86h-2048z" />
<glyph unicode="&#x2018;" horiz-adv-x="569" d="M197 1057v147l90 262h86l-90 -262h61v-147h-147z" />
<glyph unicode="&#x2019;" horiz-adv-x="569" d="M197 1057l90 262h-62v147h148v-147l-90 -262h-86z" />
<glyph unicode="&#x201a;" horiz-adv-x="569" d="M197 -262l90 262h-62v147h148v-147l-90 -262h-86z" />
<glyph unicode="&#x201c;" horiz-adv-x="909" d="M186 1057v147l90 262h86l-90 -262h62v-147h-148zM547 1057v147l90 262h86l-90 -262h61v-147h-147z" />
<glyph unicode="&#x201d;" horiz-adv-x="909" d="M186 1057l90 262h-61v147h147v-147l-90 -262h-86zM547 1057l90 262h-62v147h148v-147l-90 -262h-86z" />
<glyph unicode="&#x201e;" horiz-adv-x="909" d="M186 -262l90 262h-61v147h147v-147l-90 -262h-86zM547 -262l90 262h-62v147h148v-147l-90 -262h-86z" />
<glyph unicode="&#x2022;" d="M186 367v731h652v-731h-652z" />
<glyph unicode="&#x2026;" horiz-adv-x="2048" d="M268 0v147h148v-147h-148zM950 0v147h148v-147h-148zM1632 0v147h148v-147h-148z" />
<glyph unicode="&#x202f;" horiz-adv-x="376" />
<glyph unicode="&#x2039;" horiz-adv-x="569" d="M141 561l174 447h99l-174 -447l174 -446h-99z" />
<glyph unicode="&#x203a;" horiz-adv-x="569" d="M156 115l174 446l-174 447h98l174 -447l-174 -446h-98z" />
<glyph unicode="&#x205f;" horiz-adv-x="471" />
<glyph unicode="&#x20ac;" d="M14 557l23 86h115q-2 29 -2 90q0 41 4 115h-136l23 86h119q11 97 33.5 179.5t59 152.5t85 119.5t114 77.5t142.5 28q55 0 99.5 -16.5t75 -47.5t50 -61t37.5 -70h4v179h90v-455h-100q-3 99 -34.5 185.5t-93 143t-140.5 56.5q-118 0 -196.5 -121t-102.5 -350h526l-23 -86 h-512q-2 -37 -2 -113q0 -63 2 -92h461l-22 -86h-434q20 -244 99.5 -370t211.5 -126q98 0 168.5 63t89.5 195h100q-27 -169 -123.5 -256.5t-240.5 -87.5q-79 0 -145 29.5t-113 81t-82 125.5t-55.5 159.5t-30.5 186.5h-144z" />
<glyph unicode="&#x2122;" horiz-adv-x="2027" d="M82 1368v98h659v-98h-274v-739h-111v739h-274zM926 629v837h186l262 -661l254 661h187v-837h-111v727h-4l-293 -727h-74l-293 727h-4v-727h-110z" />
<glyph unicode="&#xe000;" horiz-adv-x="1054" d="M0 0v1055h1055v-1055h-1055z" />
<glyph unicode="&#xfb01;" d="M23 971v86h182v84q0 165 85 257.5t255 92.5q79 0 139 -23t95.5 -63.5t53 -90t19.5 -106.5h-111q-3 94 -58 145.5t-148 51.5q-220 0 -220 -277v-71h551v-971h135v-86h-397v86h152v885h-441v-885h170v-86h-444v86h164v885h-182z" />
<glyph unicode="&#xfb02;" d="M23 971v86h182v55q0 197 87.5 288t274.5 91q121 0 297 -39v-1366h137v-86h-397v86h150v1294q-91 25 -174 25q-130 0 -197.5 -63t-67.5 -222v-63h213v-86h-213v-885h170v-86h-444v86h164v885h-182z" />
</font>
</defs>
</svg>
