<?xml version="1.0" standalone="no"?>
<!DOCTYPE svg PUBLIC "-//W3C//DTD SVG 1.1//EN" "http://www.w3.org/Graphics/SVG/1.1/DTD/svg11.dtd" >
<svg xmlns="http://www.w3.org/2000/svg">
<metadata></metadata>
<defs>
<font id="GlyphaLTStdLightItalic" horiz-adv-x="1024" >
<font-face units-per-em="2048" ascent="1466" descent="-582" />
<missing-glyph horiz-adv-x="512" />
<glyph horiz-adv-x="0" />
<glyph horiz-adv-x="2048" />
<glyph unicode=" "  horiz-adv-x="512" />
<glyph unicode="&#x09;" horiz-adv-x="512" />
<glyph unicode="&#xa0;" horiz-adv-x="512" />
<glyph unicode="!" horiz-adv-x="679" d="M266 0l31 147h147l-30 -147h-148zM365 315l213 1151h147l-274 -1151h-86z" />
<glyph unicode="&#x22;" horiz-adv-x="909" d="M485 1057l86 409h111l-86 -409h-111zM764 1057l86 409h111l-87 -409h-110z" />
<glyph unicode="#" d="M121 473l20 98h219l115 324h-207l21 98h219l166 473h98l-166 -473h303l164 473h98l-163 -473h206l-20 -98h-221l-113 -324h207l-20 -98h-222l-166 -473h-98l166 473h-301l-166 -473h-98l166 473h-207zM459 571h303l112 324h-301z" />
<glyph unicode="$" d="M72 0l106 504h98q-16 -88 -11 -165.5t27 -136t72 -96t123 -45.5l138 646l-2 1q-150 54 -210 94q-137 92 -116 255l6 35q40 184 172.5 291.5t317.5 107.5l38 182h74l-41 -190q183 -33 230 -195h4l37 178h98l-105 -495h-98q70 378 -184 426l-127 -598q42 -14 71 -25 t66.5 -27.5t62 -33.5t51 -40t41.5 -50.5t26 -61.5t10 -76.5t-11 -91.5q-39 -177 -169.5 -295.5t-323.5 -122.5l-37 -182h-74l37 182q-229 33 -252 230h-4l-43 -205h-98zM423.5 1054q-2.5 -26 6 -50t17.5 -42t27 -35t35 -30t42 -26t48 -22.5t52 -19.5l123 576 q-131 -3 -224 -86.5t-120 -206.5q-4 -32 -6.5 -58zM561 61q139 17 230 103t122 229q6 42 6 74t-14.5 60t-32.5 48.5t-48.5 39.5t-61 33t-70.5 28z" />
<glyph unicode="%" horiz-adv-x="1593" d="M377 -25l1063 1516h86l-1063 -1516h-86zM390.5 967.5q2.5 62.5 17.5 134.5q12 56 29 106t46 103.5t65 92t88.5 63t113.5 24.5t103 -24.5t61.5 -63t25.5 -91.5t1 -103.5t-17 -106.5q-12 -57 -29 -107t-45.5 -103.5t-64 -91.5t-88 -62.5t-113.5 -24.5q-76 0 -122 35.5 t-60 96t-11.5 123zM478 921q8 -70 38.5 -102.5t83.5 -32.5q171 0 238 316q32 166 4 240.5t-109 74.5q-80 0 -142.5 -77.5t-96.5 -237.5q-24 -111 -16 -181zM964 257.5q5 50.5 17 107.5q11 56 28 106.5t45.5 103.5t64.5 91.5t88.5 63t113.5 24.5t103 -24.5t61.5 -63t25.5 -92 t2 -103.5t-16 -106q-12 -57 -29 -107.5t-46 -104t-65 -91.5t-88.5 -62.5t-113.5 -24.5t-103 24.5t-61.5 62.5t-25.5 91.5t-1 104zM1063 123.5q28 -74.5 108 -74.5q82 0 144 77.5t96 238.5q32 166 4.5 240.5t-108.5 74.5q-80 0 -143 -78t-97 -237q-32 -167 -4 -241.5z" />
<glyph unicode="&#x26;" horiz-adv-x="1517" d="M201 395q30 141 132 243.5t281 184.5q-85 133 -114.5 214t-12.5 155q27 129 134 214t262 85t225 -85t43 -214q-25 -112 -122 -210t-257 -175l295 -451q62 64 115.5 184t79.5 232h-154l18 86h443l-19 -86h-178q-98 -325 -254 -491l133 -195h203l-18 -86h-287l-119 184 q-231 -209 -498 -209q-198 0 -284 115.5t-47 304.5zM324 395q-30 -144 34 -239t205 -95q241 0 424 195l-328 496q-155 -73 -233.5 -161.5t-101.5 -195.5zM610 1192q-25 -117 113 -322q149 80 223.5 157.5t93.5 164.5q21 101 -25.5 157t-146.5 56q-97 0 -167 -56t-91 -157z " />
<glyph unicode="'" horiz-adv-x="569" d="M455 1057l86 409h110l-86 -409h-110z" />
<glyph unicode="(" horiz-adv-x="569" d="M252.5 121.5q-26.5 259.5 19.5 468.5q45 211 180.5 466.5t315.5 461.5h98q-379 -443 -483 -928q-103 -492 88 -930h-98q-94 202 -120.5 461.5z" />
<glyph unicode=")" horiz-adv-x="569" d="M-45 -340q380 446 481 928q102 481 -86 930h99q92 -206 118 -465t-20 -465q-45 -214 -180 -469.5t-314 -458.5h-98z" />
<glyph unicode="*" horiz-adv-x="831" d="M334 1159l61 117l234 -129l43 319h110l-92 -319l287 129l12 -117l-293 -74l144 -227l-103 -72l-98 267l-209 -267l-74 72l242 227z" />
<glyph unicode="+" horiz-adv-x="1228" d="M195 463l24 110h463l98 463h111l-98 -463h462l-24 -110h-463l-98 -463h-111l98 463h-462z" />
<glyph unicode="," horiz-adv-x="512" d="M98 -262l146 262h-62l31 147h147l-30 -147l-146 -262h-86z" />
<glyph unicode="-" horiz-adv-x="757" d="M242 512l20 98h492l-21 -98h-491z" />
<glyph unicode="." horiz-adv-x="512" d="M182 0l31 147h147l-30 -147h-148z" />
<glyph unicode="/" horiz-adv-x="720" d="M23 -25l876 1516h111l-877 -1516h-110z" />
<glyph unicode="0" d="M189.5 377.5q-0.5 140.5 39.5 339.5q37 175 91.5 311t114 222t129.5 141.5t135.5 77.5t134.5 22q95 0 162.5 -41.5t108.5 -130.5t41 -229.5t-40 -339.5q-37 -175 -91.5 -311.5t-113.5 -222t-129 -141.5t-135.5 -78t-134.5 -22q-95 0 -162.5 41.5t-108.5 131t-41.5 230z M311.5 415.5q-5.5 -132.5 20.5 -209t73 -111t119 -34.5q152 0 270 177t185 495q40 185 46 317.5t-20.5 209t-74 111t-119.5 34.5q-152 0 -269.5 -176.5t-185.5 -495.5q-39 -185 -44.5 -317.5z" />
<glyph unicode="1" d="M301 0l18 86h224l270 1270h-4q-56 -63 -174 -155t-201 -144l25 123q203 137 364 286h123l-293 -1380h207l-18 -86h-541z" />
<glyph unicode="2" d="M88 0l31 145q369 332 549.5 508t257 278t94.5 187q24 115 -27.5 195t-167.5 80q-137 0 -232.5 -92t-143.5 -246h-111q62 199 194 317.5t314 118.5q176 0 254 -106t43 -267q-22 -103 -90.5 -196t-200.5 -217l-645 -607h639l49 234h111l-70 -332h-848z" />
<glyph unicode="3" d="M178.5 238.5q-9.5 72.5 11.5 169.5h123q-31 -151 31.5 -242.5t183.5 -91.5q71 0 133 28t105 74.5t72 101t41 111.5q63 297 -285 307l20 99q336 2 404 301q26 125 -29.5 211t-179.5 86q-110 0 -201.5 -78.5t-142.5 -241.5h-123q47 183 176.5 300.5t304.5 117.5 q187 0 270 -113.5t46 -287.5q-27 -130 -126 -229.5t-235 -117.5v-4q135 -17 194 -115t29 -239q-40 -187 -176 -298.5t-325 -111.5q-60 0 -112.5 14t-99 45t-73.5 81.5t-36.5 123z" />
<glyph unicode="4" d="M125 422l29 137l796 907h148l-203 -958h203l-19 -86h-202l-72 -336h182l-18 -86h-516l18 86h223l72 336h-641zM229 508h555l181 848h-4z" />
<glyph unicode="5" d="M198 231.5q-9 68.5 11 157.5h110q-23 -150 38.5 -232.5t187.5 -82.5q136 0 243.5 104t147.5 295q35 165 -22 266t-195 101q-105 0 -187.5 -54.5t-150.5 -175.5h-111l211 856h721l-20 -98h-611l-153 -592h6q54 73 137 117.5t176 44.5q129 0 211 -59t104.5 -160t-3.5 -236 q-23 -108 -67.5 -198.5t-110.5 -160.5t-159 -109.5t-204 -39.5q-58 0 -108.5 14.5t-95 45.5t-71 79.5t-35.5 117z" />
<glyph unicode="6" d="M189.5 341.5q0.5 64.5 7.5 125.5t20 131q50 232 121 405t156.5 279t181.5 157.5t203 51.5q167 0 240.5 -99.5t39.5 -279.5h-110q24 131 -25 212t-158 81q-56 0 -110 -21t-113 -73t-111 -131.5t-101 -206t-85 -287.5h4q68 110 166.5 171t220.5 61q76 0 135 -26t94.5 -70 t57 -102t21 -123t-12.5 -132q-21 -101 -66.5 -188.5t-112 -155.5t-158.5 -107t-197 -39q-70 0 -123.5 19t-88.5 51t-57 79.5t-31 100t-8.5 117zM307 444q-37 -178 27 -280.5t196 -102.5t241.5 103t146.5 280q39 179 -26.5 283t-197.5 104t-240 -104t-147 -283z" />
<glyph unicode="7" d="M281 0q352 615 845 1368h-647l-55 -258h-111l76 356h868l-22 -110q-479 -716 -832 -1356h-122z" />
<glyph unicode="8" d="M177.5 205q-15.5 76 4.5 176q29 141 127 244.5t240 130.5l2 4q-125 30 -172 126t-17 238q25 116 99.5 201.5t172 125.5t204.5 40q79 0 145 -23.5t112 -69.5t63 -114.5t-1 -159.5q-30 -143 -121 -238.5t-239 -125.5l-2 -4q133 -27 186.5 -130t24.5 -245 q-28 -129 -105 -222.5t-178.5 -138.5t-216.5 -45q-85 0 -153 26t-114 77t-61.5 127zM293 389q-30 -147 28.5 -237.5t204.5 -90.5q143 0 241 91t128 237q32 144 -27 236t-202 92q-145 0 -243 -91.5t-130 -236.5zM462 990.5q8 -54.5 32 -96t75 -66.5t121 -25q137 0 230.5 87 t121.5 214q27 132 -30.5 216.5t-192.5 84.5t-229 -84.5t-121 -216.5q-15 -59 -7 -113.5z" />
<glyph unicode="9" d="M176 354h111q-24 -131 24.5 -212t157.5 -81q56 0 110 21t113 73t111 131.5t101 206t85 287.5h-4q-68 -110 -166.5 -170.5t-220.5 -60.5q-76 0 -135 26t-94.5 69.5t-57 102t-21 123t12.5 131.5q21 100 67 188t112.5 156t158.5 107t197 39q81 0 140.5 -24.5t93.5 -70 t52.5 -102t20.5 -130t-5 -144t-22 -152.5q-96 -455 -268.5 -674t-392.5 -219q-167 0 -241 99.5t-40 279.5zM418 1022q-37 -179 27 -283t196 -104t241 104t146 283q37 178 -27 280.5t-196 102.5t-241 -103t-146 -280z" />
<glyph unicode=":" horiz-adv-x="512" d="M182 0l31 147h147l-30 -147h-148zM369 877l30 147h148l-31 -147h-147z" />
<glyph unicode=";" horiz-adv-x="512" d="M98 -262l146 262h-62l31 147h147l-30 -147l-146 -262h-86zM369 877l30 147h148l-31 -147h-147z" />
<glyph unicode="&#x3c;" horiz-adv-x="1228" d="M195 463l24 110l1139 484l-25 -111l-1003 -428l821 -428l-23 -110z" />
<glyph unicode="=" horiz-adv-x="1228" d="M152 264l24 111h1036l-24 -111h-1036zM238 662l22 110h1036l-22 -110h-1036z" />
<glyph unicode="&#x3e;" horiz-adv-x="1228" d="M92 -20l23 110l1005 428l-823 428l25 111l933 -484l-24 -110z" />
<glyph unicode="?" d="M346 1106q49 188 175 286.5t288 98.5q188 0 273 -98.5t48 -272.5q-16 -75 -50 -138t-76.5 -108t-91.5 -86t-97.5 -79.5t-90 -78.5t-74 -94.5t-46.5 -117.5l-20 -105h-123l22 109q15 70 48.5 130t76 104t91.5 84.5t97.5 80t91 81.5t75.5 99t47 123q25 123 -30.5 202 t-178.5 79q-135 0 -220 -86t-112 -213h-123zM381 0l31 147h147l-31 -147h-147z" />
<glyph unicode="@" horiz-adv-x="1638" d="M217 733q33 155 127 296t222 242t286.5 160.5t316.5 59.5q148 0 271 -47.5t203 -129.5t112.5 -200t3.5 -252q-25 -119 -95.5 -230t-157.5 -186.5t-180.5 -121t-168.5 -45.5q-64 0 -97 34t-24 101h-4q-156 -135 -309 -135q-117 0 -175.5 91.5t-29.5 223.5 q29 139 118.5 272t222 221.5t267.5 88.5q74 0 127 -42t56 -126h4l73 131h123l-321 -588q-39 -72 -49 -119q-5 -24 8.5 -39.5t48.5 -15.5q90 0 188 73.5t170 185.5t95 224q25 117 -2.5 217.5t-95.5 169t-171 107.5t-227 39q-147 0 -287.5 -55t-248.5 -146.5t-185.5 -213 t-105.5 -253.5q-37 -174 21.5 -323.5t199 -238.5t332.5 -89q156 0 321 74t285 194h123q-133 -169 -339 -268t-413 -99q-222 0 -384.5 101.5t-230 275.5t-24.5 381zM629 600q-22 -103 19 -163t130 -60q94 0 194 81.5t168 191.5t89 208q21 94 -12.5 156.5t-114.5 62.5 t-162 -45.5t-142.5 -116.5t-106.5 -154t-62 -161z" />
<glyph unicode="A" horiz-adv-x="1478" d="M25 0l18 86h127l807 1380h147l222 -1380h127l-19 -86h-457l19 86h207l-64 442h-614l-252 -442h207l-19 -86h-456zM594 614h553l-115 754h-4z" />
<glyph unicode="B" horiz-adv-x="1253" d="M43 0l18 86h205l275 1294h-205l18 86h666q95 0 162 -23.5t100.5 -59t48.5 -84.5q15 -47 14 -90q0 -44 -10 -93q-31 -149 -124.5 -243.5t-227.5 -106.5v-4q70 -1 121 -27t76.5 -64.5t37.5 -87.5q12 -45 12 -85v-6q-1 -42 -9 -82q-38 -175 -180 -292.5t-308 -117.5h-690z M377 86h309q158 0 268 85t142 237q9 43 9 80q1 80 -41 137q-62 84 -210 84h-344zM526 795h332q125 0 222.5 83.5t125.5 211.5q10 46 10 87q0 69 -30 121q-48 82 -174 82h-361z" />
<glyph unicode="C" horiz-adv-x="1366" d="M234 535q2 95 24 198q26 124 74.5 235.5t120.5 207.5t161.5 166t204 109.5t240.5 39.5q148 0 238.5 -64t115.5 -182h4l47 221h99l-109 -514h-98q11 60 11 112q-1 126 -63 210q-88 120 -276 119q-106 0 -206 -42t-186.5 -122t-153.5 -207t-101 -287q-26 -121 -26 -221 q-1 -81 17 -147q38 -147 135.5 -220t240.5 -73q359 0 497 415h123q-74 -242 -239.5 -378t-393.5 -136q-106 0 -191 27.5t-143.5 78t-98 120t-55.5 154.5q-14 74 -14 155q1 12 1 25z" />
<glyph unicode="D" horiz-adv-x="1402" d="M43 0l18 86h205l275 1294h-205l18 86h578q131 0 233 -34.5t168.5 -98.5t104.5 -155q40 -90 42 -202v-20q0 -104 -24 -223q-71 -333 -291 -533t-544 -200h-578zM377 86h250q259 0 452 180t254 467q21 93 21 176q0 43 -6 84q-16 119 -69.5 205t-151 134t-226.5 48h-250z " />
<glyph unicode="E" horiz-adv-x="1253" d="M43 0l18 86h205l275 1294h-205l18 86h1073l-92 -432h-98l74 346h-660l-125 -585h359l51 239h98l-123 -579h-98l55 254h-358l-133 -623h670l77 369h99l-97 -455h-1083z" />
<glyph unicode="F" horiz-adv-x="1138" d="M43 0l18 86h205l275 1294h-205l18 86h1041l-95 -446h-98l76 360h-627l-131 -616h346l52 242h98l-121 -572h-98l51 244h-346l-125 -592h250l-19 -86h-565z" />
<glyph unicode="G" horiz-adv-x="1478" d="M234 535q2 95 24 198q26 124 74.5 235.5t121.5 207.5t164 166t208 109.5t247 39.5q151 0 242.5 -64t116.5 -182h4l47 221h98l-108 -514h-99q11 59 11 112q0 125 -63 210q-89 119 -280 119q-111 0 -214 -42t-191 -122t-155 -207t-101 -287q-26 -121 -26 -221 q0 -81 17 -147q39 -147 136 -220t240 -73q201 0 345 125t187 329l20 103h-241l18 86h522l-18 -86h-170l-133 -631h-111l50 236h-7q-58 -113 -199.5 -187t-275.5 -74q-106 0 -191 27.5t-143.5 78t-98 120t-55.5 154.5q-14 74 -14 155q0 12 1 25z" />
<glyph unicode="H" horiz-adv-x="1478" d="M43 0l18 86h205l275 1294h-205l18 86h520l-18 -86h-205l-125 -585h762l125 585h-205l19 86h520l-18 -86h-205l-275 -1294h205l-18 -86h-521l19 86h205l129 610h-762l-129 -610h205l-19 -86h-520z" />
<glyph unicode="I" horiz-adv-x="606" d="M43 0l18 86h205l275 1294h-205l18 86h520l-18 -86h-205l-274 -1294h205l-19 -86h-520z" />
<glyph unicode="J" horiz-adv-x="909" d="M127 393l12 58h123l-12 -54q-16 -75 -16 -132q0 -191 174 -191q116 0 191.5 76t111.5 243l209 987h-205l18 86h465l-18 -86h-150l-219 -1034q-20 -95 -63 -168t-100.5 -116.5t-121.5 -65t-133 -21.5q-284 0 -284 266q0 68 18 152z" />
<glyph unicode="K" horiz-adv-x="1251" d="M43 0l18 86h205l275 1294h-205l18 86h520l-18 -86h-205l-127 -598l733 598h-180l19 86h417l-18 -86h-98l-738 -602l471 -692h107l-18 -86h-418l18 86h176l-473 688l-145 -688h205l-19 -86h-520z" />
<glyph unicode="L" horiz-adv-x="1138" d="M43 0l18 86h205l275 1294h-205l18 86h570l-19 -86h-254l-274 -1294h604l82 385h98l-100 -471h-1018z" />
<glyph unicode="M" horiz-adv-x="1818" d="M49 0l19 86h208l275 1294h-209l18 86h410l172 -1300h4l725 1300h410l-19 -86h-209l-274 -1294h209l-19 -86h-501l18 86h182l275 1294h-10l-775 -1380h-98l-188 1380h-10l-275 -1294h182l-18 -86h-502z" />
<glyph unicode="N" horiz-adv-x="1478" d="M43 0l18 86h205l275 1294h-205l18 86h396l434 -1343h4l266 1257h-205l19 86h491l-18 -86h-176l-293 -1380h-166l-447 1380h-8l-274 -1294h205l-19 -86h-520z" />
<glyph unicode="O" horiz-adv-x="1478" d="M234 535q2 95 24 198q33 156 101.5 291t168 240.5t236.5 166t293 60.5q105 0 190 -27.5t143.5 -78t97.5 -120t55 -154.5q14 -74 14 -155q-1 -13 -1 -25q-2 -95 -24 -198q-33 -156 -101.5 -291t-168 -240.5t-236.5 -166t-293 -60.5q-105 0 -190 27.5t-143.5 78t-97.5 120 t-55 154.5q-14 74 -14 155q1 12 1 25zM368 354q37 -150 135 -221.5t249 -71.5q232 0 409 170.5t248 501.5q29 132 29 237q0 78 -16 142q-37 150 -135 221.5t-249 71.5q-232 0 -409 -170.5t-248 -501.5q-29 -132 -29 -237q0 -78 16 -142z" />
<glyph unicode="P" horiz-adv-x="1138" d="M43 0l18 86h205l275 1294h-205l18 86h623q199 0 291 -112q65 -78 64 -191q0 -48 -11 -102q-44 -206 -183 -318t-372 -112h-274l-115 -545h246l-19 -86h-561zM510 717h278q163 0 268.5 86.5t141.5 253.5q10 49 10 91q0 90 -48 148q-71 84 -245 84h-264z" />
<glyph unicode="Q" horiz-adv-x="1478" d="M234 535q2 95 24 198q33 156 101.5 291t168 240.5t236.5 166t293 60.5q105 0 190 -27.5t143.5 -78t97.5 -120t55 -154.5q14 -74 14 -155q0 -12 -1 -25q-2 -95 -24 -198q-44 -209 -151 -378t-265 -265v-4h357l-19 -86h-534q-91 -25 -187 -25q-105 0 -190 27.5t-143.5 78 t-97.5 120t-55 154.5q-14 74 -14 155q0 12 1 25zM368 354q37 -149 135 -221t249 -72q232 0 409 170.5t248 501.5q29 132 29 237q0 78 -16 142q-37 149 -135 221t-249 72q-232 0 -409 -170.5t-248 -501.5q-29 -132 -29 -237q0 -78 16 -142z" />
<glyph unicode="R" horiz-adv-x="1290" d="M43 0l18 86h205l275 1294h-205l18 86h619q217 0 295 -102q50 -66 50 -173q0 -59 -15 -130q-29 -137 -130 -234t-223 -112v-4q82 -18 112 -86.5t40 -216.5l22 -322h148l-19 -86h-243l-9 246q-4 95 -9.5 157t-17.5 113.5t-28.5 80t-44.5 48.5t-63.5 26.5t-87.5 6.5h-248 l-125 -592h205l-19 -86h-520zM520 764h271q92 0 165.5 28t117.5 74t69.5 93t36.5 98q12 55 12 101q0 86 -42 140q-64 82 -247 82h-252z" />
<glyph unicode="S" horiz-adv-x="1064" d="M102 0l107 504h98q-13 -69 -13 -131q0 -22 2 -44q6 -81 32 -140.5t84 -93.5t143 -34q148 0 251.5 88t137.5 244q6 30 6 57q0 26 -5 48q-11 46 -41 76.5t-73 57t-93.5 44.5t-103.5 39t-103.5 41t-92.5 51t-70.5 68t-38.5 93q-4 22 -4 46q0 37 9 78q40 184 171.5 291.5 t313.5 107.5q129 0 204.5 -56t100.5 -147h4l37 178h99l-105 -495h-98q14 79 14 144q-1 108 -39 178q-62 112 -223 112q-133 0 -229 -84t-123 -211q-7 -32 -7 -60q0 -25 6 -47q12 -47 41.5 -77t72.5 -55.5t94 -42t104.5 -37.5t104 -41t92 -52t69.5 -71.5t36 -99.5 q3 -21 3 -44q0 -43 -10 -92q-39 -177 -171.5 -296.5t-320.5 -119.5q-301 0 -327 230h-4l-43 -205h-99z" />
<glyph unicode="T" horiz-adv-x="1253" d="M281 1012l96 454h1122l-96 -454h-98l75 356h-407l-273 -1282h242l-18 -86h-594l18 86h242l272 1282h-407l-76 -356h-98z" />
<glyph unicode="U" horiz-adv-x="1363" d="M272 300q-2 22 -2 46q0 83 23 180l180 854h-156l19 86h487l-18 -86h-221l-183 -856q-18 -87 -18 -158q1 -118 51 -190q82 -116 260.5 -115.5t309.5 116t180 347.5l182 856h-221l18 86h488l-19 -86h-155l-181 -854q-56 -255 -215.5 -403t-404.5 -148q-133 0 -222.5 39.5 t-131.5 111.5t-50 174z" />
<glyph unicode="V" horiz-adv-x="1363" d="M287 1380l18 86h471l-18 -86h-219l168 -1257h4l700 1257h-219l18 86h471l-18 -86h-129l-784 -1380h-136l-198 1380h-129z" />
<glyph unicode="W" horiz-adv-x="1855" d="M295 1380l18 86h459l-18 -86h-230l8 -1257h5l620 1343h164l51 -1343h4l541 1257h-217l18 86h447l-19 -86h-118l-603 -1380h-153l-53 1356h-5l-630 -1356h-154l-16 1380h-119z" />
<glyph unicode="X" horiz-adv-x="1402" d="M2 0l18 86h136l626 684l-301 610h-147l18 86h471l-18 -86h-189l258 -526l480 526h-189l19 86h458l-18 -86h-147l-559 -610l331 -684h135l-18 -86h-494l19 86h223l-291 598l-544 -598h225l-19 -86h-483z" />
<glyph unicode="Y" horiz-adv-x="1253" d="M299 1380l18 86h459l-18 -86h-215l237 -657l516 657h-194l18 86h439l-19 -86h-121l-606 -768l-113 -526h242l-18 -86h-594l18 86h242l112 526l-282 768h-121z" />
<glyph unicode="Z" horiz-adv-x="1175" d="M66 0l26 123l1170 1257h-781l-73 -346h-99l92 432h977l-26 -123l-1170 -1257h824l77 369h99l-97 -455h-1019z" />
<glyph unicode="[" horiz-adv-x="569" d="M123 -340l395 1858h268l-18 -86h-158l-358 -1686h158l-19 -86h-268z" />
<glyph unicode="\" horiz-adv-x="720" d="M346 1491h111l229 -1516h-111z" />
<glyph unicode="]" horiz-adv-x="569" d="M35 -340l18 86h158l358 1686h-157l18 86h268l-395 -1858h-268z" />
<glyph unicode="^" horiz-adv-x="1228" d="M344 719l539 747h86l223 -747h-111l-184 612l-442 -612h-111z" />
<glyph unicode="_" d="M-55 -256l22 102h1024l-22 -102h-1024z" />
<glyph unicode="`" horiz-adv-x="528" d="M369 1491h163l121 -274h-110z" />
<glyph unicode="a" d="M139 287q74 344 510 344h223l19 78q12 56 12 101q0 189 -205 189q-119 0 -201 -68t-112 -179h-111q41 162 160 247.5t279 85.5q84 0 144.5 -17.5t94.5 -49.5t52 -76q16 -40 16 -87q0 -5 -1 -11q-2 -53 -13 -113l-138 -645h142l-19 -86h-239l45 215h-4 q-74 -133 -172.5 -188.5t-227.5 -55.5q-147 1 -217 85q-48 58 -47 145q0 40 10 86zM248 281q-7 -30 -6 -56q0 -62 36 -106q52 -62 158 -62q80 0 150.5 36t120 96.5t84 133.5t51.5 154l12 62q-16 0 -86 3t-106 3q-188 0 -287 -65t-127 -199z" />
<glyph unicode="b" horiz-adv-x="1138" d="M41 0l18 86h142l274 1294h-141l18 86h252l-125 -587h4q149 206 391 206q99 0 169.5 -41.5t106.5 -115.5t44 -176q2 -22 2 -45q0 -83 -22 -179q-28 -129 -77 -230.5t-104.5 -161t-121 -98.5t-122 -53t-112.5 -14q-123 0 -192.5 47t-108.5 162h-4l-39 -180h-252zM376 401 q-1 -18 -1 -36q0 -51 8 -97q11 -64 38 -110t78 -73.5t122 -27.5q110 0 202.5 64.5t152 169t87.5 237.5q19 79 19 150q0 18 -2 34q-6 86 -32.5 149.5t-85 100.5t-141.5 37q-45 0 -91 -13t-97.5 -45.5t-95 -82t-81.5 -130t-59 -181.5q-17 -77 -21 -146z" />
<glyph unicode="c" d="M202 304q-2 22 -2 45q0 83 23 179q53 253 200.5 405t371.5 152q101 0 171.5 -53.5t77.5 -144.5h5l36 170h86l-84 -391h-86q6 45 6 84q0 249 -231 249q-110 0 -202.5 -64.5t-152 -169t-87.5 -237.5q-19 -79 -19 -150q-1 -18 1 -34q6 -86 33 -149.5t85 -100.5t141 -37 q116 0 204.5 70.5t138.5 200.5h98q-47 -163 -174 -260t-285 -97q-113 0 -192 41.5t-117 115.5t-46 176z" />
<glyph unicode="d" horiz-adv-x="1138" d="M168 355q2 79 22 173q52 249 196 403t341 154q241 0 301 -206h4l107 501h-176l18 86h287l-293 -1380h141l-18 -86h-252l39 180h-4q-88 -115 -178 -162t-214 -47q-39 0 -75.5 7t-75 25t-69 45t-55 71.5t-36.5 100.5q-10 47 -11 109q1 13 1 26zM284 344q6 -86 32.5 -149.5 t85 -100.5t141.5 -37q71 0 133.5 27.5t109 74t84.5 110t63 132.5t42 146q19 84 19 150q0 17 -1 32q-6 77 -27 129t-59 83.5t-78.5 44.5t-85.5 13q-110 0 -202.5 -64.5t-152 -169t-87.5 -237.5q-19 -79 -19 -150q1 -18 2 -34z" />
<glyph unicode="e" d="M169 304q-2 22 -2 45q0 83 23 179q53 253 200.5 405t371.5 152q91 0 157 -31.5t103 -85.5t54 -128q14 -62 14 -130v-28q-4 -82 -23 -174h-770q-17 -82 -17 -151q0 -105 40 -179q64 -122 223 -121q264 0 364 258h99q-65 -170 -191 -257t-291 -87q-113 0 -192 41.5 t-117 115.5t-46 176zM315 594h660q13 70 13 128q0 102 -40 170q-63 106 -219 107q-137 0 -248 -111t-166 -294z" />
<glyph unicode="f" horiz-adv-x="569" d="M41 0l18 86h164l189 885h-164l18 86h164l19 88q73 346 362 346q21 0 119 -10l-19 -86q-82 10 -100 10q-100 0 -160.5 -55.5t-87.5 -184.5l-22 -108h217l-19 -86h-217l-188 -885h188l-18 -86h-463z" />
<glyph unicode="g" horiz-adv-x="1138" d="M115 -92h110v-10q0 -99 61 -139q63 -42 181 -42q172 0 263.5 86.5t137.5 305.5l29 131h-4q-61 -118 -165.5 -179t-229.5 -61q-81 0 -143.5 28.5t-100.5 79t-60 118.5q-19 63 -19 135v14q2 80 18 168q24 111 72 208t115.5 172t157.5 118.5t191 43.5q121 0 200.5 -58.5 t94.5 -168.5h4l43 199h264l-18 -86h-154l-196 -920q-45 -215 -175.5 -317.5t-349.5 -102.5q-59 0 -109.5 8.5t-96 28.5t-75 51t-43.5 79q-7 28 -7 60q0 24 4 50zM287 407v-8q0 -59 14 -113q15 -59 44.5 -103t81.5 -70.5t120 -26.5q77 0 147.5 40t122.5 105.5t88 144 t53 159.5q19 90 19 165q0 100 -34 172q-60 127 -208 127q-155 0 -272 -126.5t-162 -337.5q-13 -65 -14 -128z" />
<glyph unicode="h" horiz-adv-x="1138" d="M41 0l18 86h164l275 1294h-164l18 86h275l-123 -575h4q128 194 352 194q166 0 222 -95q31 -54 31 -141q0 -68 -19 -155l-129 -608h151l-18 -86h-439l19 86h176l129 608q15 68 15 121q0 67 -25 109q-44 74 -166 75q-125 0 -225.5 -107.5t-139.5 -289.5l-108 -516h164 l-19 -86h-438z" />
<glyph unicode="i" horiz-adv-x="530" d="M29 0l18 86h176l189 885h-176l18 86h287l-207 -971h164l-19 -86h-450zM465 1278l31 147h135l-31 -147h-135z" />
<glyph unicode="j" horiz-adv-x="491" d="M-80 -354l19 86q43 -15 73 -15q81 0 115.5 42.5t56.5 144.5l228 1067h-176l18 86h287l-254 -1192q-26 -122 -89.5 -178t-195.5 -56q-48 0 -82 15zM465 1278l31 147h135l-31 -147h-135z" />
<glyph unicode="k" d="M41 0l18 86h164l275 1294h-164l18 86h275l-203 -954l545 459h-140l19 86h369l-19 -86h-119l-362 -305l205 -580h106l-18 -86h-348l18 86h131l-182 504l-230 -195l-65 -309h164l-19 -86h-438z" />
<glyph unicode="l" horiz-adv-x="491" d="M29 0l18 86h176l275 1294h-176l18 86h287l-293 -1380h164l-19 -86h-450z" />
<glyph unicode="m" horiz-adv-x="1708" d="M41 0l18 86h164l189 885h-164l18 86h275l-37 -172h4q51 89 140.5 144.5t195.5 55.5q119 0 176 -60.5t59 -156.5h4q55 101 146.5 159t202.5 58q148 -1 212 -91q42 -59 41 -148q0 -49 -12 -107l-139 -653h152l-19 -86h-438l18 86h176l133 629q12 56 12 101q0 68 -27 111 q-45 72 -159 72q-104 0 -199 -92.5t-126 -240.5l-123 -580h151l-18 -86h-438l18 86h176l129 608q15 69 15 122q0 66 -23 108q-41 76 -131 75q-127 0 -227 -97t-137 -273l-115 -543h164l-19 -86h-438z" />
<glyph unicode="n" horiz-adv-x="1138" d="M41 0l18 86h164l189 885h-164l18 86h275l-37 -166h4q128 194 352 194q166 0 222 -95q31 -54 31 -141q0 -68 -19 -155l-129 -608h151l-18 -86h-439l19 86h176l129 608q15 68 15 121q0 67 -25 109q-44 74 -166 75q-125 0 -225.5 -107.5t-139.5 -289.5l-108 -516h164 l-19 -86h-438z" />
<glyph unicode="o" horiz-adv-x="1060" d="M183 240q-11 54 -11 116q0 80 18 172q52 247 208 402t364 155q113 0 192 -41.5t116.5 -115.5t45.5 -176q2 -23 2 -46q0 -83 -22 -178q-53 -247 -208.5 -402t-363.5 -155q-138 0 -227 72.5t-114 196.5zM284 344q6 -86 32.5 -149.5t85 -100.5t141.5 -37q147 0 271.5 126.5 t170.5 344.5q19 79 19 150q0 18 -2 34q-6 86 -32.5 149.5t-85 100.5t-141.5 37q-147 0 -271.5 -126.5t-170.5 -344.5q-19 -79 -19 -150q1 -18 2 -34z" />
<glyph unicode="p" horiz-adv-x="1138" d="M-51 -340l18 86h162l260 1225h-162l19 86h272l-43 -197h4q91 124 181.5 174.5t213.5 50.5q46 0 88 -10t86.5 -34t75 -65t52.5 -103q21 -57 21 -133v-14q-2 -85 -23 -198q-54 -249 -197.5 -403t-339.5 -154q-240 0 -303 207h-4l-90 -432h168l-19 -86h-440zM370 354v-8 q0 -65 14 -110q15 -48 39.5 -84t58 -56t68 -29.5t71.5 -9.5q110 0 202.5 64.5t152 169t87.5 237.5q19 79 19 150q0 17 -2 34q-5 85 -32 149t-85.5 101t-141.5 37q-88 0 -162.5 -41t-126.5 -112t-87.5 -155t-55.5 -181q-18 -85 -19 -156z" />
<glyph unicode="q" horiz-adv-x="1138" d="M170 304q-2 22 -2 44q0 84 22 180q28 129 77 230.5t104.5 161t121 98.5t122 53t112.5 14q124 0 192.5 -50.5t104.5 -174.5h4l43 197h272l-18 -86h-162l-260 -1225h162l-18 -86h-441l19 86h168l90 432h-4q-147 -207 -390 -207q-99 0 -170 41.5t-106.5 115.5t-42.5 176z M284 344q5 -85 32 -149t85.5 -101t141.5 -37q45 0 91 13t97 45.5t94.5 82.5t81.5 130.5t60 181.5q21 99 21 185q0 82 -22 151q-22 71 -78.5 112t-144.5 41q-110 0 -202.5 -64.5t-152 -169t-87.5 -237.5q-19 -79 -19 -150q0 -17 2 -34z" />
<glyph unicode="r" horiz-adv-x="681" d="M41 0l18 86h164l189 885h-164l18 86h275l-41 -189h4q54 104 140.5 160.5t182.5 56.5q38 0 56 -6l-21 -98q-15 6 -49 6q-141 0 -237 -105t-134 -280l-108 -516h201l-19 -86h-475z" />
<glyph unicode="s" horiz-adv-x="909" d="M86 0l78 371h86q-7 -46 -7 -85q-1 -93 41 -149q60 -80 183 -80q119 0 201.5 61t105.5 169q7 31 7 56q1 51 -27 79q-40 40 -166 61l-129 21q-210 33 -210 191q0 29 7 61q34 153 152.5 241t259.5 88q206 0 247 -153h5l26 125h86l-78 -363h-86l13 58q8 35 8 65q0 71 -43 117 q-61 65 -180 65q-113 0 -193 -63.5t-102 -165.5q-5 -21 -5 -40q0 -106 154 -130l150 -25q140 -23 191 -90q34 -45 35 -114q0 -34 -9 -74q-35 -160 -149 -243t-285 -83q-215 0 -248 170h-2l-31 -141h-86z" />
<glyph unicode="t" horiz-adv-x="681" d="M223 971l19 86h188l47 225l119 41l-55 -266h284l-18 -86h-285l-157 -740q-9 -43 -9 -75q0 -35 11 -57q21 -42 65 -42q125 0 170 203l4 23h86l-8 -39q-25 -123 -101 -198t-180 -75q-105 0 -142 59q-22 36 -22 93q0 37 9 84l164 764h-189z" />
<glyph unicode="u" horiz-adv-x="1138" d="M248 971l18 86h262l-147 -695q-15 -68 -15 -121q0 -67 25 -109q44 -74 166 -74.5t223 103.5t138 281l112 529h-164l19 86h274l-207 -971h164l-18 -86h-275l37 172h-4q-62 -95 -154 -148t-198 -53q-166 0 -222 95q-31 54 -31 141q0 68 19 155l129 609h-151z" />
<glyph unicode="v" d="M231 971l19 86h352l-18 -86h-150l103 -848h4l463 848h-150l18 86h353l-19 -86h-92l-539 -971h-135l-116 971h-93z" />
<glyph unicode="w" horiz-adv-x="1630" d="M240 971l18 86h369l-19 -86h-164l68 -848h4l451 934h147l53 -934h4l428 848h-147l18 86h353l-19 -86h-94l-491 -971h-148l-53 946h-4l-455 -946h-147l-78 971h-94z" />
<glyph unicode="x" horiz-adv-x="1060" d="M33 0l18 86h92l437 459l-222 426h-90l19 86h360l-18 -86h-148l181 -353l335 353h-131l19 86h360l-18 -86h-107l-405 -426l239 -459h93l-19 -86h-360l18 86h145l-200 385l-365 -385h146l-19 -86h-360z" />
<glyph unicode="y" d="M100 -356l19 86q29 -13 82 -13q44 0 75 18.5t75.5 78t117.5 186.5l-141 971h-97l19 86h360l-18 -86h-154l119 -811h4l463 811h-154l19 86h336l-19 -86h-71l-650 -1121q-72 -127 -138 -173t-148 -46q-62 0 -99 13z" />
<glyph unicode="z" horiz-adv-x="948" d="M102 0l23 104l809 867h-520l-45 -209h-99l64 295h729l-23 -105l-809 -866h535l51 242h98l-69 -328h-744z" />
<glyph unicode="{" horiz-adv-x="569" d="M188 545l17 86q77 0 132.5 84.5t82.5 212.5l74 340q25 115 91.5 182.5t151.5 67.5h105l-19 -86h-98q-42 0 -76 -56t-53 -139l-72 -344q-15 -72 -46.5 -132t-66 -94.5t-61 -53t-43.5 -23.5v-4q11 -4 25.5 -15.5t32 -35.5t27.5 -58.5t13 -84t-12 -111.5l-71 -340 q-19 -75 -8 -135t53 -60h98l-19 -86h-104q-86 0 -124 68t-13 182l71 336q15 81 16 147.5t-25.5 109t-78.5 42.5z" />
<glyph unicode="|" horiz-adv-x="788" d="M506 -573v2293h94v-2293h-94z" />
<glyph unicode="}" horiz-adv-x="569" d="M-20 -340l18 86h98q41 0 74.5 56t52.5 139l72 340q15 74 46.5 134.5t66 94.5t61 52.5t43.5 23.5v4q-11 4 -25.5 15.5t-32 35.5t-27.5 58.5t-13 83.5t12 110l72 344q20 77 9.5 136t-52.5 59h-99l19 86h104q86 0 124 -68t13 -182l-73 -340q-15 -80 -16 -146t25.5 -108.5 t78.5 -42.5l-17 -86q-77 0 -132.5 -85t-82.5 -214l-71 -336q-25 -114 -91.5 -182t-152.5 -68h-104z" />
<glyph unicode="~" horiz-adv-x="1228" d="M240 463q125 172 292 172q92 0 224 -66q46 -24 69 -35t57 -22.5t58 -11.5q87 0 211 145l59 -65q-142 -179 -292 -179q-55 0 -110.5 21.5t-94 46.5t-96 46.5t-115.5 21.5q-50 0 -104.5 -37.5t-98.5 -108.5z" />
<glyph unicode="&#xa1;" horiz-adv-x="679" d="M193 -344l276 1151h86l-215 -1151h-147zM473 975l31 147h147l-30 -147h-148z" />
<glyph unicode="&#xa2;" d="M223 528q52 239 184.5 388t337.5 169l37 175h74l-37 -175q96 -11 157.5 -63t67.5 -135h5l36 170h86l-84 -391h-86q20 159 -30 240t-170 93l-201 -938q225 18 318 267h98q-44 -155 -161 -249.5t-273 -103.5l-37 -178h-74l37 178q-196 17 -266 166t-19 387zM319.5 306.5 q8.5 -98.5 62 -165t144.5 -80.5l201 938q-147 -24 -250 -153.5t-143 -317.5q-23 -123 -14.5 -221.5z" />
<glyph unicode="&#xa3;" d="M55 0l19 86h174l147 696h-174l19 86h174l41 195q41 193 156.5 310.5t301.5 117.5q166 0 237 -87.5t42 -248.5h-111q49 250 -190 250q-131 0 -211 -91.5t-119 -277.5l-37 -168h256l-18 -86h-256l-148 -696h496l49 231h111l-68 -317h-891z" />
<glyph unicode="&#xa4;" d="M117 338l127 104q-45 74 -52.5 159t18 162.5t66 144.5t91.5 118l-82 102l88 72l82 -102q148 102 313 102q161 0 268 -102l127 102l56 -72l-125 -102q43 -74 50 -159.5t-17 -163t-65 -144.5t-93 -117l82 -104l-86 -72l-84 105q-67 -50 -147.5 -77.5t-164.5 -27.5 q-165 0 -270 105l-125 -105zM311 733q-35 -165 43 -266.5t236 -101.5t278.5 101.5t155.5 266.5t-43 267t-236 102q-157 0 -278 -102t-156 -267z" />
<glyph unicode="&#xa5;" d="M233 393l19 86h313l29 133l-10 56h-293l18 86h252l-164 626h-100l18 86h375l-18 -86h-176l163 -626h25l430 626h-160l19 86h358l-18 -86h-101l-430 -626h252l-18 -86h-291l-33 -56l-28 -133h313l-19 -86h-313l-65 -307h192l-18 -86h-484l19 86h192l66 307h-314z" />
<glyph unicode="&#xa6;" horiz-adv-x="790" d="M506 -399v800h94v-800h-94zM506 748v800h94v-800h-94z" />
<glyph unicode="&#xa7;" d="M172 135h111q-25 -128 28.5 -193t167.5 -65q40 0 83.5 10.5t89.5 33t81.5 67t48.5 104.5q10 49 -3.5 87.5t-44.5 63.5t-73.5 47.5t-90.5 39t-96 37.5t-89.5 44t-71 58.5t-41 80t1.5 109.5q20 86 87 165.5t169 105.5q-160 91 -124 268q24 114 140.5 203.5t260.5 89.5 q368 0 303 -365h-111q37 267 -204 267q-111 0 -186 -56.5t-93 -144.5q-12 -57 13.5 -101.5t74 -74t110 -56t122 -55t108 -63t70.5 -88.5t8 -123q-18 -89 -79.5 -162t-162.5 -111q151 -90 111 -272q-31 -145 -151 -226t-277 -81q-169 0 -249.5 86.5t-41.5 269.5zM385 607 q7 -33 34.5 -64.5t97.5 -69t185 -80.5q86 37 139 95.5t66 115.5q12 57 -6 95.5t-88.5 83.5t-216.5 104q-87 -27 -140 -88.5t-67 -126.5q-11 -32 -4 -65z" />
<glyph unicode="&#xa8;" horiz-adv-x="528" d="M281 1282l28 135h135l-28 -135h-135zM657 1282l29 135h135l-28 -135h-136z" />
<glyph unicode="&#xa9;" horiz-adv-x="1638" d="M201.5 531.5q-8.5 96.5 15.5 201.5q32 154 122.5 294.5t213.5 242t276.5 161.5t307.5 60q103 0 195.5 -27t164.5 -76.5t128 -118.5t85.5 -153.5t38 -181.5t-15.5 -201q-32 -154 -122.5 -294.5t-213.5 -242t-276.5 -161.5t-307.5 -60q-103 0 -195.5 27t-164.5 76.5 t-128 118.5t-85.5 153.5t-38 181zM316.5 522q9.5 -99 53.5 -181.5t110 -141.5t158 -92t198 -33q132 0 262.5 51t235.5 138.5t182 210t106 259.5q39 182 -15 334t-184 239t-307 87t-344 -87t-286 -239t-158 -334q-21 -112 -11.5 -211zM563 733q42 200 187.5 329.5 t341.5 129.5q148 0 234.5 -81t76.5 -224h-117q0 89 -56.5 148t-156.5 59q-149 0 -258 -103.5t-141 -255.5q-20 -95 1.5 -177.5t86 -134.5t160.5 -52q100 0 182 61t119 152h116q-63 -142 -183.5 -227t-270.5 -85q-121 0 -204.5 61.5t-114 166.5t-3.5 233z" />
<glyph unicode="&#xaa;" horiz-adv-x="665" d="M260 1012q46 207 334 207h139l8 36q19 89 -15 132t-108 43q-73 0 -123.5 -41.5t-68.5 -108.5h-86q28 105 105.5 158t185.5 53q136 0 180 -57t23 -156l-80 -377h92l-15 -61h-165l28 129h-6q-45 -80 -107.5 -113t-146.5 -33q-100 0 -146.5 50t-27.5 139zM344 1004 q-11 -50 23 -84.5t98 -34.5q95 0 161.5 71t86.5 160l8 41h-121q-116 0 -177 -38t-79 -115z" />
<glyph unicode="&#xab;" horiz-adv-x="909" d="M281 561l270 447h98l-270 -447l80 -446h-99zM594 561l270 447h99l-271 -447l80 -446h-98z" />
<glyph unicode="&#xac;" horiz-adv-x="1228" d="M238 662l22 110h1036l-116 -551h-111l94 441h-925z" />
<glyph unicode="&#xad;" horiz-adv-x="757" d="M242 512l20 98h492l-21 -98h-491z" />
<glyph unicode="&#xae;" horiz-adv-x="1638" d="M201.5 531.5q-8.5 96.5 15.5 201.5q32 154 122.5 294.5t213.5 242t276.5 161.5t307.5 60q103 0 195.5 -27t164.5 -76.5t128 -118.5t85.5 -153.5t38 -181.5t-15.5 -201q-32 -154 -122.5 -294.5t-213.5 -242t-276.5 -161.5t-307.5 -60q-103 0 -195.5 27t-164.5 76.5 t-128 118.5t-85.5 153.5t-38 181zM316.5 522q9.5 -99 53.5 -181.5t110 -141.5t158 -92t198 -33q132 0 262.5 51t235.5 138.5t182 210t106 259.5q39 182 -15 334t-184 239t-307 87t-344 -87t-286 -239t-158 -334q-21 -112 -11.5 -211zM598 287l188 891h338q152 0 215 -61 t37 -181q-23 -111 -99 -173t-173 -77l162 -399h-111l-162 399h-213l-84 -399h-98zM799 772h194q39 0 63.5 1.5t58.5 6t56.5 15t45.5 28t38 45.5t23 66q11 39 4 66.5t-20.5 45.5t-39.5 28t-53.5 14t-62.5 4h-240z" />
<glyph unicode="&#xaf;" horiz-adv-x="528" d="M279 1307l18 86h528l-18 -86h-528z" />
<glyph unicode="&#xb0;" horiz-adv-x="819" d="M371 1198q26 122 130.5 207.5t225.5 85.5t188 -85.5t41 -207.5q-25 -121 -128.5 -207t-225.5 -86q-121 0 -188.5 85.5t-42.5 207.5zM457 1198q-19 -86 29.5 -146.5t134.5 -60.5t158 60t91 147q19 86 -28 146.5t-133 60.5t-159.5 -60.5t-92.5 -146.5z" />
<glyph unicode="&#xb1;" horiz-adv-x="1228" d="M96 0l23 111h1036l-22 -111h-1037zM215 555l23 111h462l80 370h111l-80 -370h463l-23 -111h-463l-79 -371h-111l80 371h-463z" />
<glyph unicode="&#xb2;" horiz-adv-x="665" d="M170 596l20 102q343 284 454.5 394.5t125.5 175.5q11 59 -23 104t-102 45q-83 0 -143 -56.5t-82 -146.5h-98q39 135 119 206t221 71q124 0 175 -62.5t31 -160.5q-14 -63 -58 -121t-126 -129l-412 -348h408l29 139h86l-45 -213h-580z" />
<glyph unicode="&#xb3;" horiz-adv-x="665" d="M236 724q-9 52 4 130h98q-20 -89 21 -144t114 -55q82 0 140.5 55t72.5 119q21 94 -30.5 137t-161.5 46l16 73q65 0 115 16t78.5 42.5t43.5 53t21 56.5q14 65 -22.5 114.5t-110.5 49.5q-66 0 -123 -46.5t-90 -145.5h-98q32 120 117 193t206 73q128 0 185 -68.5t34 -173.5 q-18 -78 -80 -136t-149 -64l-2 -7q88 -12 127.5 -71t21.5 -142q-25 -115 -113 -181t-218 -66q-54 0 -97 13.5t-77 45t-43 83.5z" />
<glyph unicode="&#xb4;" horiz-adv-x="528" d="M391 1217l240 274h164l-293 -274h-111z" />
<glyph unicode="&#xb5;" horiz-adv-x="1138" d="M121 -340l278 1311h-151l18 86h262l-147 -695q-34 -156 10 -230.5t166 -74.5t223 104t138 281l112 529h-164l19 86h274l-207 -971h164l-18 -86h-275l37 172h-4q-61 -95 -152 -148t-188 -53q-65 0 -119 24.5t-75 72.5h-5l-86 -408h-110z" />
<glyph unicode="&#xb6;" horiz-adv-x="1228" d="M393 1104q36 177 166 269.5t330 92.5h430l-352 -1663h-111l332 1565h-240l-332 -1565h-110l201 951q-167 0 -256 102t-58 248z" />
<glyph unicode="&#xb7;" horiz-adv-x="512" d="M309 598l31 147h147l-30 -147h-148z" />
<glyph unicode="&#xb8;" horiz-adv-x="528" d="M-33 -350l49 69q77 -45 146 -45q37 0 70 24t40 58q7 37 -20 56.5t-72 19.5q-30 0 -63 -10l-23 39l135 149h86l-100 -104q95 -2 139.5 -37t28.5 -113q-14 -70 -82.5 -112.5t-148.5 -42.5q-121 0 -185 49z" />
<glyph unicode="&#xb9;" horiz-adv-x="665" d="M313 596l13 61h143l156 734h-4q-47 -46 -91.5 -75t-150.5 -85l14 74q119 67 244 172h92l-174 -820h133l-12 -61h-363z" />
<glyph unicode="&#xba;" horiz-adv-x="636" d="M262 1157q32 153 127 243.5t246 90.5q152 0 207.5 -90t23.5 -244q-32 -153 -127 -243.5t-247 -90.5q-151 0 -206.5 90.5t-23.5 243.5zM348 1157q-25 -115 16 -193.5t142 -78.5q102 0 175.5 78.5t98.5 193.5q13 75 4 135.5t-51.5 99t-111.5 38.5q-101 0 -174.5 -79 t-98.5 -194z" />
<glyph unicode="&#xbb;" horiz-adv-x="909" d="M186 115l269 446l-78 447h98l78 -447l-268 -446h-99zM500 115l268 446l-78 447h98l78 -447l-268 -446h-98z" />
<glyph unicode="&#xbc;" horiz-adv-x="1536" d="M227 -55l1274 1577h86l-1274 -1577h-86zM297 596l12 61h144l155 734h-4q-47 -46 -91.5 -75t-150.5 -85l15 74q119 67 244 172h92l-174 -820h133l-13 -61h-362zM848 252l20 92l506 535h117l-119 -566h131l-14 -61h-131l-41 -191h117l-13 -61h-354l12 61h152l41 191h-424z M924 313h362l105 492h-5z" />
<glyph unicode="&#xbd;" horiz-adv-x="1536" d="M227 -55l1274 1577h86l-1274 -1577h-86zM297 596l12 61h144l155 734h-4q-47 -46 -91.5 -75t-150.5 -85l15 74q119 67 244 172h92l-174 -820h133l-13 -61h-362zM918 0l22 102q236 196 355 303.5t166.5 165.5t56.5 103q13 58 -22 103.5t-103 45.5q-82 0 -142 -55.5 t-84 -146.5h-98q41 135 120.5 205.5t219.5 70.5q125 0 176.5 -62.5t30.5 -160.5q-13 -64 -57 -122t-127 -130l-412 -348h407l29 139h86l-45 -213h-579z" />
<glyph unicode="&#xbe;" horiz-adv-x="1536" d="M217 724q-9 52 4 130h98q-20 -89 21 -144t115 -55q82 0 140.5 55t72.5 119q21 93 -31 136.5t-162 46.5l17 73q65 0 115 16t78.5 42.5t43.5 53t21 56.5q14 64 -23 114t-111 50q-66 0 -123 -46.5t-90 -145.5h-98q32 120 117.5 193t206.5 73q128 0 185 -68.5t34 -173.5 q-18 -78 -80.5 -136t-149.5 -64l-2 -7q88 -12 128 -71t22 -142q-25 -114 -113.5 -180.5t-218.5 -66.5q-54 0 -97 13.5t-77 45t-43 83.5zM291 -55l1274 1577h86l-1274 -1577h-86zM909 252l21 92l506 535h116l-118 -566h131l-15 -61h-131l-41 -191h117l-12 -61h-355l13 61h151 l41 191h-424zM985 313h363l104 492h-4z" />
<glyph unicode="&#xbf;" d="M131 2q16 75 50 138t77 108.5t92 86t97 79t90 79t74.5 95t45.5 117.5l23 104h123l-23 -109q-15 -70 -48.5 -130t-76 -104t-91.5 -84.5t-97.5 -80t-90.5 -81.5t-75 -99t-47 -123q-27 -123 29 -202t180 -79q135 0 220 86t112 213h123q-49 -188 -175 -286.5t-288 -98.5 q-189 0 -275 99t-49 272zM702 975l31 147h148l-31 -147h-148z" />
<glyph unicode="&#xc0;" horiz-adv-x="1478" d="M25 0l18 86h127l807 1380h147l222 -1380h127l-19 -86h-457l19 86h207l-64 442h-614l-252 -442h207l-19 -86h-456zM594 614h553l-115 754h-4zM913 1819h164l121 -275h-111z" />
<glyph unicode="&#xc1;" horiz-adv-x="1478" d="M25 0l18 86h127l807 1380h147l222 -1380h127l-19 -86h-457l19 86h207l-64 442h-614l-252 -442h207l-19 -86h-456zM594 614h553l-115 754h-4zM936 1544l240 275h163l-292 -275h-111z" />
<glyph unicode="&#xc2;" horiz-adv-x="1478" d="M25 0l18 86h127l807 1380h147l222 -1380h127l-19 -86h-457l19 86h207l-64 442h-614l-252 -442h207l-19 -86h-456zM594 614h553l-115 754h-4zM797 1544l268 275h123l149 -275h-123l-104 201l-190 -201h-123z" />
<glyph unicode="&#xc3;" horiz-adv-x="1478" d="M25 0l18 86h127l807 1380h147l222 -1380h127l-19 -86h-457l19 86h207l-64 442h-614l-252 -442h207l-19 -86h-456zM594 614h553l-115 754h-4zM780 1589q66 183 199 183q63 0 137 -43q86 -48 119 -48q58 0 102 80h74q-29 -90 -83 -134t-116 -44q-16 0 -33.5 5t-28 9.5 t-32 15.5t-28.5 15q-4 2 -28.5 14.5t-34 16.5t-29 9t-37.5 5q-34 0 -63 -22.5t-44 -61.5h-74z" />
<glyph unicode="&#xc4;" horiz-adv-x="1478" d="M25 0l18 86h127l807 1380h147l222 -1380h127l-19 -86h-457l19 86h207l-64 442h-614l-252 -442h207l-19 -86h-456zM594 614h553l-115 754h-4zM825 1610l29 135h135l-28 -135h-136zM1202 1610l29 135h135l-29 -135h-135z" />
<glyph unicode="&#xc5;" horiz-adv-x="1478" d="M25 0l18 86h127l807 1380h147l222 -1380h127l-19 -86h-457l19 86h207l-64 442h-614l-252 -442h207l-19 -86h-456zM594 614h553l-115 754h-4zM915 1700q17 76 83 130t143 54t118.5 -54t24.5 -130q-15 -76 -80.5 -130t-142.5 -54q-76 0 -118.5 53.5t-27.5 130.5zM989 1700 q-9 -46 16.5 -78.5t71.5 -32.5t85 32.5t48 78.5q10 46 -15 78t-71 32t-85 -32t-50 -78z" />
<glyph unicode="&#xc6;" horiz-adv-x="1933" d="M25 0l18 86h84l1003 1380h992l-92 -432h-99l74 346h-702l-39 -585h315l51 239h99l-119 -561h-99l52 236h-303l-46 -623h537l82 387h98l-100 -473h-973l19 86h227l33 442h-582l-317 -442h211l-19 -86h-405zM612 614h531l49 766h-18z" />
<glyph unicode="&#xc7;" horiz-adv-x="1366" d="M233.5 508q2.5 107 24.5 225q26 124 74.5 235.5t120.5 207.5t161.5 166t204 109.5t240.5 39.5q148 0 238.5 -64t115.5 -182h4l47 221h99l-109 -514h-98q37 202 -51.5 321.5t-276.5 119.5q-106 0 -206 -42t-186.5 -122t-153.5 -207t-101 -287q-47 -221 -8.5 -368 t135.5 -220t240 -73q359 0 497 415h123q-73 -235 -229 -370t-375 -144l-68 -69q95 -2 139.5 -37t28.5 -113q-14 -70 -82.5 -112.5t-148.5 -42.5q-120 0 -184 49l49 69q77 -45 145 -45q37 0 70.5 24.5t40.5 57.5q7 37 -20 56.5t-72 19.5q-31 0 -64 -10l-23 39l107 119 q-114 8 -201.5 52t-139.5 113.5t-81 162.5t-26.5 200z" />
<glyph unicode="&#xc8;" horiz-adv-x="1253" d="M43 0l18 86h205l275 1294h-205l18 86h1073l-92 -432h-98l74 346h-660l-125 -585h359l51 239h98l-123 -579h-98l55 254h-358l-133 -623h670l77 369h99l-97 -455h-1083zM801 1819h164l120 -275h-110z" />
<glyph unicode="&#xc9;" horiz-adv-x="1253" d="M43 0l18 86h205l275 1294h-205l18 86h1073l-92 -432h-98l74 346h-660l-125 -585h359l51 239h98l-123 -579h-98l55 254h-358l-133 -623h670l77 369h99l-97 -455h-1083zM823 1544l240 275h164l-293 -275h-111z" />
<glyph unicode="&#xca;" horiz-adv-x="1253" d="M43 0l18 86h205l275 1294h-205l18 86h1073l-92 -432h-98l74 346h-660l-125 -585h359l51 239h98l-123 -579h-98l55 254h-358l-133 -623h670l77 369h99l-97 -455h-1083zM684 1544l268 275h123l150 -275h-123l-105 201l-190 -201h-123z" />
<glyph unicode="&#xcb;" horiz-adv-x="1253" d="M43 0l18 86h205l275 1294h-205l18 86h1073l-92 -432h-98l74 346h-660l-125 -585h359l51 239h98l-123 -579h-98l55 254h-358l-133 -623h670l77 369h99l-97 -455h-1083zM713 1610l28 135h136l-29 -135h-135zM1090 1610l28 135h135l-28 -135h-135z" />
<glyph unicode="&#xcc;" horiz-adv-x="606" d="M43 0l18 86h205l275 1294h-205l18 86h520l-18 -86h-205l-274 -1294h205l-19 -86h-520zM489 1819h164l121 -275h-110z" />
<glyph unicode="&#xcd;" horiz-adv-x="606" d="M43 0l18 86h205l275 1294h-205l18 86h520l-18 -86h-205l-274 -1294h205l-19 -86h-520zM512 1544l240 275h163l-292 -275h-111z" />
<glyph unicode="&#xce;" horiz-adv-x="606" d="M43 0l18 86h205l275 1294h-205l18 86h520l-18 -86h-205l-274 -1294h205l-19 -86h-520zM373 1544l268 275h123l149 -275h-122l-105 201l-190 -201h-123z" />
<glyph unicode="&#xcf;" horiz-adv-x="606" d="M43 0l18 86h205l275 1294h-205l18 86h520l-18 -86h-205l-274 -1294h205l-19 -86h-520zM401 1610l29 135h135l-28 -135h-136zM778 1610l29 135h135l-29 -135h-135z" />
<glyph unicode="&#xd0;" horiz-adv-x="1402" d="M43 0l18 86h205l142 668h-205l18 86h205l115 540h-205l18 86h578q131 0 233 -34.5t168.5 -98.5t105 -154.5t41 -202.5t-23.5 -243q-71 -333 -291 -533t-544 -200h-578zM377 86h250q259 0 452 180t254 467q32 141 15.5 260t-70 205t-151 134t-226.5 48h-250l-114 -540h385 l-19 -86h-385z" />
<glyph unicode="&#xd1;" horiz-adv-x="1478" d="M43 0l18 86h205l275 1294h-205l18 86h396l434 -1343h4l266 1257h-205l19 86h491l-18 -86h-176l-293 -1380h-166l-447 1380h-8l-274 -1294h205l-19 -86h-520zM793 1589q66 183 198 183q63 0 137 -43q86 -48 119 -48q59 0 103 80h73q-29 -90 -82.5 -134t-115.5 -44 q-45 0 -124.5 45t-127.5 45q-34 0 -63 -22.5t-44 -61.5h-73z" />
<glyph unicode="&#xd2;" horiz-adv-x="1478" d="M233.5 535q2.5 95 24.5 198q33 156 101.5 291t168 240.5t236.5 166t293 60.5q105 0 190 -27.5t143.5 -78t97.5 -120t55 -154.5t13.5 -180t-24.5 -198q-33 -156 -101.5 -291t-168 -240.5t-236.5 -166t-293 -60.5q-105 0 -190 27.5t-143.5 78t-97.5 120t-55 154.5 t-13.5 180zM368 354.5q37 -149.5 135 -221.5t249 -72q232 0 409 170.5t248 501.5q50 229 13 378.5t-135 221.5t-249 72q-232 0 -409 -170.5t-248 -501.5q-50 -229 -13 -378.5zM950 1819h164l121 -275h-111z" />
<glyph unicode="&#xd3;" horiz-adv-x="1478" d="M233.5 535q2.5 95 24.5 198q33 156 101.5 291t168 240.5t236.5 166t293 60.5q105 0 190 -27.5t143.5 -78t97.5 -120t55 -154.5t13.5 -180t-24.5 -198q-33 -156 -101.5 -291t-168 -240.5t-236.5 -166t-293 -60.5q-105 0 -190 27.5t-143.5 78t-97.5 120t-55 154.5 t-13.5 180zM368 354.5q37 -149.5 135 -221.5t249 -72q232 0 409 170.5t248 501.5q50 229 13 378.5t-135 221.5t-249 72q-232 0 -409 -170.5t-248 -501.5q-50 -229 -13 -378.5zM973 1544l239 275h164l-293 -275h-110z" />
<glyph unicode="&#xd4;" horiz-adv-x="1478" d="M233.5 535q2.5 95 24.5 198q33 156 101.5 291t168 240.5t236.5 166t293 60.5q105 0 190 -27.5t143.5 -78t97.5 -120t55 -154.5t13.5 -180t-24.5 -198q-33 -156 -101.5 -291t-168 -240.5t-236.5 -166t-293 -60.5q-105 0 -190 27.5t-143.5 78t-97.5 120t-55 154.5 t-13.5 180zM368 354.5q37 -149.5 135 -221.5t249 -72q232 0 409 170.5t248 501.5q50 229 13 378.5t-135 221.5t-249 72q-232 0 -409 -170.5t-248 -501.5q-50 -229 -13 -378.5zM834 1544l268 275h123l149 -275h-123l-104 201l-191 -201h-122z" />
<glyph unicode="&#xd5;" horiz-adv-x="1478" d="M233.5 535q2.5 95 24.5 198q33 156 101.5 291t168 240.5t236.5 166t293 60.5q105 0 190 -27.5t143.5 -78t97.5 -120t55 -154.5t13.5 -180t-24.5 -198q-33 -156 -101.5 -291t-168 -240.5t-236.5 -166t-293 -60.5q-105 0 -190 27.5t-143.5 78t-97.5 120t-55 154.5 t-13.5 180zM368 354.5q37 -149.5 135 -221.5t249 -72q232 0 409 170.5t248 501.5q50 229 13 378.5t-135 221.5t-249 72q-232 0 -409 -170.5t-248 -501.5q-50 -229 -13 -378.5zM817 1589q66 183 199 183q63 0 137 -43q86 -48 119 -48q58 0 102 80h74q-29 -90 -83 -134 t-116 -44q-45 0 -124.5 45t-127.5 45q-34 0 -62.5 -22.5t-43.5 -61.5h-74z" />
<glyph unicode="&#xd6;" horiz-adv-x="1478" d="M233.5 535q2.5 95 24.5 198q33 156 101.5 291t168 240.5t236.5 166t293 60.5q105 0 190 -27.5t143.5 -78t97.5 -120t55 -154.5t13.5 -180t-24.5 -198q-33 -156 -101.5 -291t-168 -240.5t-236.5 -166t-293 -60.5q-105 0 -190 27.5t-143.5 78t-97.5 120t-55 154.5 t-13.5 180zM368 354.5q37 -149.5 135 -221.5t249 -72q232 0 409 170.5t248 501.5q50 229 13 378.5t-135 221.5t-249 72q-232 0 -409 -170.5t-248 -501.5q-50 -229 -13 -378.5zM862 1610l29 135h135l-29 -135h-135zM1239 1610l29 135h135l-29 -135h-135z" />
<glyph unicode="&#xd7;" horiz-adv-x="1228" d="M178 129l473 389l-307 389l90 74l305 -389l473 389l58 -74l-471 -389l305 -389l-88 -74l-307 389l-471 -389z" />
<glyph unicode="&#xd8;" horiz-adv-x="1478" d="M115 -4l194 197q-123 204 -51 540q33 156 101.5 291t168 240.5t236.5 166t293 60.5q260 0 391 -166l182 184l47 -39l-196 -196q61 -103 73.5 -244.5t-22.5 -296.5q-33 -156 -101.5 -291t-168 -240.5t-236.5 -166t-293 -60.5q-259 0 -389 166l-182 -184zM381 733 q-61 -291 14 -457l971 969q-100 160 -328 160q-232 0 -409 -170.5t-248 -501.5zM424 221q100 -160 328 -160q232 0 409 170.5t248 501.5q61 293 -14 455z" />
<glyph unicode="&#xd9;" horiz-adv-x="1363" d="M271.5 300.5q-8.5 101.5 21.5 225.5l180 854h-156l19 86h487l-18 -86h-221l-183 -856q-49 -232 32.5 -347.5t260.5 -115.5t310 115.5t180 347.5l182 856h-221l18 86h488l-19 -86h-155l-181 -854q-56 -255 -215.5 -403t-404.5 -148q-133 0 -222.5 39.5t-131.5 112 t-50.5 174zM868 1819h164l121 -275h-111z" />
<glyph unicode="&#xda;" horiz-adv-x="1363" d="M271.5 300.5q-8.5 101.5 21.5 225.5l180 854h-156l19 86h487l-18 -86h-221l-183 -856q-49 -232 32.5 -347.5t260.5 -115.5t310 115.5t180 347.5l182 856h-221l18 86h488l-19 -86h-155l-181 -854q-56 -255 -215.5 -403t-404.5 -148q-133 0 -222.5 39.5t-131.5 112 t-50.5 174zM891 1544l239 275h164l-293 -275h-110z" />
<glyph unicode="&#xdb;" horiz-adv-x="1363" d="M271.5 300.5q-8.5 101.5 21.5 225.5l180 854h-156l19 86h487l-18 -86h-221l-183 -856q-49 -232 32.5 -347.5t260.5 -115.5t310 115.5t180 347.5l182 856h-221l18 86h488l-19 -86h-155l-181 -854q-56 -255 -215.5 -403t-404.5 -148q-133 0 -222.5 39.5t-131.5 112 t-50.5 174zM752 1544l268 275h123l149 -275h-123l-104 201l-191 -201h-122z" />
<glyph unicode="&#xdc;" horiz-adv-x="1363" d="M271.5 300.5q-8.5 101.5 21.5 225.5l180 854h-156l19 86h487l-18 -86h-221l-183 -856q-49 -232 32.5 -347.5t260.5 -115.5t310 115.5t180 347.5l182 856h-221l18 86h488l-19 -86h-155l-181 -854q-56 -255 -215.5 -403t-404.5 -148q-133 0 -222.5 39.5t-131.5 112 t-50.5 174zM780 1610l29 135h135l-29 -135h-135zM1157 1610l29 135h135l-29 -135h-135z" />
<glyph unicode="&#xdd;" horiz-adv-x="1253" d="M299 1380l18 86h459l-18 -86h-215l237 -657l516 657h-194l18 86h439l-19 -86h-121l-606 -768l-113 -526h242l-18 -86h-594l18 86h242l112 526l-282 768h-121zM860 1544l240 275h164l-293 -275h-111z" />
<glyph unicode="&#xde;" horiz-adv-x="1138" d="M43 0l18 86h205l275 1294h-205l18 86h520l-18 -86h-205l-37 -180h308q197 0 289 -111.5t53 -293.5q-42 -203 -178 -316.5t-345 -113.5h-305l-59 -279h246l-19 -86h-561zM455 451h278q163 0 268 86.5t140 253.5q33 155 -37 239t-244 84h-264z" />
<glyph unicode="&#xdf;" d="M41 0l18 86h129l203 952q47 224 170 338.5t309 114.5q75 0 131.5 -19.5t89 -53t51 -80t17.5 -100.5t-12 -114q-30 -136 -116 -219.5t-224 -103.5v-4q159 -18 213.5 -126.5t17.5 -281.5q-34 -165 -150 -277t-278 -112h-94l19 86h71q119 0 207.5 89t118.5 231 q35 164 -24.5 249t-233.5 95l20 98q284 10 344 285q29 136 -26 204t-158 68q-274 0 -354 -373l-201 -946h98l-18 -86h-338z" />
<glyph unicode="&#xe0;" d="M139 287q74 344 510 344h223l19 78q60 290 -193 290q-119 0 -201 -68t-112 -179h-111q41 162 160 247.5t279 85.5q84 0 144.5 -17.5t94.5 -49.5t51.5 -76.5t15.5 -97.5t-13 -113l-138 -645h142l-19 -86h-239l45 215h-4q-74 -133 -172.5 -188.5t-227.5 -55.5 q-147 0 -216.5 84.5t-37.5 231.5zM248 281q-22 -100 29.5 -162t158.5 -62q80 0 150.5 36t120 96.5t84 133.5t51.5 154l12 62q-16 0 -86 3t-106 3q-188 0 -287 -65t-127 -199zM616 1491h164l121 -274h-110z" />
<glyph unicode="&#xe1;" d="M139 287q74 344 510 344h223l19 78q60 290 -193 290q-119 0 -201 -68t-112 -179h-111q41 162 160 247.5t279 85.5q84 0 144.5 -17.5t94.5 -49.5t51.5 -76.5t15.5 -97.5t-13 -113l-138 -645h142l-19 -86h-239l45 215h-4q-74 -133 -172.5 -188.5t-227.5 -55.5 q-147 0 -216.5 84.5t-37.5 231.5zM248 281q-22 -100 29.5 -162t158.5 -62q80 0 150.5 36t120 96.5t84 133.5t51.5 154l12 62q-16 0 -86 3t-106 3q-188 0 -287 -65t-127 -199zM639 1217l240 274h163l-292 -274h-111z" />
<glyph unicode="&#xe2;" d="M139 287q74 344 510 344h223l19 78q60 290 -193 290q-119 0 -201 -68t-112 -179h-111q41 162 160 247.5t279 85.5q84 0 144.5 -17.5t94.5 -49.5t51.5 -76.5t15.5 -97.5t-13 -113l-138 -645h142l-19 -86h-239l45 215h-4q-74 -133 -172.5 -188.5t-227.5 -55.5 q-147 0 -216.5 84.5t-37.5 231.5zM248 281q-22 -100 29.5 -162t158.5 -62q80 0 150.5 36t120 96.5t84 133.5t51.5 154l12 62q-16 0 -86 3t-106 3q-188 0 -287 -65t-127 -199zM500 1217l268 274h123l149 -274h-122l-105 200l-190 -200h-123z" />
<glyph unicode="&#xe3;" d="M139 287q74 344 510 344h223l19 78q60 290 -193 290q-119 0 -201 -68t-112 -179h-111q41 162 160 247.5t279 85.5q84 0 144.5 -17.5t94.5 -49.5t51.5 -76.5t15.5 -97.5t-13 -113l-138 -645h142l-19 -86h-239l45 215h-4q-74 -133 -172.5 -188.5t-227.5 -55.5 q-147 0 -216.5 84.5t-37.5 231.5zM248 281q-22 -100 29.5 -162t158.5 -62q80 0 150.5 36t120 96.5t84 133.5t51.5 154l12 62q-16 0 -86 3t-106 3q-188 0 -287 -65t-127 -199zM483 1262q34 93 82.5 137.5t116.5 44.5q63 0 137 -43q85 -47 117 -47q60 0 104 80h74 q-29 -90 -83 -134.5t-116 -44.5q-45 0 -124 45.5t-127 45.5q-34 0 -63 -22.5t-44 -61.5h-74z" />
<glyph unicode="&#xe4;" d="M139 287q74 344 510 344h223l19 78q60 290 -193 290q-119 0 -201 -68t-112 -179h-111q41 162 160 247.5t279 85.5q84 0 144.5 -17.5t94.5 -49.5t51.5 -76.5t15.5 -97.5t-13 -113l-138 -645h142l-19 -86h-239l45 215h-4q-74 -133 -172.5 -188.5t-227.5 -55.5 q-147 0 -216.5 84.5t-37.5 231.5zM248 281q-22 -100 29.5 -162t158.5 -62q80 0 150.5 36t120 96.5t84 133.5t51.5 154l12 62q-16 0 -86 3t-106 3q-188 0 -287 -65t-127 -199zM528 1282l29 135h135l-28 -135h-136zM905 1282l29 135h135l-29 -135h-135z" />
<glyph unicode="&#xe5;" d="M139 287q74 344 510 344h223l19 78q60 290 -193 290q-119 0 -201 -68t-112 -179h-111q41 162 160 247.5t279 85.5q84 0 144.5 -17.5t94.5 -49.5t51.5 -76.5t15.5 -97.5t-13 -113l-138 -645h142l-19 -86h-239l45 215h-4q-74 -133 -172.5 -188.5t-227.5 -55.5 q-147 0 -216.5 84.5t-37.5 231.5zM248 281q-22 -100 29.5 -162t158.5 -62q80 0 150.5 36t120 96.5t84 133.5t51.5 154l12 62q-16 0 -86 3t-106 3q-188 0 -287 -65t-127 -199zM618 1372q17 76 83 130t143 54t118.5 -54t24.5 -130q-15 -76 -80.5 -130t-142.5 -54 q-76 0 -118.5 53.5t-27.5 130.5zM692 1372q-9 -46 16.5 -78t71.5 -32t85 32t48 78q10 46 -15 78.5t-71 32.5t-85 -32.5t-50 -78.5z" />
<glyph unicode="&#xe6;" horiz-adv-x="1517" d="M139 287q33 155 149.5 231t299.5 76h235l19 90q36 157 2.5 236t-146.5 79q-119 0 -201 -68t-112 -179h-111q41 162 160 247.5t279 85.5q112 0 179 -46.5t66 -159.5h5q153 206 342 206q78 0 136 -25.5t98.5 -84t46 -152.5t-20.5 -231l-17 -84h-645q-43 -218 9.5 -334.5 t172.5 -116.5q118 0 196 77.5t108 187.5h110q-47 -156 -161.5 -253.5t-262.5 -97.5q-77 0 -134.5 25.5t-85.5 60t-44 78t-19 72.5t-1 51h-5q-145 -287 -393 -287q-147 0 -216.5 84.5t-37.5 231.5zM248 281q-22 -100 29.5 -162t158.5 -62q53 0 101 21.5t82.5 54.5t65 79 t50 87t35.5 87.5t23 72.5t12 49h-207q-157 0 -241.5 -57t-108.5 -170zM922 594h534q42 209 0 307t-166 98q-122 0 -215.5 -107t-152.5 -298z" />
<glyph unicode="&#xe7;" d="M223 528q53 253 200.5 405t371.5 152q101 0 171.5 -53.5t77.5 -144.5h5l36 170h86l-84 -391h-86q42 333 -225 333q-110 0 -202.5 -64.5t-152 -169t-87.5 -237.5q-23 -98 -17.5 -183.5t32.5 -149.5t85 -101t141 -37q116 0 204.5 70.5t138.5 200.5h98q-44 -154 -160.5 -250 t-265.5 -107l-66 -65q95 -2 139.5 -37t28.5 -113q-14 -70 -82.5 -112.5t-148.5 -42.5q-121 0 -185 49l50 69q77 -45 145 -45q37 0 70.5 24.5t40.5 57.5q7 37 -20.5 56.5t-72.5 19.5q-30 0 -63 -10l-23 39l105 114q-196 17 -266 166t-19 387z" />
<glyph unicode="&#xe8;" d="M169 304q-8 102 21 224q53 253 200.5 405t371.5 152q91 0 157 -31.5t103 -85.5t54 -128.5t13.5 -157t-22.5 -174.5h-770q-42 -208 22.5 -329.5t223.5 -121.5q264 0 364 258h99q-65 -170 -191 -257t-291 -87q-113 0 -192 41.5t-117 115.5t-46 176zM315 594h660 q36 192 -27 298.5t-219 106.5q-137 0 -248 -111t-166 -294zM653 1491h164l121 -274h-111z" />
<glyph unicode="&#xe9;" d="M169 304q-8 102 21 224q53 253 200.5 405t371.5 152q91 0 157 -31.5t103 -85.5t54 -128.5t13.5 -157t-22.5 -174.5h-770q-42 -208 22.5 -329.5t223.5 -121.5q264 0 364 258h99q-65 -170 -191 -257t-291 -87q-113 0 -192 41.5t-117 115.5t-46 176zM315 594h660 q36 192 -27 298.5t-219 106.5q-137 0 -248 -111t-166 -294zM676 1217l239 274h164l-293 -274h-110z" />
<glyph unicode="&#xea;" d="M169 304q-8 102 21 224q53 253 200.5 405t371.5 152q91 0 157 -31.5t103 -85.5t54 -128.5t13.5 -157t-22.5 -174.5h-770q-42 -208 22.5 -329.5t223.5 -121.5q264 0 364 258h99q-65 -170 -191 -257t-291 -87q-113 0 -192 41.5t-117 115.5t-46 176zM315 594h660 q36 192 -27 298.5t-219 106.5q-137 0 -248 -111t-166 -294zM537 1217l268 274h123l149 -274h-123l-104 200l-191 -200h-122z" />
<glyph unicode="&#xeb;" d="M169 304q-8 102 21 224q53 253 200.5 405t371.5 152q91 0 157 -31.5t103 -85.5t54 -128.5t13.5 -157t-22.5 -174.5h-770q-42 -208 22.5 -329.5t223.5 -121.5q264 0 364 258h99q-65 -170 -191 -257t-291 -87q-113 0 -192 41.5t-117 115.5t-46 176zM315 594h660 q36 192 -27 298.5t-219 106.5q-137 0 -248 -111t-166 -294zM565 1282l29 135h135l-29 -135h-135zM942 1282l29 135h135l-29 -135h-135z" />
<glyph unicode="&#xec;" horiz-adv-x="530" d="M29 0l18 86h176l189 885h-176l18 86h287l-207 -971h164l-19 -86h-450zM383 1491h164l121 -274h-111z" />
<glyph unicode="&#xed;" horiz-adv-x="530" d="M29 0l18 86h176l189 885h-176l18 86h287l-207 -971h164l-19 -86h-450zM406 1217l239 274h164l-293 -274h-110z" />
<glyph unicode="&#xee;" horiz-adv-x="530" d="M29 0l18 86h176l189 885h-176l18 86h287l-207 -971h164l-19 -86h-450zM223 1217l269 274h122l150 -274h-123l-104 200l-191 -200h-123z" />
<glyph unicode="&#xef;" horiz-adv-x="530" d="M29 0l18 86h176l189 885h-176l18 86h287l-207 -971h164l-19 -86h-450zM295 1282l29 135h135l-29 -135h-135zM672 1282l28 135h136l-29 -135h-135z" />
<glyph unicode="&#xf0;" horiz-adv-x="1060" d="M168 345.5q1 84.5 22 182.5q21 100 70 189t119.5 157.5t165 109t198.5 40.5q172 0 246 -139l4 4q-30 254 -215 391l-260 -145l-41 55l240 133q-102 62 -236 92l41 76q171 -29 297 -111l271 152l38 -57l-245 -138q163 -129 216.5 -341t-5.5 -476q-54 -255 -200.5 -402 t-365.5 -147q-92 0 -161.5 27t-113 76t-65 118t-20.5 153.5zM301 528q-51 -236 13.5 -353.5t228.5 -117.5q163 0 277 117t165 354q20 113 7 191t-56.5 127t-95.5 70.5t-111 21.5t-121 -22.5t-123.5 -68.5t-111.5 -129t-72 -190z" />
<glyph unicode="&#xf1;" horiz-adv-x="1138" d="M41 0l18 86h164l189 885h-164l18 86h275l-37 -166h4q128 194 352 194q166 0 221.5 -95t12.5 -296l-129 -608h151l-18 -86h-439l19 86h176l129 608q34 156 -10 230.5t-166 74.5q-125 0 -225.5 -107.5t-139.5 -289.5l-108 -516h164l-19 -86h-438zM578 1262q34 93 82 137.5 t116 44.5q63 0 137 -43q85 -47 117 -47q61 0 105 80h73q-29 -90 -82.5 -134.5t-115.5 -44.5q-45 0 -124.5 45.5t-127.5 45.5q-34 0 -63 -22.5t-44 -61.5h-73z" />
<glyph unicode="&#xf2;" horiz-adv-x="1060" d="M183 239.5q-25 123.5 7 288.5q52 247 208 402t364 155q113 0 192 -41.5t116.5 -115.5t45.5 -176t-20 -224q-53 -247 -208.5 -402t-363.5 -155q-138 0 -227 72.5t-114 196zM283.5 344.5q5.5 -85.5 32.5 -149.5t85.5 -101t141.5 -37q147 0 271.5 126.5t170.5 344.5 q23 98 17.5 183.5t-32.5 149.5t-85.5 101t-141.5 37q-147 0 -271.5 -126.5t-170.5 -344.5q-23 -98 -17.5 -183.5zM647 1491h164l121 -274h-111z" />
<glyph unicode="&#xf3;" horiz-adv-x="1060" d="M183 239.5q-25 123.5 7 288.5q52 247 208 402t364 155q113 0 192 -41.5t116.5 -115.5t45.5 -176t-20 -224q-53 -247 -208.5 -402t-363.5 -155q-138 0 -227 72.5t-114 196zM283.5 344.5q5.5 -85.5 32.5 -149.5t85.5 -101t141.5 -37q147 0 271.5 126.5t170.5 344.5 q23 98 17.5 183.5t-32.5 149.5t-85.5 101t-141.5 37q-147 0 -271.5 -126.5t-170.5 -344.5q-23 -98 -17.5 -183.5zM670 1217l239 274h164l-293 -274h-110z" />
<glyph unicode="&#xf4;" horiz-adv-x="1060" d="M183 239.5q-25 123.5 7 288.5q52 247 208 402t364 155q113 0 192 -41.5t116.5 -115.5t45.5 -176t-20 -224q-53 -247 -208.5 -402t-363.5 -155q-138 0 -227 72.5t-114 196zM283.5 344.5q5.5 -85.5 32.5 -149.5t85.5 -101t141.5 -37q147 0 271.5 126.5t170.5 344.5 q23 98 17.5 183.5t-32.5 149.5t-85.5 101t-141.5 37q-147 0 -271.5 -126.5t-170.5 -344.5q-23 -98 -17.5 -183.5zM530 1217l269 274h123l149 -274h-123l-104 200l-191 -200h-123z" />
<glyph unicode="&#xf5;" horiz-adv-x="1060" d="M183 239.5q-25 123.5 7 288.5q52 247 208 402t364 155q113 0 192 -41.5t116.5 -115.5t45.5 -176t-20 -224q-53 -247 -208.5 -402t-363.5 -155q-138 0 -227 72.5t-114 196zM283.5 344.5q5.5 -85.5 32.5 -149.5t85.5 -101t141.5 -37q147 0 271.5 126.5t170.5 344.5 q23 98 17.5 183.5t-32.5 149.5t-85.5 101t-141.5 37q-147 0 -271.5 -126.5t-170.5 -344.5q-23 -98 -17.5 -183.5zM514 1262q34 93 82.5 137.5t116.5 44.5q63 0 137 -43q85 -47 117 -47q60 0 104 80h74q-29 -90 -83 -134.5t-116 -44.5q-45 0 -124.5 45.5t-127.5 45.5 q-34 0 -62.5 -22.5t-43.5 -61.5h-74z" />
<glyph unicode="&#xf6;" horiz-adv-x="1060" d="M183 239.5q-25 123.5 7 288.5q52 247 208 402t364 155q113 0 192 -41.5t116.5 -115.5t45.5 -176t-20 -224q-53 -247 -208.5 -402t-363.5 -155q-138 0 -227 72.5t-114 196zM283.5 344.5q5.5 -85.5 32.5 -149.5t85.5 -101t141.5 -37q147 0 271.5 126.5t170.5 344.5 q23 98 17.5 183.5t-32.5 149.5t-85.5 101t-141.5 37q-147 0 -271.5 -126.5t-170.5 -344.5q-23 -98 -17.5 -183.5zM559 1282l29 135h135l-29 -135h-135zM936 1282l29 135h135l-29 -135h-135z" />
<glyph unicode="&#xf7;" horiz-adv-x="1228" d="M195 463l24 110h1036l-24 -110h-1036zM541 0l30 147h148l-31 -147h-147zM729 889l33 147h147l-32 -147h-148z" />
<glyph unicode="&#xf8;" horiz-adv-x="1060" d="M76 -6l143 145q-81 153 -29 389q52 247 208 402t364 155q186 0 278 -112l129 131l41 -39l-139 -139q77 -145 25 -398q-53 -247 -208.5 -402t-363.5 -155q-180 0 -272 119l-135 -137zM301 528q-40 -183 6 -301l647 658q-62 114 -211 114q-147 0 -271.5 -126.5 t-170.5 -344.5zM332 170q63 -113 211 -113q147 0 271.5 126.5t170.5 344.5q39 183 -6 303z" />
<glyph unicode="&#xf9;" horiz-adv-x="1138" d="M248 971l18 86h262l-147 -695q-34 -156 10 -230.5t166 -74.5t223 104t138 281l112 529h-164l19 86h274l-207 -971h164l-18 -86h-275l37 172h-4q-62 -95 -154 -148t-198 -53q-166 0 -221.5 95t-12.5 296l129 609h-151zM674 1491h164l120 -274h-110z" />
<glyph unicode="&#xfa;" horiz-adv-x="1138" d="M248 971l18 86h262l-147 -695q-34 -156 10 -230.5t166 -74.5t223 104t138 281l112 529h-164l19 86h274l-207 -971h164l-18 -86h-275l37 172h-4q-62 -95 -154 -148t-198 -53q-166 0 -221.5 95t-12.5 296l129 609h-151zM696 1217l240 274h164l-293 -274h-111z" />
<glyph unicode="&#xfb;" horiz-adv-x="1138" d="M248 971l18 86h262l-147 -695q-34 -156 10 -230.5t166 -74.5t223 104t138 281l112 529h-164l19 86h274l-207 -971h164l-18 -86h-275l37 172h-4q-62 -95 -154 -148t-198 -53q-166 0 -221.5 95t-12.5 296l129 609h-151zM557 1217l268 274h123l150 -274h-123l-105 200 l-190 -200h-123z" />
<glyph unicode="&#xfc;" horiz-adv-x="1138" d="M248 971l18 86h262l-147 -695q-34 -156 10 -230.5t166 -74.5t223 104t138 281l112 529h-164l19 86h274l-207 -971h164l-18 -86h-275l37 172h-4q-62 -95 -154 -148t-198 -53q-166 0 -221.5 95t-12.5 296l129 609h-151zM586 1282l28 135h136l-29 -135h-135zM963 1282 l28 135h135l-28 -135h-135z" />
<glyph unicode="&#xfd;" d="M100 -356l19 86q29 -13 82 -13q44 0 75 18.5t75.5 78t117.5 186.5l-141 971h-97l19 86h360l-18 -86h-154l119 -811h4l463 811h-154l19 86h336l-19 -86h-71l-650 -1121q-72 -127 -138 -173t-148 -46q-62 0 -99 13zM676 1217l239 274h164l-293 -274h-110z" />
<glyph unicode="&#xfe;" horiz-adv-x="1138" d="M-51 -340l18 86h162l346 1634h-162l19 86h272l-129 -606h4q91 124 181.5 174.5t213.5 50.5q46 0 88 -10t86.5 -34t75 -65t53 -103t20.5 -147t-23 -198q-54 -249 -197.5 -403t-339.5 -154q-240 0 -303 207h-4l-90 -432h168l-19 -86h-440zM370 354.5q-1 -70.5 14 -118.5 t39.5 -84t58 -56t68 -29.5t71.5 -9.5q110 0 202.5 64.5t152 169t87.5 237.5q23 98 17.5 183.5t-32.5 149.5t-85.5 101t-141.5 37q-88 0 -162.5 -41t-126.5 -112t-87.5 -155t-55.5 -181q-18 -85 -19 -155.5z" />
<glyph unicode="&#xff;" d="M100 -356l19 86q29 -13 82 -13q44 0 75 18.5t75.5 78t117.5 186.5l-141 971h-97l19 86h360l-18 -86h-154l119 -811h4l463 811h-154l19 86h336l-19 -86h-71l-650 -1121q-72 -127 -138 -173t-148 -46q-62 0 -99 13zM541 1282l28 135h136l-29 -135h-135zM918 1282l28 135 h135l-28 -135h-135z" />
<glyph unicode="&#x152;" horiz-adv-x="1933" d="M233.5 535q2.5 95 24.5 198q37 174 106.5 312.5t171.5 238.5t240.5 153.5t306.5 53.5q125 0 238 -25h786l-92 -432h-98l74 346h-602l-125 -585h301l51 239h98l-123 -579h-98l55 254h-301l-133 -623h612l78 369h99l-97 -455h-802q-11 -1 -62.5 -8t-73 -9t-61.5 -5t-74 -3 q-105 0 -190 27.5t-143.5 78t-97.5 120t-55 154.5t-13.5 180zM368 354.5q37 -149.5 135 -221.5t249 -72q139 0 264 25l274 1294q-86 25 -211 25q-264 0 -444 -162.5t-254 -509.5q-50 -229 -13 -378.5z" />
<glyph unicode="&#x153;" horiz-adv-x="1630" d="M179.5 223.5q-27.5 123.5 10.5 304.5q53 252 205.5 404.5t343.5 152.5q52 0 98.5 -13.5t90 -44t69.5 -88.5t27 -138h4q137 284 404 284q78 0 136 -25.5t98.5 -84t46 -152.5t-20.5 -231l-17 -84h-665q-45 -220 10 -335.5t188 -115.5q118 0 195.5 77t107.5 188h111 q-47 -156 -161.5 -253.5t-262.5 -97.5q-143 0 -215 77t-72 198h-4q-163 -275 -426 -275q-117 0 -195.5 64.5t-106 188zM280 339.5q3 -83.5 25 -146t72.5 -99.5t122.5 -37q144 0 255 121t163 365q98 456 -201 456q-144 0 -256 -120.5t-162 -362.5q-22 -93 -19 -176.5z M1028 594h555q42 210 -1.5 307.5t-172.5 97.5q-132 0 -227.5 -106.5t-153.5 -298.5z" />
<glyph unicode="&#x178;" horiz-adv-x="1253" d="M299 1380l18 86h459l-18 -86h-215l237 -657l516 657h-194l18 86h439l-19 -86h-121l-606 -768l-113 -526h242l-18 -86h-594l18 86h242l112 526l-282 768h-121zM713 1610l28 135h136l-29 -135h-135zM1090 1610l28 135h135l-28 -135h-135z" />
<glyph unicode="&#x2c6;" horiz-adv-x="528" d="M252 1217l268 274h123l150 -274h-123l-105 200l-190 -200h-123z" />
<glyph unicode="&#x2dc;" horiz-adv-x="528" d="M236 1262q34 93 82 137.5t116 44.5q63 0 137 -43q85 -47 117 -47q61 0 105 80h73q-29 -90 -82.5 -134.5t-115.5 -44.5q-45 0 -124.5 45.5t-127.5 45.5q-34 0 -63 -22.5t-44 -61.5h-73z" />
<glyph unicode="&#x2000;" horiz-adv-x="942" />
<glyph unicode="&#x2001;" horiz-adv-x="1884" />
<glyph unicode="&#x2002;" horiz-adv-x="942" />
<glyph unicode="&#x2003;" horiz-adv-x="1884" />
<glyph unicode="&#x2004;" horiz-adv-x="628" />
<glyph unicode="&#x2005;" horiz-adv-x="471" />
<glyph unicode="&#x2006;" horiz-adv-x="314" />
<glyph unicode="&#x2007;" horiz-adv-x="314" />
<glyph unicode="&#x2008;" horiz-adv-x="235" />
<glyph unicode="&#x2009;" horiz-adv-x="376" />
<glyph unicode="&#x200a;" horiz-adv-x="104" />
<glyph unicode="&#x2010;" horiz-adv-x="757" d="M242 512l20 98h492l-21 -98h-491z" />
<glyph unicode="&#x2011;" horiz-adv-x="757" d="M242 512l20 98h492l-21 -98h-491z" />
<glyph unicode="&#x2012;" horiz-adv-x="757" d="M242 512l20 98h492l-21 -98h-491z" />
<glyph unicode="&#x2013;" d="M111 518l18 86h1024l-18 -86h-1024z" />
<glyph unicode="&#x2014;" horiz-adv-x="2048" d="M111 518l18 86h2048l-18 -86h-2048z" />
<glyph unicode="&#x2018;" horiz-adv-x="569" d="M422 1057l31 147l145 262h86l-145 -262h61l-31 -147h-147z" />
<glyph unicode="&#x2019;" horiz-adv-x="569" d="M422 1057l145 262h-61l31 147h147l-31 -147l-145 -262h-86z" />
<glyph unicode="&#x201a;" horiz-adv-x="569" d="M141 -262l146 262h-62l31 147h147l-30 -147l-146 -262h-86z" />
<glyph unicode="&#x201c;" horiz-adv-x="909" d="M412 1057l30 147l146 262h86l-146 -262h62l-31 -147h-147zM772 1057l31 147l145 262h86l-145 -262h61l-30 -147h-148z" />
<glyph unicode="&#x201d;" horiz-adv-x="909" d="M412 1057l145 262h-61l30 147h148l-31 -147l-145 -262h-86zM772 1057l146 262h-62l31 147h147l-30 -147l-146 -262h-86z" />
<glyph unicode="&#x201e;" horiz-adv-x="909" d="M131 -262l145 262h-61l31 147h147l-31 -147l-145 -262h-86zM492 -262l145 262h-62l31 147h148l-31 -147l-145 -262h-86z" />
<glyph unicode="&#x2022;" d="M264 367l156 731h651l-156 -731h-651z" />
<glyph unicode="&#x2026;" horiz-adv-x="2048" d="M268 0l31 147h147l-30 -147h-148zM950 0l31 147h147l-30 -147h-148zM1632 0l31 147h147l-30 -147h-148z" />
<glyph unicode="&#x202f;" horiz-adv-x="376" />
<glyph unicode="&#x2039;" horiz-adv-x="569" d="M260 561l270 447h99l-271 -447l80 -446h-98z" />
<glyph unicode="&#x203a;" horiz-adv-x="569" d="M180 115l269 446l-78 447h98l78 -447l-268 -446h-99z" />
<glyph unicode="&#x205f;" horiz-adv-x="471" />
<glyph unicode="&#x20ac;" d="M133 557l41 86h115q11 79 45 205h-135l41 86h118q83 252 224 404.5t329 152.5q55 0 95.5 -16.5t65 -47.5t38 -61t23.5 -70h4l37 179h90l-97 -455h-100q9 48 10 95.5t-5.5 90.5t-22 79t-38.5 63t-56.5 42t-73.5 15q-119 0 -223 -121t-177 -350h527l-41 -86h-512 q-30 -111 -43 -205h460l-41 -86h-434q-32 -244 20.5 -370t184.5 -126q23 0 45.5 3.5t45 10.5t44 18.5t42.5 26.5t40 35.5t36 44.5t32.5 54.5t27.5 64.5h101q-63 -169 -178.5 -256.5t-259.5 -87.5q-79 0 -138.5 29t-95.5 81.5t-56.5 125t-21 160t9.5 186.5h-143z" />
<glyph unicode="&#x2122;" horiz-adv-x="2027" d="M373 1368l20 98h660l-21 -98h-274l-158 -739h-111l158 739h-274zM1059 629l178 837h186l123 -661l393 661h187l-178 -837h-111l156 727h-4l-449 -727h-74l-137 727h-4l-156 -727h-110z" />
<glyph unicode="&#xe000;" horiz-adv-x="1054" d="M0 0v1055h1055v-1055h-1055z" />
<glyph unicode="&#xfb01;" d="M41 0l18 86h164l189 885h-183l19 86h182l16 84q35 165 140.5 257.5t275.5 92.5q64 0 112.5 -15.5t77 -42t45.5 -62.5t17.5 -77t-6.5 -86h-111q19 94 -25 145.5t-138 51.5q-220 0 -279 -277l-14 -71h551l-207 -971h135l-19 -86h-397l19 86h151l189 885h-441l-188 -885h170 l-19 -86h-444z" />
<glyph unicode="&#xfb02;" d="M41 0l18 86h164l189 885h-183l19 86h182l10 55q43 197 150.5 288t294.5 91q121 0 289 -39l-291 -1366h137l-19 -86h-397l19 86h149l275 1294q-84 25 -168 25q-130 0 -210.5 -63t-115.5 -222l-12 -63h213l-19 -86h-213l-188 -885h170l-19 -86h-444z" />
</font>
</defs>
</svg>
